<svg viewBox="0 0 1024 1024" xmlns="http://www.w3.org/2000/svg" width="200" height="200">
  <defs/>
  <path d="M512 884.736H197.973c-32.768 0-59.392-26.624-59.392-59.392v-627.37c0-32.769 26.624-59.393 59.392-59.393h628.054c32.768 0 59.392 26.624 59.392 59.392V512c0 11.605-8.875 20.48-20.48 20.48s-20.48-8.875-20.48-20.48V197.973c0-9.557-8.875-18.432-18.432-18.432H197.973c-9.557 0-18.432 8.875-18.432 18.432v627.371c0 9.557 8.875 18.432 18.432 18.432H512c11.605 0 20.48 8.875 20.48 20.48s-8.875 20.48-20.48 20.48z"/>
  <path d="M864.256 408.917H159.744c-11.605 0-20.48-8.874-20.48-20.48s8.875-20.48 20.48-20.48h704.512c11.605 0 20.48 8.875 20.48 20.48s-8.875 20.48-20.48 20.48zm0 299.691H512c-11.605 0-20.48-8.875-20.48-20.48s8.875-20.48 20.48-20.48h352.256c11.605 0 20.48 8.875 20.48 20.48s-8.875 20.48-20.48 20.48z"/>
  <path d="M688.128 884.736c-11.605 0-20.48-8.875-20.48-20.48V512c0-11.605 8.875-20.48 20.48-20.48s20.48 8.875 20.48 20.48v352.256c0 11.605-8.875 20.48-20.48 20.48z"/>
</svg>
