<?xml version="1.0" standalone="no"?><!DOCTYPE svg PUBLIC "-//W3C//DTD SVG 1.1//EN" "http://www.w3.org/Graphics/SVG/1.1/DTD/svg11.dtd">
<svg t="1555639512576" class="icon" style="" viewBox="0 0 1024 1024" version="1.1" xmlns="http://www.w3.org/2000/svg" p-id="99468" xmlns:xlink="http://www.w3.org/1999/xlink" width="200" height="200">
  <defs>
    <style type="text/css"></style>
  </defs>
  <path d="M512 884.736H197.973333c-32.768 0-59.392-26.624-59.392-59.392V197.973333c0-32.768 26.624-59.392 59.392-59.392h628.053334c32.768 0 59.392 26.624 59.392 59.392v314.026667c0 11.605333-8.874667 20.48-20.48 20.48s-20.48-8.874667-20.48-20.48V197.973333c0-9.557333-8.874667-18.432-18.432-18.432H197.973333c-9.557333 0-18.432 8.874667-18.432 18.432v627.370667c0 9.557333 8.874667 18.432 18.432 18.432h314.026667c11.605333 0 20.48 8.874667 20.48 20.48s-8.874667 20.48-20.48 20.48z" p-id="99469"></path>
  <path d="M864.256 408.917333H159.744c-11.605333 0-20.48-8.874667-20.48-20.48s8.874667-20.48 20.48-20.48h704.512c11.605333 0 20.48 8.874667 20.48 20.48s-8.874667 20.48-20.48 20.48zM864.256 708.608H512c-11.605333 0-20.48-8.874667-20.48-20.48s8.874667-20.48 20.48-20.48h352.256c11.605333 0 20.48 8.874667 20.48 20.48s-8.874667 20.48-20.48 20.48z" p-id="99470"></path>
  <path d="M688.128 884.736c-11.605333 0-20.48-8.874667-20.48-20.48V512c0-11.605333 8.874667-20.48 20.48-20.48s20.48 8.874667 20.48 20.48v352.256c0 11.605333-8.874667 20.48-20.48 20.48z" p-id="99471"></path>
</svg>
