<svg width="20" height="20" xmlns="http://www.w3.org/2000/svg">
  <g fill="none" fill-rule="evenodd">
    <path fill="none" d="M0 0h20v20H0z"/>
    <path d="M15.882 11.833h-.235V8.06a5.654 5.654 0 00-5.176-5.626V1.47a.47.47 0 10-.942 0v.962a5.654 5.654 0 00-5.176 5.626v3.774h-.235A2.12 2.12 0 002 13.951v1.177h5.059a2.941 2.941 0 005.882 0H18V13.95a2.12 2.12 0 00-2.118-2.118zM10 17.128c-1.103 0-2-.898-2-2h4c0 1.102-.897 2-2 2zm7.059-2.942H2.94v-.235c0-.65.527-1.176 1.177-1.176h1.176V8.059a4.706 4.706 0 019.412 0v4.716h1.176c.65 0 1.177.526 1.177 1.176v.235z" fill="#4A4A4A" fill-rule="nonzero"/>
  </g>
</svg>
