<svg width="200" height="200" viewBox="0 0 1024 1024" xmlns="http://www.w3.org/2000/svg">
  <path fill="#8a8a8a" d="M750.4 148H920v51.2H750.4z"/>
  <path fill="#8a8a8a" d="M970.4 28.8H56C28 28.8 4.8 51.2 4.8 80v186.4c0 28 22.4 51.2 51.2 51.2h915.2c28 0 51.2-22.4 51.2-51.2V80c-.8-28-24-51.2-52-51.2zm23.2 221.6c0 19.2-15.2 34.4-34.4 34.4h-892c-19.2 0-34.4-15.2-34.4-34.4V96c0-19.2 15.2-34.4 34.4-34.4h892c19.2 0 34.4 15.2 34.4 34.4v154.4z"/>
  <path fill="#8a8a8a" d="M411.2 148h68v51.2h-68zm-152 0h68v51.2h-68zm-152.8 0h68v51.2h-68zM750.4 486.4H920v51.2H750.4z"/>
  <path fill="#8a8a8a" d="M970.4 368H56c-28 0-51.2 22.4-51.2 51.2v186.4c0 28 22.4 51.2 51.2 51.2h915.2c28 0 51.2-22.4 51.2-51.2V419.2c-.8-28.8-24-51.2-52-51.2zm23.2 221.6c0 19.2-15.2 34.4-34.4 34.4h-892c-19.2 0-34.4-15.2-34.4-34.4V435.2c0-19.2 15.2-34.4 34.4-34.4h892c19.2 0 34.4 15.2 34.4 34.4v154.4z"/>
  <path fill="#8a8a8a" d="M411.2 486.4h68v51.2h-68zm-152 0h68v51.2h-68zm-152.8 0h68v51.2h-68zM750.4 825.6H920v51.2H750.4z"/>
  <path fill="#8a8a8a" d="M970.4 707.2H56c-28 0-51.2 22.4-51.2 51.2V944c0 28 22.4 51.2 51.2 51.2h915.2c28 0 51.2-22.4 51.2-51.2V757.6c-.8-28-24-50.4-52-50.4zM993.6 928c0 19.2-15.2 34.4-34.4 34.4h-892c-19.2 0-34.4-15.2-34.4-34.4V773.6c0-19.2 15.2-34.4 34.4-34.4h892c19.2 0 34.4 15.2 34.4 34.4V928z"/>
  <path fill="#8a8a8a" d="M411.2 825.6h68v51.2h-68zm-152 0h68v51.2h-68zm-152.8 0h68v51.2h-68z"/>
</svg>
