<?xml version="1.0" standalone="no"?><!DOCTYPE svg PUBLIC "-//W3C//DTD SVG 1.1//EN" "http://www.w3.org/Graphics/SVG/1.1/DTD/svg11.dtd"><svg class="icon" width="200px" height="200.00px" viewBox="0 0 1024 1024" version="1.1" xmlns="http://www.w3.org/2000/svg"><path fill="#8a8a8a" d="M750.4 148h169.6v51.2h-169.6z"  /><path fill="#8a8a8a" d="M970.4 28.8H56c-28 0-51.2 22.4-51.2 51.2v186.4c0 28 22.4 51.2 51.2 51.2h915.2c28 0 51.2-22.4 51.2-51.2V80c-0.8-28-24-51.2-52-51.2z m23.2 221.6c0 19.2-15.2 34.4-34.4 34.4h-892c-19.2 0-34.4-15.2-34.4-34.4V96c0-19.2 15.2-34.4 34.4-34.4h892c19.2 0 34.4 15.2 34.4 34.4v154.4z"  /><path fill="#8a8a8a" d="M411.2 148h68v51.2h-68zM259.2 148h68v51.2h-68zM106.4 148h68v51.2h-68z"  /><path fill="#8a8a8a" d="M750.4 486.4h169.6v51.2h-169.6z"  /><path fill="#8a8a8a" d="M970.4 368H56c-28 0-51.2 22.4-51.2 51.2v186.4c0 28 22.4 51.2 51.2 51.2h915.2c28 0 51.2-22.4 51.2-51.2v-186.4c-0.8-28.8-24-51.2-52-51.2z m23.2 221.6c0 19.2-15.2 34.4-34.4 34.4h-892c-19.2 0-34.4-15.2-34.4-34.4v-154.4c0-19.2 15.2-34.4 34.4-34.4h892c19.2 0 34.4 15.2 34.4 34.4v154.4z"  /><path fill="#8a8a8a" d="M411.2 486.4h68v51.2h-68zM259.2 486.4h68v51.2h-68zM106.4 486.4h68v51.2h-68z"  /><path fill="#8a8a8a" d="M750.4 825.6h169.6v51.2h-169.6z"  /><path fill="#8a8a8a" d="M970.4 707.2H56c-28 0-51.2 22.4-51.2 51.2V944c0 28 22.4 51.2 51.2 51.2h915.2c28 0 51.2-22.4 51.2-51.2v-186.4c-0.8-28-24-50.4-52-50.4z m23.2 220.8c0 19.2-15.2 34.4-34.4 34.4h-892c-19.2 0-34.4-15.2-34.4-34.4v-154.4c0-19.2 15.2-34.4 34.4-34.4h892c19.2 0 34.4 15.2 34.4 34.4V928z"  /><path fill="#8a8a8a" d="M411.2 825.6h68v51.2h-68zM259.2 825.6h68v51.2h-68zM106.4 825.6h68v51.2h-68z"  /></svg>