<svg width="200" height="200" viewBox="0 0 1024 1024" xmlns="http://www.w3.org/2000/svg">
  <path fill="#8a8a8a" d="M904.208 596.672l-352.992 156.48c-33.792 14.512-47.248 14.512-78.4 0l-353.024-156.48C101.056 586.864 96 550.544 96 530.72c23.568 13.28 56.704 28.064 55.472 27.312L512 721.936l360.528-163.904c.624-.144 32.768-16.128 55.472-27.312 0 20.288-6.4 57.952-23.792 65.952zm0-163.904l-352.992 156.48c-33.792 14.496-47.248 14.496-78.4 0l-353.024-156.48c-27.728-14.512-26.864-60.192 0-77.264l352.992-183.792c31.2-15.36 50.72-16.208 78.4 0l353.024 183.776c26.864 14.512 26 65.312 0 77.28zM512 202.912L151.472 394.128 512 544l360.528-149.824zm0 0c1.92.608 2.608 3.008 0 0zm0 682.928l360.528-163.904c.624-.144 32.768-16.128 55.472-27.312 0 20.288-6.4 57.952-23.792 65.952L551.216 917.04c-33.792 14.512-47.248 14.512-78.4 0L119.792 760.576C101.056 750.768 96 714.448 96 694.624c23.568 13.28 56.704 28.064 55.472 27.312z"/>
</svg>
