<svg width="20" height="20" xmlns="http://www.w3.org/2000/svg">
  <g fill="none" fill-rule="evenodd">
    <path fill="none" d="M0 0h20v20H0z"/>
    <path d="M4.375 3.25c-.621 0-1.125.504-1.125 1.125v11.25c0 .621.504 1.125 1.125 1.125h11.25c.621 0 1.125-.504 1.125-1.125V4.375c0-.621-.504-1.125-1.125-1.125H4.375zm0-1.125h11.25a2.25 2.25 0 012.25 2.25v11.25a2.25 2.25 0 01-2.25 2.25H4.375a2.25 2.25 0 01-2.25-2.25V4.375a2.25 2.25 0 012.25-2.25zM5.5 7.75h9L10 13.375 5.5 7.75z" fill="#40A9FF" fill-rule="nonzero"/>
  </g>
</svg>
