<?xml version="1.0" standalone="no"?><!DOCTYPE svg PUBLIC "-//W3C//DTD SVG 1.1//EN" "http://www.w3.org/Graphics/SVG/1.1/DTD/svg11.dtd"><svg t="1555912985432" class="icon" style="" viewBox="0 0 1024 1024" version="1.1" xmlns="http://www.w3.org/2000/svg" p-id="26874" xmlns:xlink="http://www.w3.org/1999/xlink" width="200" height="200"><defs><style type="text/css"></style></defs><path d="M544 191.9H224c-17.6 0-32 14.4-32 32s14.4 32 32 32h320c17.6 0 32-14.4 32-32s-14.4-32-32-32z" fill="#1296db" p-id="26875"></path><path d="M832 414.2l-64-37-31.9-18.4-288 166.3v332.6L625.3 960l110.9 64 90.2-52.1 197.8-114.2V525.1L832 414.2zM512.1 820.7V605.4l192 107.6v218.6l-192-110.9zM736 657.5L538.5 546.8l197.6-114.1 31.9 18.4 64 37L932.4 546 832 603l-64 36.3-32 18.2z m224.1 163.2l-128.1 74-63.9 36.9V712.9l63.9-36.3 128.1-72.7v216.8z" fill="#1296db" p-id="26876"></path><path d="M480 447.8H288c-17.7 0-32-14.3-32-32s14.3-32 32-32h192c17.7 0 32 14.3 32 32s-14.3 32-32 32z" fill="#1296db" p-id="26877"></path><path d="M768 414.2V82c0-45.2-36.8-82-82-82H82C36.8 0 0 36.7 0 82v860c0 45.2 36.8 82 82 82h654.1v-64H82c-9.9 0-18-8.1-18-18V82c0-9.9 8.1-18 18-18h604c9.9 0 18 8.1 18 18v295.3l64 36.9z" fill="#1296db" p-id="26878"></path></svg>