<svg width="200" height="200" viewBox="0 0 1024 1024" xmlns="http://www.w3.org/2000/svg">
  <path fill="#8a8a8a" d="M837.12 938.667H186.88A101.76 101.76 0 0185.333 837.12V186.88A101.76 101.76 0 01186.88 85.333h650.24A101.76 101.76 0 01938.667 186.88v650.24A101.76 101.76 0 01837.12 938.667zM186.88 128A59.093 59.093 0 00128 186.88v650.24A59.093 59.093 0 00186.88 896h650.24A59.093 59.093 0 00896 837.12V186.88A59.093 59.093 0 00837.12 128zm707.2 234.667H106.667a21.333 21.333 0 010-42.667H894.08a21.333 21.333 0 010 42.667zM208 222.72a30.72 30.72 0 1061.44 0 30.72 30.72 0 10-61.44 0zm96 0a30.72 30.72 0 1061.44 0 30.72 30.72 0 10-61.44 0zm90.667 0a30.72 30.72 0 1061.44 0 30.72 30.72 0 10-61.44 0zm-5.12 446.507a7.893 7.893 0 017.466 10.026 80.853 80.853 0 01-84.266 54.614c-64 0-94.507-45.227-94.507-102.827s31.36-104.96 96.427-104.96a78.08 78.08 0 0182.986 55.893 7.68 7.68 0 01-7.893 9.387h-28.373a7.893 7.893 0 01-7.254-5.12 39.04 39.04 0 00-40.746-25.813c-36.054 0-49.92 32.426-49.92 69.12s11.946 69.973 50.986 69.973a39.04 39.04 0 0039.68-25.813 7.68 7.68 0 017.254-4.907zm232.746-39.894c0 56.32-33.706 104.534-99.2 104.534s-96.426-46.08-96.426-103.894S463.36 526.08 526.08 526.08c58.88 0 96.213 41.387 96.213 103.253zm-150.613 0c0 39.467 17.28 69.334 52.907 69.334 39.04 0 52.693-32.64 52.693-68.48s-15.573-68.267-53.333-68.267-52.267 27.947-52.267 67.2zm358.187 26.027c0-34.56 0-64 1.493-87.253h-1.493c-8.96 39.253-27.734 93.44-46.08 153.813a13.227 13.227 0 01-12.374 9.173h-17.92a12.8 12.8 0 01-12.373-9.386c-14.507-54.4-33.493-116.054-42.667-154.027h-1.493c1.707 23.68 2.56 56.32 2.56 91.093v59.52a12.8 12.8 0 01-12.8 12.8h-14.08a12.8 12.8 0 01-12.8-12.8V541.867a12.8 12.8 0 0112.8-12.8h42.667a12.587 12.587 0 0112.373 9.173c14.933 50.987 31.147 111.573 36.693 139.947 4.694-25.174 24.747-89.814 41.174-140.374a12.587 12.587 0 0112.16-8.746h40.533a12.8 12.8 0 0112.8 12.8v176.426a12.8 12.8 0 01-12.8 12.8h-15.573a12.8 12.8 0 01-12.8-12.8zm-677.974 49.92a22.613 22.613 0 1045.227 0 22.613 22.613 0 10-45.227 0z"/>
</svg>
