<?xml version="1.0" encoding="utf-8"?>
<!-- Generator: Adobe Illustrator 21.0.0, SVG Export Plug-In . SVG Version: 6.00 Build 0)  -->
<svg version="1.1" id="图层_1" xmlns="http://www.w3.org/2000/svg" xmlns:xlink="http://www.w3.org/1999/xlink" x="0px" y="0px"
	 viewBox="0 0 200 200" style="enable-background:new 0 0 200 200;" xml:space="preserve">
<style type="text/css">
	.st0{fill:#006DA9;}
</style>
<path class="st0" d="M180.7,73.8l-64.4-39.9c-6.2-3.8-10.5-2.5-12.5-1.4c-2,1.1-5.4,4.1-5.4,11.4v14.8H87.8
	c-94.7,0-73.1,108.5-73.1,108.5s7-61.3,73.2-61.3h10.5v27l0,0v-7.4c0,7.3,3.4,10.2,5.4,11.4c1,0.6,2.6,1.2,4.7,1.2
	c2.1,0,4.7-0.6,7.8-2.5l64.4-39.9c4.5-2.8,7-6.7,7-10.9C187.7,80.4,185.2,76.6,180.7,73.8L180.7,73.8z"/>
</svg>
