<svg width="15" height="15" xmlns="http://www.w3.org/2000/svg">
  <path d="M4.877 9.15l.01-.03.022.039v.015l-.032-.025zm.375-.188l.008-.026.02.035v.012l-.028-.02zm7.072-5.94a.336.336 0 01.026.13V5.9a.347.347 0 01-.694 0V3.993L8.76 6.89a.347.347 0 11-.49-.491l2.896-2.896H9.259a.347.347 0 010-.694h2.745a.256.256 0 01.041.008.343.343 0 01.091.018.349.349 0 01.189.189l-.001-.001zM2.142.854C1.406.854.805 1.49.805 2.268v10.463c0 .78.6 1.415 1.337 1.415h10.71c.738 0 1.338-.635 1.338-1.415V2.268c0-.78-.6-1.414-1.337-1.414H2.142zm10.71 14.136H2.143C.965 14.99.008 13.976.008 12.73V2.268C.008 1.023.965.01 2.142.01h10.71c1.178 0 2.135 1.013 2.135 2.258v10.463c0 1.246-.957 2.259-2.134 2.259zm-9.939-2.932a.336.336 0 01-.027-.131l.003-2.75a.348.348 0 01.695 0l-.002 1.909 2.894-2.894a.347.347 0 01.493.488l-.003.003-2.894 2.894 1.91-.003a.348.348 0 010 .695l-2.75.003a.265.265 0 01-.04-.008.34.34 0 01-.091-.018.348.348 0 01-.189-.188h.001z" fill="#40B7E8" fill-rule="nonzero"/>
</svg>
