<svg width="20" height="20" xmlns="http://www.w3.org/2000/svg">
  <g fill="#1A435F" fill-rule="nonzero">
    <path d="M10 0C4.487 0 0 4.487 0 10s4.487 10 10 10 10-4.487 10-10S15.513 0 10 0zm0 18.696c-4.782 0-8.695-3.913-8.695-8.696 0-4.783 3.912-8.696 8.695-8.696S18.696 5.217 18.696 10c0 4.783-3.913 8.696-8.696 8.696z"/>
    <path d="M10.003 13.337c.365 0 .67-.373.677-.833l.14-7.502a.818.818 0 10-1.635 0l.14 7.502c.009.46.312.833.678.833zm0 .834a.855.855 0 00-.834.833c0 .445.39.834.834.834a.855.855 0 00.833-.834.855.855 0 00-.833-.833z"/>
  </g>
</svg>
