<svg width="20" height="20" xmlns="http://www.w3.org/2000/svg">
  <g fill="none" fill-rule="evenodd">
    <path fill="none" d="M0 0h20v20H0z"/>
    <path d="M16.306 10.001a.597.597 0 00-.598.598v5.223c0 .11-.089.199-.199.199H3.627a.199.199 0 01-.199-.2V4.006a.2.2 0 01.199-.199h7.207a.597.597 0 100-1.194H3.627a1.396 1.396 0 00-1.394 1.393v11.816c.002.77.625 1.393 1.394 1.394h11.882a1.396 1.396 0 001.393-1.394v-5.223a.597.597 0 00-.596-.597zm1.627-4.628l-3.025-2.987a.597.597 0 10-.838.85l2.009 1.984C9.065 5.5 7.509 12 7.493 12.07a.597.597 0 101.165.264c.055-.245 1.354-5.667 7.442-5.922L13.945 8.67a.597.597 0 00.864.825l3.137-3.285a.597.597 0 00-.013-.837z" fill="#40A9FF" fill-rule="nonzero"/>
  </g>
</svg>
