<svg width="200" height="200" viewBox="0 0 1024 1024" xmlns="http://www.w3.org/2000/svg">
  <path fill="#8a8a8a" d="M714.667 298.667c0-29.867-23.467-53.334-53.334-53.334S608 268.8 608 298.667 631.467 352 661.333 352s53.334-23.467 53.334-53.333zm64 384H245.333c-29.866 0-53.333-23.467-53.333-53.334S215.467 576 245.333 576h416S825.6 445.867 825.6 317.867c0-91.734-72.533-168.534-164.267-168.534S497.067 224 497.067 317.867c0 83.2 68.266 168.533 117.333 217.6H245.333c-53.333-2.134-96 40.533-96 93.866s42.667 96 96 96h533.334c29.866 0 53.333 23.467 53.333 53.334S808.533 832 778.667 832H245.333v42.667h533.334c53.333 0 96-42.667 96-96s-42.667-96-96-96zm-238.934-364.8c0-68.267 53.334-125.867 121.6-125.867 66.134 0 121.6 55.467 121.6 125.867 0 72.533-72.533 157.866-121.6 202.666-49.066-46.933-121.6-130.133-121.6-202.666z"/>
</svg>
