<svg viewBox="0 0 1024 1024" xmlns="http://www.w3.org/2000/svg" width="200" height="200">
  <defs/>
  <path d="M512 0C230.4 0 0 230.4 0 512s230.4 512 512 512 512-230.4 512-512S793.6 0 512 0zm0 972.8C256 972.8 51.2 768 51.2 512S256 51.2 512 51.2 972.8 256 972.8 512 768 972.8 512 972.8z" fill="#0fad66"/>
  <path d="M774.4 486.4H537.6V249.6c0-12.8-12.8-25.6-25.6-25.6s-25.6 12.8-25.6 25.6v236.8H249.6c-12.8 0-25.6 12.8-25.6 25.6s12.8 25.6 25.6 25.6h236.8v236.8c0 12.8 12.8 25.6 25.6 25.6s25.6-12.8 25.6-25.6V537.6h236.8c12.8 0 25.6-12.8 25.6-25.6s-12.8-25.6-25.6-25.6z" fill="#0fad66"/>
</svg>
