<svg version="1.1" xmlns="http://www.w3.org/2000/svg" x="0" y="0" viewBox="0 0 200 200" xml:space="preserve">
  <path d="M170.5 24h-33.1c-2.5-12.4-13.5-21.7-26.6-21.7H89.1c-13.1 0-24 9.4-26.5 21.7H29.5c-15 0-27.1 12.2-27.1 27.1 0 3 2.4 5.4 5.4 5.4h21.7V176c0 12 9.7 21.7 21.7 21.7h97.7c12 0 21.7-9.7 21.7-21.7V56.6h21.7c3 0 5.4-2.4 5.4-5.4 0-15-12.2-27.2-27.2-27.2zM89.1 13.2h21.7c6.9 0 13 4.4 15.3 10.9H73.8c2.3-6.6 8.5-10.9 15.3-10.9zM159.7 176c0 6-4.9 10.8-10.9 10.8H51.2c-6 0-10.8-4.9-10.9-10.9V56.6h119.4V176zm10.8-130.3H14.1c2.3-6.5 8.5-10.8 15.3-10.9h141.1c6.9 0 13 4.4 15.3 10.9h-15.3z"/>
  <path d="M100 165.1c3 0 5.4-2.4 5.4-5.4v-76c0-3-2.4-5.4-5.4-5.4-3 0-5.4 2.4-5.4 5.4v76c0 3 2.4 5.4 5.4 5.4zm-32.6 0c3 0 5.4-2.4 5.4-5.4v-76c0-3-2.4-5.4-5.4-5.4-3 0-5.4 2.4-5.4 5.4v76c0 3 2.4 5.4 5.4 5.4zm65.2 0c3 0 5.4-2.4 5.4-5.4v-76c0-3-2.4-5.4-5.4-5.4-3 0-5.4 2.4-5.4 5.4v76c-.1 3 2.4 5.4 5.4 5.4-.1 0 0 0 0 0z"/>
</svg>
