<?xml version="1.0" encoding="utf-8"?>
<!-- Generator: Adobe Illustrator 23.1.1, SVG Export Plug-In . SVG Version: 6.00 Build 0)  -->
<svg version="1.1" id="图层_1" xmlns="http://www.w3.org/2000/svg" xmlns:xlink="http://www.w3.org/1999/xlink" x="0px" y="0px"
	 viewBox="0 0 200 200" style="enable-background:new 0 0 200 200;" xml:space="preserve">
<style type="text/css">
	.st0{fill:#4A4A4A;}
</style>
<path class="st0" d="M170.5,24h-33.1c-2.5-12.4-13.5-21.7-26.6-21.7H89.1C76,2.3,65.1,11.7,62.6,24H29.5c-15,0-27.1,12.2-27.1,27.1
	c0,3,2.4,5.4,5.4,5.4c0,0,0,0,0,0h21.7V176c0,12,9.7,21.7,21.7,21.7h97.7c12,0,21.7-9.7,21.7-21.7V56.6h21.7c3,0,5.4-2.4,5.4-5.4
	c0,0,0,0,0,0C197.7,36.2,185.5,24,170.5,24z M89.1,13.2h21.7c6.9,0,13,4.4,15.3,10.9H73.8C76.1,17.5,82.3,13.2,89.1,13.2z
	 M159.7,176c0,6-4.9,10.8-10.9,10.8H51.2c-6,0-10.8-4.9-10.9-10.9V56.6h119.4V176z M170.5,45.7H14.1c2.3-6.5,8.5-10.8,15.3-10.9
	h141.1c6.9,0,13,4.4,15.3,10.9H170.5z"/>
<path class="st0" d="M100,165.1c3,0,5.4-2.4,5.4-5.4c0,0,0,0,0,0v-76c0-3-2.4-5.4-5.4-5.4c-3,0-5.4,2.4-5.4,5.4c0,0,0,0,0,0v76
	C94.6,162.7,97,165.1,100,165.1C100,165.1,100,165.1,100,165.1z M67.4,165.1c3,0,5.4-2.4,5.4-5.4c0,0,0,0,0,0v-76
	c0-3-2.4-5.4-5.4-5.4c-3,0-5.4,2.4-5.4,5.4c0,0,0,0,0,0v76C62,162.7,64.4,165.1,67.4,165.1C67.4,165.1,67.4,165.1,67.4,165.1
	L67.4,165.1z M132.6,165.1c3,0,5.4-2.4,5.4-5.4c0,0,0,0,0,0v-76c0-3-2.4-5.4-5.4-5.4c-3,0-5.4,2.4-5.4,5.4c0,0,0,0,0,0v76
	C127.1,162.7,129.6,165.1,132.6,165.1C132.5,165.1,132.6,165.1,132.6,165.1L132.6,165.1z"/>
</svg>
