<svg width="200" height="200" viewBox="0 0 1024 1024" xmlns="http://www.w3.org/2000/svg">
  <path fill="#8a8a8a" d="M586 128H443.8l-71.1 123.5L443.8 375H586l71.1-123.5L586 128zm-24.1 205H468l-47-81.5 47-81.5h93.9l46.9 81.5-46.9 81.5zm260.9 186.9H680.5l-71.1 123.5 71.1 123.5H821l53.5-89.7 19.5-33.8-71.2-123.5zm15.6 135.8l-41.2 69.1h-92.5l-46.9-81.5 46.9-81.5h93.9l46.9 81.5-7.1 12.4zm-445.5 21.4l19.5-33.8-71.1-123.5H199l-71.1 123.5L199 766.8h140.5l53.4-89.7zm-169.7 47.7l-46.9-81.5 46.9-81.5H317l46.9 81.5-7.1 12.4-41.2 69.1h-92.4zm366.3 4.4c-3.2-5.5-9.7-8-15.8-6.1-20.2 6.3-41.5 9.5-63.3 9.5-21.5 0-42.4-3.1-62.3-9.1-6-1.8-12.4.6-15.6 6-4.5 7.6-.8 17.4 7.6 20 22.6 6.9 46.2 10.4 70.3 10.4 24.5 0 48.4-3.6 71.4-10.8 8.3-2.7 12.1-12.3 7.7-19.9zm80.1 112.2c-3.8-6.3-11.9-8.4-18.3-5-43.7 20.8-91.7 32-140.9 32-49.6 0-97.9-11.3-141.7-32.3-6.5-4-15-1.9-18.8 4.8l-.3.5c-3.6 6.3-1.4 14.2 4.8 18.1l.1.1 4.8 2.4c47.5 22.4 98.3 33.7 151.1 33.7 51.9 0 102-11 148.8-32.7 1.9-.9 3.8-1.8 5.8-2.7 6.4-4 8.5-12.4 4.6-18.9zm-.7-503.9c-3.3 5.4-2.3 12.4 2.3 16.8 15.2 14.7 28.3 31.8 38.8 51 10.4 18.8 17.7 38.7 22 59.1 1.3 6.1 6.5 10.6 12.8 10.8 8.8.3 15.6-7.7 13.8-16.3-4.9-23.2-13.2-45.6-24.8-66.7-11.8-21.5-26.5-40.7-43.9-57.5-6.3-6-16.5-4.6-21 2.8zm59.4-124.4c-3.6 6.4-1.6 14.5 4.5 18.4 39.3 28.3 72.2 65.1 95.9 108.2 23.9 43.5 37.3 91.4 40.1 140-.4 7.6 5.6 14.1 13.3 14.2h.6c7.3.1 13-5.6 13.5-12.9v-.1l-.3-5.4c-3.3-52.5-17.9-102.6-43.4-148.9-25-45.6-58.8-84.2-100.4-114.9-1.7-1.3-3.4-2.5-5.2-3.7-6.4-3.7-14.8-1.5-18.6 5.1zM277.4 473.6c6.3-.7 11.2-5.7 12-12.1 2.4-21.1 7.9-41.9 16.7-61.9 8.6-19.7 19.8-37.7 33.3-53.5 4-4.8 4.4-11.6.8-16.7-5.1-7.2-15.6-7.7-21.3-1-15.4 18-28 38.2-37.7 60.3-9.8 22.5-16.1 45.9-18.7 69.9-1.1 8.7 6.2 16 14.9 15zm-132.7 28.6c7.2-1 12.4-7.5 11.9-14.8-1.5-48.4 7.5-97 27.2-142.2 19.9-45.5 49.5-85.3 86.3-117.1 6.3-4.4 7.7-13 3.2-19.2l-.3-.5c-4.3-5.9-12.4-6.9-18.4-2.9l-.1.1c-1.4 1.2-2.7 2.3-4.1 3.5-39.5 34.6-70.2 76.8-91.4 125.2-20.8 47.6-30.8 98-29.7 149.7 0 2.1.1 4.3.2 6.4.8 7.5 7.7 12.8 15.2 11.8z"/>
</svg>
