<svg width="23" height="20" xmlns="http://www.w3.org/2000/svg">
  <path d="M0 1.428V18.56c0 .789.643 1.428 1.437 1.428h20.112c.794 0 1.437-.64 1.437-1.428V1.428C22.986.639 22.343 0 21.549 0H1.437C.643 0 0 .64 0 1.428zm21.703 17.31H1.283V1.25h20.42v17.49zM8.91 9.995L4.83 6.019a.618.618 0 010-.885.65.65 0 01.91 0l3.939 3.84a1.423 1.423 0 010 2.04L6.188 14.41c-.503.49-1.308.49-1.81 0l4.53-4.417h.002zm9.07 4.162h-6.438a.627.627 0 01-.629-.625c0-.345.282-.625.629-.625h6.439c.347 0 .628.28.628.625a.627.627 0 01-.628.625z" fill="#FFF" fill-rule="nonzero"/>
</svg>
