<svg width="184" height="161" xmlns="http://www.w3.org/2000/svg">
  <g fill="#8A8A8A" fill-rule="evenodd">
    <path d="M19 116.636c4.529 0 8.795.504 12.023 1.42 1.465.417 2.66.904 3.457 1.42.76.49.871.805.884.842-.009.037-.123.352-.884.843-.798.511-1.992 1.002-3.457 1.42C27.795 123.492 23.53 124 19 124s-8.795-.503-12.023-1.42c-1.465-.417-2.66-.904-3.457-1.42-.76-.49-.871-.805-.884-.842.009-.037.123-.352.884-.843.798-.51 1.992-1.002 3.457-1.42 3.228-.915 7.494-1.419 12.023-1.419zM19 115c-9.94 0-18 2.38-18 5.318 0 2.937 8.06 5.318 18 5.318s18-2.38 18-5.318c0-2.937-8.06-5.318-18-5.318zm-16.364 5.228H1v26.223h1.636v-26.223zM37 120.216h-1.636v26.223H37v-26.223zm-1.636 26.219v.02c-.009.037-.123.352-.884.843-.798.511-1.992 1.002-3.457 1.42-3.228.912-7.494 1.415-12.023 1.415s-8.795-.503-12.023-1.42c-1.465-.417-2.66-.904-3.457-1.42-.76-.49-.871-.805-.884-.842v-.012L1 146.45v.004c0 2.937 8.06 5.318 18 5.318s18-2.38 18-5.318v-.016l-1.636-.004zm0-8.612v.02c-.009.037-.123.352-.884.843-.798.512-1.992 1.003-3.457 1.42-3.228.912-7.494 1.42-12.023 1.42s-8.795-.504-12.023-1.42c-1.465-.417-2.66-.904-3.457-1.42-.76-.49-.871-.806-.884-.842v-.013L1 137.844v.004c0 2.937 8.06 5.318 18 5.318s18-2.381 18-5.318v-.017l-1.636-.008zm0-9.061v.02c-.009.037-.123.352-.884.843-.798.511-1.992 1.002-3.457 1.42-3.228.912-7.494 1.42-12.023 1.42s-8.795-.504-12.023-1.42c-1.465-.418-2.66-.905-3.457-1.42-.76-.49-.871-.806-.884-.843v-.012L1 128.782v.004c0 2.938 8.06 5.319 18 5.319s18-2.381 18-5.319v-.016l-1.636-.008zM93 124.636c4.529 0 8.795.504 12.023 1.42 1.465.417 2.66.904 3.457 1.42.76.49.871.805.884.842-.009.037-.123.352-.884.843-.798.511-1.992 1.002-3.457 1.42C101.795 131.492 97.53 132 93 132s-8.795-.503-12.023-1.42c-1.465-.417-2.66-.904-3.457-1.42-.76-.49-.871-.805-.884-.842.009-.037.123-.352.884-.843.798-.51 1.992-1.002 3.457-1.42 3.228-.915 7.494-1.419 12.023-1.419zM93 123c-9.94 0-18 2.38-18 5.318 0 2.937 8.06 5.318 18 5.318s18-2.38 18-5.318c0-2.937-8.06-5.318-18-5.318zm-16.364 5.228H75v26.223h1.636v-26.223zm34.364-.012h-1.636v26.223H111v-26.223zm-1.636 26.219v.02c-.009.037-.123.352-.884.843-.798.511-1.992 1.002-3.457 1.42-3.228.912-7.494 1.415-12.023 1.415s-8.795-.503-12.023-1.42c-1.465-.417-2.66-.904-3.457-1.42-.76-.49-.871-.805-.884-.842v-.012L75 154.45v.004c0 2.937 8.06 5.318 18 5.318s18-2.38 18-5.318v-.016l-1.636-.004zm0-8.612v.02c-.009.037-.123.352-.884.843-.798.512-1.992 1.003-3.457 1.42-3.228.912-7.494 1.42-12.023 1.42s-8.795-.504-12.023-1.42c-1.465-.417-2.66-.904-3.457-1.42-.76-.49-.871-.806-.884-.842v-.013l-1.636.013v.004c0 2.937 8.06 5.318 18 5.318s18-2.381 18-5.318v-.017l-1.636-.008zm0-9.061v.02c-.009.037-.123.352-.884.843-.798.511-1.992 1.002-3.457 1.42-3.228.912-7.494 1.42-12.023 1.42s-8.795-.504-12.023-1.42c-1.465-.418-2.66-.905-3.457-1.42-.76-.49-.871-.806-.884-.843v-.012l-1.636.012v.004c0 2.938 8.06 5.319 18 5.319s18-2.381 18-5.319v-.016l-1.636-.008zM165 115.636c4.529 0 8.795.504 12.023 1.42 1.465.417 2.66.904 3.457 1.42.76.49.871.805.884.842-.009.037-.123.352-.884.843-.798.511-1.992 1.002-3.457 1.42-3.228.912-7.494 1.419-12.023 1.419s-8.795-.503-12.023-1.42c-1.465-.417-2.66-.904-3.457-1.42-.76-.49-.871-.805-.884-.842.009-.037.123-.352.884-.843.798-.51 1.992-1.002 3.457-1.42 3.228-.915 7.494-1.419 12.023-1.419zm0-1.636c-9.94 0-18 2.38-18 5.318 0 2.937 8.06 5.318 18 5.318s18-2.38 18-5.318c0-2.937-8.06-5.318-18-5.318zm-16.364 5.228H147v26.223h1.636v-26.223zm34.364-.012h-1.636v26.223H183v-26.223zm-1.636 26.219v.02c-.009.037-.123.352-.884.843-.798.511-1.992 1.002-3.457 1.42-3.228.912-7.494 1.415-12.023 1.415s-8.795-.503-12.023-1.42c-1.465-.417-2.66-.904-3.457-1.42-.76-.49-.871-.805-.884-.842v-.012l-1.636.012v.004c0 2.937 8.06 5.318 18 5.318s18-2.38 18-5.318v-.016l-1.636-.004zm0-8.612v.02c-.009.037-.123.352-.884.843-.798.512-1.992 1.003-3.457 1.42-3.228.912-7.494 1.42-12.023 1.42s-8.795-.504-12.023-1.42c-1.465-.417-2.66-.904-3.457-1.42-.76-.49-.871-.806-.884-.842v-.013l-1.636.013v.004c0 2.937 8.06 5.318 18 5.318s18-2.381 18-5.318v-.017l-1.636-.008zm0-9.061v.02c-.009.037-.123.352-.884.843-.798.511-1.992 1.002-3.457 1.42-3.228.912-7.494 1.42-12.023 1.42s-8.795-.504-12.023-1.42c-1.465-.418-2.66-.905-3.457-1.42-.76-.49-.871-.806-.884-.843v-.012l-1.636.012v.004c0 2.938 8.06 5.319 18 5.319s18-2.381 18-5.319v-.016l-1.636-.008z" stroke="#979797" fill-rule="nonzero"/>
    <path d="M47.918 7.147a1.575 1.575 0 01-1.577-1.562c0-.864.683-1.562 1.547-1.562h.03a1.561 1.561 0 110 3.124zm6.248 0a1.575 1.575 0 01-1.577-1.562c0-.864.684-1.562 1.547-1.562h.03a1.56 1.56 0 011.563 1.562 1.56 1.56 0 01-1.563 1.562zm6.248 0a1.575 1.575 0 01-1.577-1.562c0-.864.684-1.562 1.547-1.562h.03a1.56 1.56 0 011.562 1.562 1.56 1.56 0 01-1.562 1.562z" fill-rule="nonzero"/>
    <path d="M141.546 10.271H41.577a1.561 1.561 0 01-1.562-1.562V5.585A4.691 4.691 0 0144.701.9h93.722a4.691 4.691 0 014.686 4.686V8.71a1.56 1.56 0 01-1.563 1.562zM43.14 7.147h96.846V5.585a1.564 1.564 0 00-1.562-1.562H44.702c-.863 0-1.562.7-1.563 1.562v1.562z" fill-rule="nonzero"/>
    <path d="M141.546 75.876H41.577a1.561 1.561 0 01-1.562-1.562V8.71a1.561 1.561 0 011.562-1.562h99.97c.863 0 1.562.7 1.562 1.562v65.605a1.561 1.561 0 01-1.563 1.562zM43.14 72.752h96.846v-62.48H43.139v62.48z" fill-rule="nonzero"/>
    <path d="M135.299 35.264H47.825a1.561 1.561 0 01-1.562-1.562V14.958a1.561 1.561 0 011.562-1.562H135.3a1.56 1.56 0 011.562 1.562v18.744a1.56 1.56 0 01-1.562 1.562zM49.387 32.14h84.35V16.52h-84.35v15.62z" fill-rule="nonzero"/>
    <path d="M125.927 25.891h-68.73a1.561 1.561 0 110-3.124h68.73a1.561 1.561 0 110 3.124zm9.372 18.745H94.686a1.561 1.561 0 110-3.124h40.613a1.56 1.56 0 011.562 1.562 1.56 1.56 0 01-1.562 1.562zm0 6.248H94.686a1.561 1.561 0 110-3.124h40.613a1.56 1.56 0 011.562 1.562 1.56 1.56 0 01-1.562 1.562zm0 6.248H94.686a1.561 1.561 0 110-3.124h40.613a1.56 1.56 0 011.562 1.562 1.56 1.56 0 01-1.562 1.562zm-20.307 6.248H94.686a1.56 1.56 0 110-3.124h20.306a1.56 1.56 0 110 3.124zm-26.554 6.248H47.825a1.561 1.561 0 01-1.562-1.562V39.95a1.561 1.561 0 011.562-1.563h40.613A1.561 1.561 0 0190 39.95v28.116a1.561 1.561 0 01-1.562 1.562zm-39.05-3.124h37.488V41.512H49.387v24.992z" fill-rule="nonzero"/>
    <path d="M85.315 69.628a1.56 1.56 0 01-1.34-.758l-8.033-13.388-8.033 13.388a1.56 1.56 0 11-2.679-1.608l9.373-15.62c.564-.94 2.114-.94 2.678 0l9.372 15.62a1.562 1.562 0 01-1.338 2.366z"/>
    <path d="M57.196 69.628a1.56 1.56 0 01-1.53-1.256 1.56 1.56 0 01.232-1.172l6.248-9.373c.58-.87 2.02-.87 2.6 0l4.736 7.103a1.56 1.56 0 11-2.6 1.732l-3.436-5.152-4.949 7.422a1.56 1.56 0 01-1.3.696z"/>
    <path d="M57.198 54.008a4.691 4.691 0 01-4.686-4.686 4.691 4.691 0 014.686-4.686 4.691 4.691 0 014.686 4.686 4.691 4.691 0 01-4.686 4.686zm0-6.248a1.563 1.563 0 000 3.124 1.563 1.563 0 000-3.124z" fill-rule="nonzero"/>
    <path d="M91.562 113.367A1.561 1.561 0 0190 111.805V89.937a1.561 1.561 0 113.124 0v21.868a1.562 1.562 0 01-1.562 1.562z"/>
    <path d="M91.562 113.367a1.561 1.561 0 01-1.104-2.667l3.124-3.124a1.562 1.562 0 012.209 2.21l-3.125 3.123c-.292.293-.69.458-1.104.458z"/>
    <path d="M91.562 113.367c-.414 0-.812-.165-1.104-.458l-3.124-3.124a1.562 1.562 0 112.208-2.209l3.124 3.124a1.561 1.561 0 01-1.104 2.667zM22.833 103.995a1.561 1.561 0 01-1.104-2.667l15.62-15.62a1.561 1.561 0 112.209 2.208l-15.62 15.62c-.293.294-.69.46-1.105.459z"/>
    <path d="M27.25 103.995h-4.417a1.561 1.561 0 110-3.125h4.418a1.561 1.561 0 110 3.125z"/>
    <path d="M22.833 103.995a1.561 1.561 0 01-1.562-1.563v-4.418a1.56 1.56 0 011.562-1.561 1.56 1.56 0 011.562 1.561v4.418a1.562 1.562 0 01-1.562 1.563zM160.291 103.995c-.414 0-.812-.165-1.105-.458l-15.62-15.62a1.561 1.561 0 112.21-2.21l15.619 15.621a1.561 1.561 0 01-1.104 2.667z"/>
    <path d="M160.291 103.995h-4.418a1.561 1.561 0 110-3.125h4.418a1.561 1.561 0 110 3.125z"/>
    <path d="M160.291 103.995a1.561 1.561 0 01-1.562-1.563v-4.418a1.561 1.561 0 113.124 0v4.418a1.561 1.561 0 01-1.562 1.563z"/>
  </g>
</svg>
