<?xml version="1.0" encoding="UTF-8"?>
<svg width="184px" height="161px" viewBox="0 0 184 161" version="1.1" xmlns="http://www.w3.org/2000/svg" xmlns:xlink="http://www.w3.org/1999/xlink">
    <!-- Generator: Sketch 52.5 (67469) - http://www.bohemiancoding.com/sketch -->
    <title>programplatform</title>
    <desc>Created with Sketch.</desc>
    <g id="Page-1" stroke="none" stroke-width="1" fill="none" fill-rule="evenodd">
        <g id="programplatform" transform="translate(1.000000, 0.000000)" fill="#8A8A8A">
            <path d="M18,116.636364 C22.5286364,116.636364 26.7954545,117.139545 30.0231818,118.055909 C31.4877273,118.473182 32.6822727,118.96 33.48,119.475455 C34.2409091,119.966364 34.3513636,120.281364 34.3636364,120.318182 C34.3554545,120.355 34.2409091,120.67 33.48,121.160909 C32.6822727,121.672273 31.4877273,122.163182 30.0231818,122.580455 C26.7954545,123.492727 22.5286364,124 18,124 C13.4713636,124 9.20454545,123.496818 5.97681818,122.580455 C4.51227273,122.163182 3.31772727,121.676364 2.52,121.160909 C1.75909091,120.67 1.64863636,120.355 1.63636364,120.318182 C1.64454545,120.281364 1.75909091,119.966364 2.52,119.475455 C3.31772727,118.964091 4.51227273,118.473182 5.97681818,118.055909 C9.20454545,117.139545 13.4713636,116.636364 18,116.636364 Z M18,115 C8.05909091,115 0,117.380909 0,120.318182 C0,123.255455 8.05909091,125.636364 18,125.636364 C27.9409091,125.636364 36,123.255455 36,120.318182 C36,117.380909 27.9409091,115 18,115 Z M1.63636364,120.228182 L0,120.228182 L0,146.450909 L1.63636364,146.450909 L1.63636364,120.228182 Z M36,120.215909 L34.3636364,120.215909 L34.3636364,146.438636 L36,146.438636 L36,120.215909 Z M34.3636364,146.434545 L34.3636364,146.455 C34.3554545,146.491818 34.2409091,146.806818 33.48,147.297727 C32.6822727,147.809091 31.4877273,148.3 30.0231818,148.717273 C26.7954545,149.629545 22.5286364,150.132727 18,150.132727 C13.4713636,150.132727 9.20454545,149.629545 5.97681818,148.713182 C4.51227273,148.295909 3.31772727,147.809091 2.52,147.293636 C1.75909091,146.802727 1.64863636,146.487727 1.63636364,146.450909 L1.63636364,146.438636 L2.84217094e-14,146.450909 L2.84217094e-14,146.455 C2.84217094e-14,149.392273 8.05909091,151.773182 18,151.773182 C27.9409091,151.773182 36,149.392273 36,146.455 L36,146.438636 L34.3636364,146.434545 Z M34.3636364,137.823182 L34.3636364,137.843636 C34.3554545,137.880455 34.2409091,138.195455 33.48,138.686364 C32.6822727,139.197727 31.4877273,139.688636 30.0231818,140.105909 C26.7954545,141.018182 22.5286364,141.525455 18,141.525455 C13.4713636,141.525455 9.20454545,141.022273 5.97681818,140.105909 C4.51227273,139.688636 3.31772727,139.201818 2.52,138.686364 C1.75909091,138.195455 1.64863636,137.880455 1.63636364,137.843636 L1.63636364,137.831364 L2.84217094e-14,137.843636 L2.84217094e-14,137.847727 C2.84217094e-14,140.785 8.05909091,143.165909 18,143.165909 C27.9409091,143.165909 36,140.785 36,137.847727 L36,137.831364 L34.3636364,137.823182 Z M34.3636364,128.761818 L34.3636364,128.782273 C34.3554545,128.819091 34.2409091,129.134091 33.48,129.625 C32.6822727,130.136364 31.4877273,130.627273 30.0231818,131.044545 C26.7954545,131.956818 22.5286364,132.464091 18,132.464091 C13.4713636,132.464091 9.20454545,131.960909 5.97681818,131.044545 C4.51227273,130.627273 3.31772727,130.140455 2.52,129.625 C1.75909091,129.134091 1.64863636,128.819091 1.63636364,128.782273 L1.63636364,128.77 L2.84217094e-14,128.782273 L2.84217094e-14,128.786364 C2.84217094e-14,131.723636 8.05909091,134.104545 18,134.104545 C27.9409091,134.104545 36,131.723636 36,128.786364 L36,128.77 L34.3636364,128.761818 Z" id="形状" stroke="#979797" fill-rule="nonzero"></path>
            <path d="M92,124.636364 C96.5286364,124.636364 100.795455,125.139545 104.023182,126.055909 C105.487727,126.473182 106.682273,126.96 107.48,127.475455 C108.240909,127.966364 108.351364,128.281364 108.363636,128.318182 C108.355455,128.355 108.240909,128.67 107.48,129.160909 C106.682273,129.672273 105.487727,130.163182 104.023182,130.580455 C100.795455,131.492727 96.5286364,132 92,132 C87.4713636,132 83.2045455,131.496818 79.9768182,130.580455 C78.5122727,130.163182 77.3177273,129.676364 76.52,129.160909 C75.7590909,128.67 75.6486364,128.355 75.6363636,128.318182 C75.6445455,128.281364 75.7590909,127.966364 76.52,127.475455 C77.3177273,126.964091 78.5122727,126.473182 79.9768182,126.055909 C83.2045455,125.139545 87.4713636,124.636364 92,124.636364 Z M92,123 C82.0590909,123 74,125.380909 74,128.318182 C74,131.255455 82.0590909,133.636364 92,133.636364 C101.940909,133.636364 110,131.255455 110,128.318182 C110,125.380909 101.940909,123 92,123 Z M75.6363636,128.228182 L74,128.228182 L74,154.450909 L75.6363636,154.450909 L75.6363636,128.228182 Z M110,128.215909 L108.363636,128.215909 L108.363636,154.438636 L110,154.438636 L110,128.215909 Z M108.363636,154.434545 L108.363636,154.455 C108.355455,154.491818 108.240909,154.806818 107.48,155.297727 C106.682273,155.809091 105.487727,156.3 104.023182,156.717273 C100.795455,157.629545 96.5286364,158.132727 92,158.132727 C87.4713636,158.132727 83.2045455,157.629545 79.9768182,156.713182 C78.5122727,156.295909 77.3177273,155.809091 76.52,155.293636 C75.7590909,154.802727 75.6486364,154.487727 75.6363636,154.450909 L75.6363636,154.438636 L74,154.450909 L74,154.455 C74,157.392273 82.0590909,159.773182 92,159.773182 C101.940909,159.773182 110,157.392273 110,154.455 L110,154.438636 L108.363636,154.434545 Z M108.363636,145.823182 L108.363636,145.843636 C108.355455,145.880455 108.240909,146.195455 107.48,146.686364 C106.682273,147.197727 105.487727,147.688636 104.023182,148.105909 C100.795455,149.018182 96.5286364,149.525455 92,149.525455 C87.4713636,149.525455 83.2045455,149.022273 79.9768182,148.105909 C78.5122727,147.688636 77.3177273,147.201818 76.52,146.686364 C75.7590909,146.195455 75.6486364,145.880455 75.6363636,145.843636 L75.6363636,145.831364 L74,145.843636 L74,145.847727 C74,148.785 82.0590909,151.165909 92,151.165909 C101.940909,151.165909 110,148.785 110,145.847727 L110,145.831364 L108.363636,145.823182 Z M108.363636,136.761818 L108.363636,136.782273 C108.355455,136.819091 108.240909,137.134091 107.48,137.625 C106.682273,138.136364 105.487727,138.627273 104.023182,139.044545 C100.795455,139.956818 96.5286364,140.464091 92,140.464091 C87.4713636,140.464091 83.2045455,139.960909 79.9768182,139.044545 C78.5122727,138.627273 77.3177273,138.140455 76.52,137.625 C75.7590909,137.134091 75.6486364,136.819091 75.6363636,136.782273 L75.6363636,136.77 L74,136.782273 L74,136.786364 C74,139.723636 82.0590909,142.104545 92,142.104545 C101.940909,142.104545 110,139.723636 110,136.786364 L110,136.77 L108.363636,136.761818 Z" id="形状" stroke="#979797" fill-rule="nonzero"></path>
            <path d="M164,115.636364 C168.528636,115.636364 172.795455,116.139545 176.023182,117.055909 C177.487727,117.473182 178.682273,117.96 179.48,118.475455 C180.240909,118.966364 180.351364,119.281364 180.363636,119.318182 C180.355455,119.355 180.240909,119.67 179.48,120.160909 C178.682273,120.672273 177.487727,121.163182 176.023182,121.580455 C172.795455,122.492727 168.528636,123 164,123 C159.471364,123 155.204545,122.496818 151.976818,121.580455 C150.512273,121.163182 149.317727,120.676364 148.52,120.160909 C147.759091,119.67 147.648636,119.355 147.636364,119.318182 C147.644545,119.281364 147.759091,118.966364 148.52,118.475455 C149.317727,117.964091 150.512273,117.473182 151.976818,117.055909 C155.204545,116.139545 159.471364,115.636364 164,115.636364 Z M164,114 C154.059091,114 146,116.380909 146,119.318182 C146,122.255455 154.059091,124.636364 164,124.636364 C173.940909,124.636364 182,122.255455 182,119.318182 C182,116.380909 173.940909,114 164,114 Z M147.636364,119.228182 L146,119.228182 L146,145.450909 L147.636364,145.450909 L147.636364,119.228182 Z M182,119.215909 L180.363636,119.215909 L180.363636,145.438636 L182,145.438636 L182,119.215909 Z M180.363636,145.434545 L180.363636,145.455 C180.355455,145.491818 180.240909,145.806818 179.48,146.297727 C178.682273,146.809091 177.487727,147.3 176.023182,147.717273 C172.795455,148.629545 168.528636,149.132727 164,149.132727 C159.471364,149.132727 155.204545,148.629545 151.976818,147.713182 C150.512273,147.295909 149.317727,146.809091 148.52,146.293636 C147.759091,145.802727 147.648636,145.487727 147.636364,145.450909 L147.636364,145.438636 L146,145.450909 L146,145.455 C146,148.392273 154.059091,150.773182 164,150.773182 C173.940909,150.773182 182,148.392273 182,145.455 L182,145.438636 L180.363636,145.434545 Z M180.363636,136.823182 L180.363636,136.843636 C180.355455,136.880455 180.240909,137.195455 179.48,137.686364 C178.682273,138.197727 177.487727,138.688636 176.023182,139.105909 C172.795455,140.018182 168.528636,140.525455 164,140.525455 C159.471364,140.525455 155.204545,140.022273 151.976818,139.105909 C150.512273,138.688636 149.317727,138.201818 148.52,137.686364 C147.759091,137.195455 147.648636,136.880455 147.636364,136.843636 L147.636364,136.831364 L146,136.843636 L146,136.847727 C146,139.785 154.059091,142.165909 164,142.165909 C173.940909,142.165909 182,139.785 182,136.847727 L182,136.831364 L180.363636,136.823182 Z M180.363636,127.761818 L180.363636,127.782273 C180.355455,127.819091 180.240909,128.134091 179.48,128.625 C178.682273,129.136364 177.487727,129.627273 176.023182,130.044545 C172.795455,130.956818 168.528636,131.464091 164,131.464091 C159.471364,131.464091 155.204545,130.960909 151.976818,130.044545 C150.512273,129.627273 149.317727,129.140455 148.52,128.625 C147.759091,128.134091 147.648636,127.819091 147.636364,127.782273 L147.636364,127.77 L146,127.782273 L146,127.786364 C146,130.723636 154.059091,133.104545 164,133.104545 C173.940909,133.104545 182,130.723636 182,127.786364 L182,127.77 L180.363636,127.761818 Z" id="形状" stroke="#979797" fill-rule="nonzero"></path>
            <path d="M46.9183594,7.14726563 C46.05625,7.14726563 45.3410156,6.44882813 45.3410156,5.58515625 C45.3410156,4.72148438 46.0242187,4.02304688 46.8875,4.02304688 L46.9179687,4.02304688 C47.78125,4.02304688 48.4800781,4.72148438 48.4800781,5.58515625 C48.4800781,6.44882813 47.7820312,7.14726563 46.9183594,7.14726563 Z M53.1664062,7.14726563 C52.3046875,7.14726563 51.5894531,6.44882813 51.5894531,5.58515625 C51.5894531,4.72148438 52.2726562,4.02304688 53.1359375,4.02304688 L53.1664062,4.02304688 C54.0300781,4.02304688 54.7285156,4.72148438 54.7285156,5.58515625 C54.7285156,6.44882813 54.0300781,7.14726563 53.1664062,7.14726563 Z M59.4144531,7.14726563 C58.5527344,7.14726563 57.8371094,6.44882813 57.8371094,5.58515625 C57.8371094,4.72148438 58.5207031,4.02304688 59.3835937,4.02304688 L59.4140625,4.02304688 C60.2777344,4.02304688 60.9761719,4.72148438 60.9761719,5.58515625 C60.9761719,6.44882813 60.278125,7.14726563 59.4144531,7.14726563 Z" id="形状" fill-rule="nonzero"></path>
            <path d="M140.546484,10.2714844 L40.5773438,10.2714844 C40.162983,10.2716918 39.7655339,10.1071795 39.4725366,9.81418215 C39.1795393,9.52118485 39.015027,9.12373571 39.0152344,8.709375 L39.0152344,5.58515625 C39.0152344,3.00117187 41.1171875,0.898828125 43.7011719,0.898828125 L137.422656,0.898828125 C140.006641,0.898828125 142.108594,3.00117187 142.108594,5.58515625 L142.108594,8.709375 C142.108905,9.1237675 141.944426,9.52127698 141.651406,9.81429681 C141.358386,10.1073166 140.960877,10.2717956 140.546484,10.2714844 Z M42.1394531,7.14726562 L138.984766,7.14726562 L138.984766,5.58515625 C138.98369,4.72302545 138.285177,4.02433811 137.423047,4.02304687 L43.7015625,4.02304687 C42.8391012,4.02369316 42.1400994,4.7226949 42.1394531,5.58515625 L42.1394531,7.14726562 Z" id="形状" fill-rule="nonzero"></path>
            <path d="M140.546484,75.8761719 L40.5773438,75.8761719 C40.162983,75.8763793 39.7655339,75.711867 39.4725366,75.4188697 C39.1795393,75.1258723 39.015027,74.7284232 39.0152344,74.3140625 L39.0152344,8.709375 C39.015027,8.29501429 39.1795393,7.89756515 39.4725366,7.60456785 C39.7655339,7.31157055 40.162983,7.14705824 40.5773438,7.14726562 L140.546484,7.14726562 C141.410156,7.14726562 142.108984,7.84609375 142.108984,8.709375 L142.108984,74.3140625 C142.109192,74.7284909 141.944626,75.1259994 141.651544,75.4190079 C141.358462,75.7120165 140.960913,75.876483 140.546484,75.8761719 Z M42.1394531,72.7523437 L138.984766,72.7523437 L138.984766,10.2714844 L42.1394531,10.2714844 L42.1394531,72.7523437 Z" id="形状" fill-rule="nonzero"></path>
            <path d="M134.298828,35.2640625 L46.8253906,35.2640625 C46.4110299,35.2642699 46.0135808,35.0997576 45.7205835,34.8067603 C45.4275862,34.513763 45.2630739,34.1163138 45.2632813,33.7019531 L45.2632813,14.9578125 C45.2630739,14.5434518 45.4275862,14.1460027 45.7205835,13.8530053 C46.0135808,13.560008 46.4110299,13.3954957 46.8253906,13.3957031 L134.298828,13.3957031 C134.713153,13.3954956 135.110562,13.5600204 135.403497,13.853029 C135.696433,14.1460375 135.860858,14.5434877 135.860547,14.9578125 L135.860547,33.7019531 C135.860858,34.1162779 135.696433,34.5137281 135.403497,34.8067367 C135.110562,35.0997452 134.713153,35.26427 134.298828,35.2640625 Z M48.3875,32.1398438 L132.737109,32.1398438 L132.737109,16.5195313 L48.3875,16.5195313 L48.3875,32.1398438 Z" id="形状" fill-rule="nonzero"></path>
            <path d="M124.926953,25.8914063 L56.1976563,25.8914063 C55.334375,25.8914063 54.6355469,25.1929688 54.6355469,24.3292969 C54.6355469,23.465625 55.334375,22.7671875 56.1976563,22.7671875 L124.926953,22.7671875 C125.789844,22.7671875 126.488672,23.465625 126.488672,24.3292969 C126.488672,25.1929688 125.789844,25.8914063 124.926953,25.8914063 Z M134.298828,44.6359375 L93.6859375,44.6359375 C92.8230469,44.6359375 92.1242188,43.9375 92.1242188,43.0738281 C92.1242188,42.2101563 92.8230469,41.5117188 93.6859375,41.5117188 L134.298828,41.5117188 C135.1625,41.5117188 135.860547,42.2101563 135.860547,43.0738281 C135.860547,43.9375 135.1625,44.6359375 134.298828,44.6359375 Z M134.298828,50.8839844 L93.6859375,50.8839844 C92.8230469,50.8839844 92.1242188,50.1855469 92.1242188,49.321875 C92.1242188,48.4582031 92.8230469,47.7597656 93.6859375,47.7597656 L134.298828,47.7597656 C135.1625,47.7597656 135.860547,48.4582031 135.860547,49.321875 C135.860547,50.1855469 135.1625,50.8839844 134.298828,50.8839844 Z M134.298828,57.1320313 L93.6859375,57.1320313 C92.8230469,57.1320313 92.1242188,56.4335938 92.1242188,55.5699219 C92.1242188,54.70625 92.8230469,54.0078125 93.6859375,54.0078125 L134.298828,54.0078125 C135.1625,54.0078125 135.860547,54.70625 135.860547,55.5699219 C135.860547,56.4335938 135.1625,57.1320313 134.298828,57.1320313 Z M113.992188,63.3800781 L93.6859375,63.3800781 C93.2716127,63.3802856 92.8742036,63.2157609 92.5812683,62.9227523 C92.288333,62.6297437 92.1239076,62.2322935 92.1242188,61.8179688 C92.1240114,61.4036758 92.2884701,61.0062859 92.5813829,60.7132998 C92.8742957,60.4203138 93.2716445,60.2557557 93.6859375,60.2558594 L113.992188,60.2558594 C114.406512,60.2556519 114.803921,60.4201766 115.096857,60.7131852 C115.389792,61.0061938 115.554217,61.403644 115.553906,61.8179688 C115.554425,62.2323571 115.390067,62.6299281 115.097086,62.9229818 C114.804106,63.2160354 114.406576,63.3804935 113.992188,63.3800781 Z M87.4378906,69.628125 L46.8253906,69.628125 C46.4110299,69.6283324 46.0135808,69.4638201 45.7205835,69.1708228 C45.4275862,68.8778255 45.2630739,68.4803763 45.2632813,68.0660156 L45.2632813,39.9496094 C45.2630739,39.5352487 45.4275862,39.1377995 45.7205835,38.8448022 C46.0135808,38.5518049 46.4110299,38.3872926 46.8253906,38.3875 L87.4378906,38.3875 C87.8522513,38.3872926 88.2497005,38.5518049 88.5426978,38.8448022 C88.8356951,39.1377995 89.0002074,39.5352487 89,39.9496094 L89,68.0660156 C89.0002074,68.4803763 88.8356951,68.8778255 88.5426978,69.1708228 C88.2497005,69.4638201 87.8522513,69.6283324 87.4378906,69.628125 Z M48.3875,66.5042969 L85.8761719,66.5042969 L85.8761719,41.5121094 L48.3875,41.5121094 L48.3875,66.5042969 Z" id="形状" fill-rule="nonzero"></path>
            <path d="M84.3152344,69.628125 C83.7661401,69.6290368 83.2569925,69.3412319 82.9746094,68.8703125 L74.9417969,55.4816406 L66.9089844,68.8703125 C66.6959434,69.2256408 66.3503816,69.4816991 65.9484255,69.5820783 C65.5464693,69.6824574 65.1210965,69.618922 64.7660156,69.4054688 C64.4107829,69.1923469 64.1547803,68.8468187 64.054342,68.444919 C63.9539037,68.0430193 64.0172599,67.6176805 64.2304688,67.2625 L73.6027344,51.6421875 C74.1671875,50.7023438 75.7167969,50.7023438 76.28125,51.6421875 L85.653125,67.2625 C85.9426994,67.7447902 85.9505151,68.345549 85.6735854,68.8352092 C85.3966557,69.3248694 84.8777795,69.6277552 84.3152344,69.628125 Z" id="路径"></path>
            <path d="M56.1960938,69.628125 C55.8882272,69.6278716 55.5873173,69.5365385 55.33125,69.365625 C54.9861893,69.136153 54.7465974,68.7788304 54.6653276,68.3724814 C54.5840578,67.9661324 54.6677877,67.5441453 54.8980469,67.1996094 L61.1460938,57.8273437 C61.7257813,56.9578125 63.165625,56.9578125 63.7453125,57.8273437 L68.4816406,64.9296875 C68.7116915,65.2742858 68.7952989,65.6962094 68.7140416,66.1024958 C68.6327843,66.5087823 68.39333,66.8660935 68.0484375,67.0957031 C67.3304374,67.5729621 66.3616301,67.3792006 65.8824219,66.6625 L62.4457031,61.5097656 L57.4972656,68.9324219 C57.2075343,69.3677214 56.7189984,69.628929 56.1960938,69.628125 Z" id="路径"></path>
            <path d="M56.1976563,54.0082031 C53.6136719,54.0082031 51.5117188,51.9058594 51.5117188,49.321875 C51.5117188,46.7378906 53.6136719,44.6355469 56.1976563,44.6355469 C58.7816406,44.6355469 60.8835938,46.7375 60.8835938,49.321875 C60.8835938,51.9058594 58.7816406,54.0082031 56.1976563,54.0082031 Z M56.1976563,47.7601563 C55.3359375,47.7601563 54.6355469,48.4601563 54.6355469,49.3222656 C54.6355469,50.184375 55.3359375,50.884375 56.1976563,50.884375 C57.059375,50.884375 57.7597656,50.184375 57.7597656,49.3222656 C57.7597656,48.4601563 57.059375,47.7601563 56.1976563,47.7601563 Z" id="形状" fill-rule="nonzero"></path>
            <path d="M90.5617187,113.366797 C90.1474257,113.366901 89.750077,113.202342 89.4571642,112.909356 C89.1642514,112.61637 88.9997927,112.21898 89,111.804688 L89,89.9367188 C88.9997927,89.5224258 89.1642514,89.1250359 89.4571642,88.8320498 C89.750077,88.5390638 90.1474257,88.3745057 90.5617187,88.3746094 C91.4253906,88.3746094 92.1242187,89.0734375 92.1242187,89.9367188 L92.1242187,111.804688 C92.1243225,112.219084 91.9597232,112.616532 91.6666639,112.909518 C91.3736046,113.202504 90.9761153,113.367004 90.5617187,113.366797 Z" id="路径"></path>
            <path d="M90.5617187,113.366797 C89.9297794,113.367175 89.3599281,112.986586 89.1181992,112.402707 C88.8764703,111.818828 89.0105378,111.146813 89.4578125,110.700391 L92.5820312,107.576172 C93.1920254,106.966286 94.180934,106.966373 94.7908203,107.576367 C95.4007066,108.186361 95.4006192,109.17527 94.790625,109.785156 L91.6664062,112.908984 C91.3737417,113.202468 90.9761884,113.367225 90.5617187,113.366797 Z" id="路径"></path>
            <path d="M90.5617187,113.366797 C90.1475113,113.36706 89.7502614,113.202313 89.4578125,112.908984 L86.3335937,109.785156 C85.7235996,109.17527 85.7235121,108.186361 86.3333984,107.576367 C86.9432848,106.966373 87.9321933,106.966286 88.5421875,107.576172 L91.6664062,110.700391 C92.1137821,111.146913 92.2478003,111.819118 92.0058708,112.403068 C91.7639413,112.987018 91.1938003,113.367492 90.5617188,113.366797 Z" id="路径"></path>
            <path d="M21.8332031,103.994531 C21.2011927,103.995068 20.6311966,103.614536 20.3893674,103.030622 C20.1475381,102.446708 20.281581,101.774597 20.7289063,101.328125 L36.3492188,85.7078125 C36.6420466,85.4148408 37.0392928,85.2502388 37.4535156,85.2502388 C37.8677385,85.2502388 38.2649847,85.4148408 38.5578125,85.7078125 C38.8507842,86.0006403 39.0153862,86.3978865 39.0153862,86.8121094 C39.0153862,87.2263322 38.8507842,87.6235784 38.5578125,87.9164062 L22.9375,103.536719 C22.6450782,103.830326 22.2475889,103.995115 21.8332031,103.994531 Z" id="路径"></path>
            <path d="M26.2507812,103.994531 L21.8332031,103.994531 C20.9699219,103.994531 20.2710937,103.295703 20.2710937,102.432422 C20.2710937,101.569141 20.9695312,100.870312 21.8332031,100.870312 L26.2507812,100.870312 C27.1140625,100.870312 27.8128906,101.569141 27.8128906,102.432422 C27.8128906,103.295703 27.1140625,103.994531 26.2507812,103.994531 Z" id="路径"></path>
            <path d="M21.8332031,103.994531 C21.4188424,103.994739 21.0213933,103.830226 20.728396,103.537229 C20.4353987,103.244232 20.2708864,102.846783 20.2710937,102.432422 L20.2710937,98.0144531 C20.2710937,97.1511719 20.9695312,96.4527344 21.8332031,96.4527344 C22.696875,96.4527344 23.3953125,97.1511719 23.3953125,98.0144531 L23.3953125,102.432422 C23.3954161,102.846751 23.2308705,103.24414 22.9378957,103.537114 C22.6449209,103.830089 22.2475321,103.994635 21.8332031,103.994531 Z" id="路径"></path>
            <path d="M159.291016,103.994531 C158.876546,103.994959 158.478993,103.830202 158.186328,103.536719 L142.566797,87.9164062 C142.273825,87.6235784 142.109223,87.2263322 142.109223,86.8121094 C142.109223,86.3978865 142.273825,86.0006403 142.566797,85.7078125 C142.859625,85.4148408 143.256871,85.2502388 143.671094,85.2502388 C144.085317,85.2502388 144.482563,85.4148408 144.775391,85.7078125 L160.394922,101.328125 C160.687894,101.620953 160.852496,102.018199 160.852496,102.432422 C160.852496,102.846645 160.687894,103.243891 160.394922,103.536719 C160.102793,103.830524 159.705335,103.995358 159.291016,103.994531 Z" id="路径"></path>
            <path d="M159.291016,103.994531 L154.873438,103.994531 C154.009766,103.994531 153.310938,103.295703 153.310938,102.432422 C153.310938,101.569141 154.009766,100.870312 154.873438,100.870312 L159.291016,100.870312 C160.153906,100.870312 160.852734,101.569141 160.852734,102.432422 C160.852734,103.295703 160.153906,103.994531 159.291016,103.994531 Z" id="路径"></path>
            <path d="M159.291016,103.994531 C158.427344,103.994531 157.728516,103.295703 157.728516,102.432422 L157.728516,98.0144531 C157.728412,97.6000924 157.893024,97.2026844 158.186094,96.9097603 C158.479165,96.6168363 158.876655,96.4524234 159.291016,96.4527344 C159.705273,96.452527 160.102623,96.6169981 160.395547,96.9099222 C160.688471,97.2028462 160.852942,97.600196 160.852734,98.0144531 L160.852734,102.432422 C160.852942,102.846715 160.688483,103.244105 160.39557,103.537091 C160.102657,103.830077 159.705309,103.994635 159.291016,103.994531 Z" id="路径"></path>
        </g>
    </g>
</svg>