<svg width="16" height="16" xmlns="http://www.w3.org/2000/svg">
  <g fill="#FFF" fill-rule="evenodd">
    <path d="M4.6 9.3c0 .1.04.2.12.28.16.16.41.16.57 0l3-3c.16-.16.16-.41 0-.57a.398.398 0 00-.57 0l-3 3c-.08.09-.12.19-.12.29z"/>
    <path d="M7.6 6.3c0 .1.04.2.12.28l3 3c.16.16.41.16.57 0 .16-.16.16-.41 0-.57l-3-3a.398.398 0 00-.57 0c-.08.09-.12.19-.12.29z"/>
    <path d="M0 8c0 4.41 3.59 8 8 8s8-3.59 8-8-3.59-8-8-8-8 3.59-8 8zm15.2 0c0 3.97-3.23 7.2-7.2 7.2S.8 11.97.8 8 4.03.8 8 .8s7.2 3.23 7.2 7.2z" fill-rule="nonzero"/>
  </g>
</svg>
