<svg width="20" height="17" xmlns="http://www.w3.org/2000/svg">
  <path d="M9.987 4.548a.911.911 0 00-.907.907l.453 4.996a.458.458 0 10.911 0l.454-4.996a.911.911 0 00-.911-.907zm0 7.264a.907.907 0 10.008 1.814.907.907 0 00-.008-1.814zm9.76 1.814L11.577.916a1.724 1.724 0 00-1.59-.907c-.65.01-1.248.352-1.585.907L.23 13.626a1.635 1.635 0 00-.228.91c.004 1 .814 1.81 1.814 1.815h16.342a1.822 1.822 0 001.818-1.814 1.48 1.48 0 00-.229-.911zm-1.589 1.818H1.816a.911.911 0 01-.907-.907 2.42 2.42 0 01.045-.364l.045-.045 8.17-12.714.05-.045a.972.972 0 01.768-.453.87.87 0 01.772.408c0 .045.045.045.045.14l8.171 12.71.05.044c.027.12.042.241.044.364a.903.903 0 01-.91.862z" fill="#FF7A22" fill-rule="nonzero"/>
</svg>
