<?xml version="1.0" encoding="utf-8"?>
<!-- Generator: Adobe Illustrator 22.1.0, SVG Export Plug-In . SVG Version: 6.00 Build 0)  -->
<svg version="1.1" id="图层_1" xmlns="http://www.w3.org/2000/svg" xmlns:xlink="http://www.w3.org/1999/xlink" x="0px" y="0px"
	 viewBox="0 0 721.7 844.3" style="enable-background:new 0 0 721.7 844.3;" xml:space="preserve">
<style type="text/css">
	.st0{fill:#828282;}
</style>
<path class="st0" d="M64.8,379.6v381.1h592.8V379.6H64.8z M64.8,316.1h592.8c35.8,0,63.5,27.7,63.5,63.5v381.1
	c0,35.8-27.7,63.5-63.5,63.5H64.8c-35.8,0-63.5-27.7-63.5-63.5V379.6C1.3,343.7,30.6,316.1,64.8,316.1L64.8,316.1z M607.1,202.1
	c4.9,16.3-4.9,34.2-22.8,39.1c-16.3,4.9-34.2-4.9-39.1-22.8C520.8,132,442.7,71.8,351.5,71.8S182.1,132,157.6,218.3
	c-4.9,16.3-22.8,26.1-39.1,22.8c-16.3-3.3-26.1-22.8-22.8-39.1C126.7,88,230.9,8.2,349.8,8.2C472,8.2,576.2,89.7,607.1,202.1
	L607.1,202.1z M607.1,202.1"/>
<path class="st0" d="M330.3,506.6c0-17.9,14.7-30.9,30.9-30.9c16.3,0,30.9,14.7,30.9,30.9v110.7c0,17.9-14.7,30.9-30.9,30.9
	c-16.3,0-30.9-14.7-30.9-30.9V506.6z M330.3,506.6"/>
</svg>
