<svg version="1.1" xmlns="http://www.w3.org/2000/svg" x="0" y="0" viewBox="0 0 721.7 844.3" xml:space="preserve">
  <path d="M64.8 379.6v381.1h592.8V379.6H64.8zm0-63.5h592.8c35.8 0 63.5 27.7 63.5 63.5v381.1c0 35.8-27.7 63.5-63.5 63.5H64.8c-35.8 0-63.5-27.7-63.5-63.5V379.6c0-35.9 29.3-63.5 63.5-63.5zm542.3-114c4.9 16.3-4.9 34.2-22.8 39.1-16.3 4.9-34.2-4.9-39.1-22.8C520.8 132 442.7 71.8 351.5 71.8S182.1 132 157.6 218.3c-4.9 16.3-22.8 26.1-39.1 22.8-16.3-3.3-26.1-22.8-22.8-39.1C126.7 88 230.9 8.2 349.8 8.2c122.2 0 226.4 81.5 257.3 193.9zm0 0"/>
  <path d="M330.3 506.6c0-17.9 14.7-30.9 30.9-30.9 16.3 0 30.9 14.7 30.9 30.9v110.7c0 17.9-14.7 30.9-30.9 30.9-16.3 0-30.9-14.7-30.9-30.9V506.6zm0 0"/>
</svg>
