<svg version="1.1" xmlns="http://www.w3.org/2000/svg" x="0" y="0" viewBox="0 0 721.7 844.3" xml:space="preserve">
  <path d="M338.1 439c-98 0-178.7-79.1-178.7-178.7S238.5 81.6 338.1 81.6s178.7 79.1 178.7 178.7c0 99.7-80.6 178.7-178.7 178.7m0-423.8c-136 0-246.7 110.7-246.7 246.7 0 87 45.9 164.5 113.9 207.2-120.2 49-202.4 155-202.4 276.7v4.7c1.6 20.6 19 38 39.5 38 20.6 0 38-17.4 39.5-38v-3.2c0-124.9 110.7-226.1 251.4-237.2h4.7c136 0 246.7-110.7 246.7-246.7.1-137.5-110.6-248.2-246.6-248.2M719.2 746c0-91.7-47.4-174-120.2-229.3-6.3-4.7-14.2-7.9-22.1-7.9-20.6 0-36.4 15.8-36.4 36.4 0 12.7 4.7 22.1 15.8 30 52.2 42.7 83.8 104.4 83.8 170.8v3.2c1.6 20.6 17.4 38 39.5 38s38-17.4 39.5-38V746c.1 1.6.1 1.6.1 0"/>
</svg>
