<svg width="68" height="66" xmlns="http://www.w3.org/2000/svg">
  <g fill="none" fill-rule="evenodd">
    <path fill="#1B9CCE" fill-rule="nonzero" d="M33.678.48l26.815 12.913 6.622 29.016L48.56 65.678H18.797L.24 42.408l6.623-29.015z"/>
    <path d="M34.04 20.314c-.372 0-.743.124-1.074.33-.082.042-2.353 2.436-4.583 2.973-1.445.372-3.055.413-3.84.413h-.949c-.496 0-.95.165-1.322.496-.371.33-.578.825-.578 1.32v4.667c0 17.218 11.52 19.406 12.016 19.489.123 0 .206.04.33.04.124 0 .206 0 .33-.04.496-.083 12.098-2.271 12.098-19.49v-4.665c0-.496-.206-.991-.62-1.363a1.921 1.921 0 00-1.28-.495h-.949c-.784 0-2.353-.041-3.798-.413-1.9-.413-4.088-2.519-4.708-2.932a2.047 2.047 0 00-1.073-.33z" fill="#FFF"/>
    <path d="M38.126 33.466h-.747v-1.502a3.366 3.366 0 00-3.377-3.385 3.366 3.366 0 00-3.377 3.385v1.502h-.746a.752.752 0 00-.747.747v6.015c0 .409.338.747.747.747h8.247a.754.754 0 00.756-.747v-6.015a.755.755 0 00-.756-.747zm-1.876 0h-4.496v-1.502a2.259 2.259 0 012.248-2.257 2.258 2.258 0 012.248 2.257v1.502z" fill="#1B9CCE" fill-rule="nonzero"/>
  </g>
</svg>
