<?xml version="1.0" encoding="UTF-8"?>
<svg width="68px" height="66px" viewBox="0 0 68 66" version="1.1" xmlns="http://www.w3.org/2000/svg" xmlns:xlink="http://www.w3.org/1999/xlink">
    <!-- Generator: Sketch 52.5 (67469) - http://www.bohemiancoding.com/sketch -->
    <title>444444</title>
    <desc>Created with Sketch.</desc>
    <g id="test" stroke="none" stroke-width="1" fill="none" fill-rule="evenodd">
        <g id="icon" transform="translate(-815.000000, -530.000000)">
            <g id="444444" transform="translate(814.000000, 530.000000)">
                <polygon id="多边形" fill="#1B9CCE" fill-rule="nonzero" points="34.677686 0.479338843 61.4925674 13.3927051 68.1152962 42.4087758 49.5588225 65.6778579 19.7965494 65.6778579 1.24007574 42.4087758 7.86280453 13.3927051"></polygon>
                <g id="保护suo" transform="translate(22.694215, 20.314050)">
                    <path d="M12.3457268,0 C11.9741163,0 11.6025058,0.123870178 11.2721854,0.330320456 C11.1896053,0.371610506 8.91865214,2.76643377 6.6889891,3.3032045 C5.24383713,3.67481501 3.63352496,3.71610506 2.84901387,3.71610506 C2.35353318,3.71610506 2.06450281,3.71610506 2.02321276,3.71610506 C1.98192271,3.71610506 1.94063266,3.71610506 1.89934258,3.71610506 C1.40386189,3.71610506 0.949671289,3.88126529 0.578060783,4.21158574 C0.206450278,4.54190617 0,5.03738685 0,5.53286754 L0,10.1986439 C0,27.4165973 11.5199257,29.6049703 12.0154064,29.6875504 C12.1392765,29.6875504 12.2218566,29.7288405 12.3457268,29.7288405 C12.469597,29.7288405 12.5521771,29.7288405 12.6760473,29.6875504 C13.1715279,29.6049703 24.7740337,27.4165973 24.7740337,10.1986439 L24.7740337,5.53286754 C24.7740337,5.03738685 24.5675835,4.5419062 24.1546829,4.17029569 C23.7830724,3.83997524 23.3288818,3.67481501 22.8746912,3.67481501 C22.8334011,3.67481501 22.7921111,3.67481501 22.750821,3.67481501 C22.7095309,3.67481501 22.4205005,3.67481501 21.9250199,3.67481501 C21.1405088,3.67481501 19.5714867,3.63352496 18.1263347,3.26191445 C16.2269921,2.84901387 14.0386191,0.743221011 13.4192683,0.330320456 C13.0889478,0.123870178 12.7173373,0 12.3457268,0 Z" id="路径" fill="#FFFFFF"></path>
                    <path d="M16.4317209,13.1515377 L15.6847232,13.1515377 L15.6847232,11.6501094 C15.6847232,9.76589114 14.1832948,8.26446281 12.3077482,8.26446281 C10.4322016,8.26446281 8.93077325,9.76589115 8.93077324,11.6501094 L8.93077324,13.1515377 L8.18501428,13.1515377 C7.77620953,13.1515377 7.43801652,13.4897307 7.43801653,13.8985355 L7.43801653,19.9141593 C7.43801653,20.322964 7.77620954,20.661157 8.18501428,20.661157 L16.4317209,20.661157 C16.8491973,20.661157 17.1873903,20.322964 17.1873903,19.9141593 L17.1873903,13.8985355 C17.1861515,13.4897307 16.8491973,13.1515377 16.4317209,13.1515377 Z M14.5561743,13.1515377 L10.0593221,13.1515377 L10.0593221,11.6501094 C10.0593221,10.4063519 11.0726624,9.39301167 12.3077482,9.39301167 C13.5502669,9.39796688 14.5561743,10.4075907 14.5561743,11.6501094 L14.5561743,13.1515377 Z" id="形状" fill="#1B9CCE" fill-rule="nonzero"></path>
                </g>
            </g>
        </g>
    </g>
</svg>