<?xml version="1.0" encoding="UTF-8"?>
<svg width="68px" height="66px" viewBox="0 0 68 66" version="1.1" xmlns="http://www.w3.org/2000/svg" xmlns:xlink="http://www.w3.org/1999/xlink">
    <!-- Generator: Sketch 52.5 (67469) - http://www.bohemiancoding.com/sketch -->
    <title>222</title>
    <desc>Created with Sketch.</desc>
    <g id="test" stroke="none" stroke-width="1" fill="none" fill-rule="evenodd">
        <g id="icon" transform="translate(-438.000000, -208.000000)" fill-rule="nonzero">
            <g id="222" transform="translate(437.000000, 208.000000)">
                <polygon id="多边形" fill="#1B9CCE" points="34.8181818 0.165289256 61.6330632 13.0786556 68.255792 42.0947262 49.6993183 65.3638083 19.9370453 65.3638083 1.38057161 42.0947262 8.00330039 13.0786556"></polygon>
                <g id="gengduo" transform="translate(20.355372, 22.479339)" fill="#FFFFFF">
                    <path d="M28.4490975,2.32272656 L5.93412611,2.32272656 C5.40710658,2.32272656 4.97930328,1.8093626 4.97930328,1.17693916 C4.97930328,0.544515725 5.40710658,0.0311517617 5.93412611,0.0311517617 L28.4490975,0.0311517617 C28.976117,0.0311517617 29.4039203,0.544515725 29.4039203,1.17693916 C29.4039203,1.8093626 28.976117,2.32272656 28.4490975,2.32272656 Z M28.4490975,9.81195147 L12.2370237,9.81195147 C11.7100041,9.81195147 11.2822008,9.2985875 11.2822008,8.66616407 C11.2822008,8.03374063 11.7100041,7.52037667 12.2370237,7.52037667 L28.4487418,7.52037667 C28.9757614,7.52037667 29.4035647,8.03374063 29.4035647,8.66616407 C29.4035647,9.2985875 28.976117,9.81195147 28.4490975,9.81195147 Z M28.4490975,17.3016031 L12.2370237,17.3016031 C11.7100041,17.3016031 11.2822008,16.7882391 11.2822008,16.1558157 C11.2822008,15.5233923 11.7100041,15.0100283 12.2370237,15.0100283 L28.4487418,15.0100283 C28.9757614,15.0100283 29.4035647,15.5233923 29.4035647,16.1558157 C29.4035647,16.7882391 28.976117,17.3016031 28.4490975,17.3016031 Z M28.0180747,24.6367761 L6.26071981,24.6367761 C5.55343516,24.6367761 4.97930328,24.1234122 4.97930328,23.4909887 C4.97930328,22.8585653 5.55343516,22.3452013 6.26071981,22.3452013 L28.0175975,22.3452013 C28.7248822,22.3452013 29.299014,22.8585653 29.299014,23.4909887 C29.299014,24.1234122 28.7253594,24.6367761 28.0180747,24.6367761 Z M3.19717884,2.32272656 L0.149857473,2.32272656 C0.0785272526,2.32272656 0.0206255957,1.8093626 0.0206255957,1.17693916 C0.0206255957,0.544515725 0.0785272526,0.0311517617 0.149857473,0.0311517617 L3.19717884,0.0311517617 C3.26850906,0.0311517617 3.32641072,0.544515725 3.32641072,1.17693916 C3.32641072,1.8093626 3.26850906,2.32272656 3.19717884,2.32272656 Z M8.11096997,9.76074309 L5.15348659,9.76074309 C5.05734519,9.76074309 4.97930328,9.24737913 4.97930328,8.61495569 C4.97930328,7.98253225 5.05734519,7.46916829 5.15348659,7.46916829 L8.1109051,7.46916829 C8.2070465,7.46916829 8.28508841,7.98253225 8.28508841,8.61495569 C8.28508841,9.24737913 8.20711137,9.76074309 8.11096997,9.76074309 Z M8.11096997,17.1987596 L5.15348659,17.1987596 C5.05734519,17.1987596 4.97930328,16.6853957 4.97930328,16.0529722 C4.97930328,15.4205488 5.05734519,14.9071848 5.15348659,14.9071848 L8.1109051,14.9071848 C8.2070465,14.9071848 8.28508841,15.4205488 8.28508841,16.0529722 C8.28508841,16.6853957 8.20711137,17.1987596 8.11096997,17.1987596 Z M3.15229228,24.6367761 L0.194808905,24.6367761 C0.0986675028,24.6367761 0.0206255957,24.1234122 0.0206255957,23.4909887 C0.0206255957,22.8585653 0.0986675028,22.3452013 0.194808905,22.3452013 L3.15222741,22.3452013 C3.24836881,22.3452013 3.32641072,22.8585653 3.32641072,23.4909887 C3.32641072,24.1234122 3.24843369,24.6367761 3.15229228,24.6367761 Z" id="形状"></path>
                </g>
            </g>
        </g>
    </g>
</svg>