<svg width="68" height="66" xmlns="http://www.w3.org/2000/svg">
  <g fill-rule="nonzero" fill="none">
    <path fill="#1B9CCE" d="M33.818.165L60.633 13.08l6.623 29.016-18.557 23.269H18.937L.381 42.094 7.003 13.08z"/>
    <path d="M47.804 24.802H25.29c-.527 0-.954-.513-.954-1.146 0-.632.427-1.146.954-1.146h22.515c.527 0 .955.514.955 1.146 0 .633-.428 1.146-.955 1.146zm0 7.49H31.592c-.527 0-.954-.514-.954-1.146 0-.633.427-1.146.954-1.146h16.212c.527 0 .955.513.955 1.146 0 .632-.428 1.145-.955 1.145zm0 7.489H31.592c-.527 0-.954-.513-.954-1.146 0-.632.427-1.146.954-1.146h16.212c.527 0 .955.514.955 1.146 0 .633-.428 1.146-.955 1.146zm-.43 7.335H25.615c-.707 0-1.281-.513-1.281-1.146 0-.632.574-1.145 1.281-1.145h21.757c.707 0 1.281.513 1.281 1.145 0 .633-.573 1.146-1.28 1.146zM22.552 24.802h-3.048c-.071 0-.129-.513-.129-1.146 0-.632.058-1.146.13-1.146h3.047c.07 0 .129.514.129 1.146 0 .633-.058 1.146-.13 1.146zm4.913 7.438H24.51c-.096 0-.174-.513-.174-1.146 0-.632.078-1.145.174-1.145h2.957c.096 0 .174.513.174 1.145 0 .633-.078 1.146-.174 1.146zm0 7.438H24.51c-.096 0-.174-.513-.174-1.146 0-.632.078-1.145.174-1.145h2.957c.096 0 .174.513.174 1.145 0 .633-.078 1.146-.174 1.146zm-4.958 7.438H19.55c-.096 0-.174-.513-.174-1.146 0-.632.078-1.145.174-1.145h2.958c.096 0 .174.513.174 1.145 0 .633-.078 1.146-.174 1.146z" fill="#FFF"/>
  </g>
</svg>
