<svg width="68" height="66" xmlns="http://www.w3.org/2000/svg">
  <g fill="none" fill-rule="evenodd">
    <path fill="#1B9CCE" fill-rule="nonzero" d="M34.298 0l26.814 12.913 6.623 29.016L49.18 65.2H19.416L.86 41.929l6.623-29.016z"/>
    <g fill="#FFF">
      <path d="M43.441 29.295c-.064 0-.128 0-.193.004-.032-.004-.06-.004-.093-.004h-7.113V30.9h7.081l.054.007.078-.004c.065-.003.125-.003.183-.003a3.745 3.745 0 013.738 3.739 3.745 3.745 0 01-3.738 3.738c-.058 0-.118 0-.183-.003l-.078-.004-.054.007h-7.088v1.604h7.12c.029 0 .061 0 .093-.004a5.348 5.348 0 005.535-5.339 5.348 5.348 0 00-5.342-5.342zm-17.623 9.07l-.079.004c-.06.004-.125.004-.182.004a3.745 3.745 0 01-3.739-3.739 3.745 3.745 0 013.74-3.739c.056 0 .117 0 .181.004l.079.003.053-.007h7.093v-1.603h-7.121c-.029 0-.06 0-.093.003-.064-.003-.132-.003-.193-.003a5.353 5.353 0 00-5.342 5.346 5.348 5.348 0 005.342 5.342c.064 0 .129 0 .193-.004.032.004.06.004.093.004h7.113v-1.604h-7.081l-.057-.01z" fill-rule="nonzero"/>
      <path d="M28.603 33.63h11.792v1.604H28.603z"/>
    </g>
  </g>
</svg>
