<?xml version="1.0" encoding="UTF-8"?>
<svg width="68px" height="66px" viewBox="0 0 68 66" version="1.1" xmlns="http://www.w3.org/2000/svg" xmlns:xlink="http://www.w3.org/1999/xlink">
    <!-- Generator: Sketch 52.5 (67469) - http://www.bohemiancoding.com/sketch -->
    <title>5555555</title>
    <desc>Created with Sketch.</desc>
    <g id="test" stroke="none" stroke-width="1" fill="none" fill-rule="evenodd">
        <g id="icon" transform="translate(-814.000000, -445.000000)">
            <g id="5555555" transform="translate(814.000000, 445.000000)">
                <polygon id="多边形" fill="#1B9CCE" fill-rule="nonzero" points="34.2975207 0 61.1124021 12.9133663 67.7351309 41.929437 49.1786572 65.198519 19.4163842 65.198519 0.85991045 41.929437 7.48263924 12.9133663"></polygon>
                <g id="链接" transform="translate(20.214876, 29.280992)" fill="#FFFFFF">
                    <path d="M23.2262014,0.0142842567 C23.1619223,0.0142842567 23.0976431,0.0142842567 23.0333639,0.0178553209 C23.0012244,0.0142842567 22.9726559,0.0142842567 22.9405163,0.0142842567 L15.8269564,0.0142842567 L15.8269564,1.61769207 L22.9083767,1.61769207 L22.9619427,1.6248342 L23.0405061,1.62126314 C23.1047852,1.61769207 23.1654933,1.61769207 23.2226303,1.61769207 C25.2831344,1.61769207 26.9615345,3.29609224 26.9615345,5.35659627 C26.9615345,7.4171003 25.2831344,9.09550046 23.2226303,9.09550046 C23.1654933,9.09550046 23.1047852,9.09550046 23.0405061,9.09192939 L22.9619427,9.08835833 L22.9083767,9.09550046 L15.8198143,9.09550046 L15.8198143,10.6989083 L22.9405163,10.6989083 C22.9690848,10.6989083 23.0012244,10.6989083 23.0333639,10.6953372 C23.0976431,10.6989083 23.1654933,10.6989083 23.2262014,10.6989083 C26.1723294,10.6989083 28.5685134,8.30272421 28.5685134,5.35659627 C28.5685134,2.41046832 26.1723294,0.0142842567 23.2262014,0.0142842567 Z M5.60299969,9.08478727 L5.52443628,9.08835833 C5.46372819,9.09192939 5.39944904,9.09192939 5.34231201,9.09192939 C3.28180798,9.09192939 1.60340782,7.41352923 1.60340782,5.3530252 C1.60340782,3.29252117 3.28180798,1.61412101 5.34231201,1.61412101 C5.39944904,1.61412101 5.46015713,1.61412101 5.52443628,1.61769207 L5.60299969,1.62126314 L5.65656566,1.61412101 L12.7486991,1.61412101 L12.7486991,0.0107131925 L5.62799714,0.0107131925 C5.59942863,0.0107131925 5.56728905,0.0107131925 5.53514947,0.0142842567 C5.47087032,0.0107131925 5.4030201,0.0107131925 5.34231201,0.0107131925 C2.39618406,0.0142842567 0,2.41046832 0,5.35659627 C0,8.30272421 2.39618406,10.6989083 5.34231201,10.6989083 C5.40659116,10.6989083 5.47087032,10.6989083 5.53514947,10.6953372 C5.56728905,10.6989083 5.59585757,10.6989083 5.62799714,10.6989083 L12.741557,10.6989083 L12.741557,9.09550046 L5.66013672,9.09550046 L5.60299969,9.08478727 Z" id="形状" fill-rule="nonzero"></path>
                    <polygon id="路径" points="8.38842975 4.34955617 20.1800837 4.34955617 20.1800837 5.95296398 8.38842975 5.95296398"></polygon>
                </g>
            </g>
        </g>
    </g>
</svg>