<svg width="68" height="66" xmlns="http://www.w3.org/2000/svg">
  <g fill="none" fill-rule="evenodd">
    <path fill="#1B9CCE" fill-rule="nonzero" d="M34.298 0l26.814 12.913 6.623 29.016L49.18 65.2H19.416L.86 41.929l6.623-29.016z"/>
    <path d="M43.709 33.761c.464 0 .894.192.894.192.655.291 1.19.725 1.19.008V28.81c0-.717-.586-1.303-1.303-1.303h-5.152c-.717 0-.108-.567.078-1.259 0 0 .122-.451.122-.826a3.388 3.388 0 00-6.777 0c0 .437.11.83.11.83.193.69.807 1.255.09 1.255H27.81c-.716 0-1.303.586-1.303 1.303v5.413c0 .716-.539.03-1.198-.254 0 0-.482-.207-.887-.207a3.388 3.388 0 100 6.777c.33 0 .88-.226.88-.226.662-.273 1.205-.952 1.205-.235v5.413c0 .717.587 1.303 1.303 1.303h5.152c.717 0 .282-.535-.01-1.19 0 0-.19-.424-.19-.895a3.388 3.388 0 116.777 0c0 .503-.18.9-.18.9-.298.652-.737 1.185-.02 1.185h5.152c.717 0 1.303-.586 1.303-1.303v-5.152c0-.717-.536-.284-1.192.005 0 0-.441.195-.893.195a3.389 3.389 0 110-6.777z" fill="#FFF"/>
  </g>
</svg>
