<?xml version="1.0" encoding="UTF-8"?>
<svg width="68px" height="66px" viewBox="0 0 68 66" version="1.1" xmlns="http://www.w3.org/2000/svg" xmlns:xlink="http://www.w3.org/1999/xlink">
    <!-- Generator: Sketch 52.5 (67469) - http://www.bohemiancoding.com/sketch -->
    <title>33</title>
    <desc>Created with Sketch.</desc>
    <g id="test" stroke="none" stroke-width="1" fill="none" fill-rule="evenodd">
        <g id="icon" transform="translate(-924.000000, -530.000000)">
            <g id="33" transform="translate(924.000000, 530.000000)">
                <polygon id="多边形" fill="#1B9CCE" fill-rule="nonzero" points="34.2975207 0 61.1124021 12.9133663 67.7351309 41.929437 49.1786572 65.198519 19.4163842 65.198519 0.85991045 41.929437 7.48263924 12.9133663"></polygon>
                <g id="拼图" transform="translate(21.000000, 22.000000)" fill="#FFFFFF">
                    <path d="M22.7085284,11.7613188 C23.1733148,11.7613188 23.6027845,11.9525635 23.6027845,11.9525635 C24.2575776,12.2439591 24.7933884,12.67799 24.7933884,11.9612949 L24.7933884,6.809092 C24.7933884,6.09239691 24.207274,5.50576123 23.4900577,5.50576123 L18.3381154,5.50576123 C17.6214203,5.50576123 18.2298194,4.93945548 18.4164377,4.24739088 C18.4164377,4.24739088 18.5378308,3.79596225 18.5378308,3.42064052 C18.5378308,1.54930985 17.0207752,0.032449691 15.14964,0.032449691 C13.2785048,0.032449691 11.7614492,1.54930985 11.7614492,3.42064052 C11.7614492,3.85760363 11.8712438,4.25077921 11.8712438,4.25077921 C12.0641826,4.94114964 12.6779249,5.50576123 11.9612298,5.50576123 L6.80922232,5.50576123 C6.09252723,5.50576123 5.50589155,6.09239691 5.50589155,6.809092 L5.50589155,12.2216744 C5.50589155,12.9384346 4.96708333,12.2511919 4.30844582,11.9682671 C4.30844582,11.9682671 3.82580554,11.7613188 3.4205102,11.7613188 C1.54944017,11.7613188 0.032319371,13.2779184 0.032319371,15.1495097 C0.032319371,17.0208403 1.54944017,18.5379611 3.4205102,18.5379611 C3.75080636,18.5379611 4.30023566,18.3121165 4.30023566,18.3121165 C4.96323889,18.0393567 5.50589155,17.3603892 5.50589155,18.0773449 L5.50589155,23.490188 C5.50589155,24.2066876 6.09252723,24.7933233 6.80922232,24.7933233 L11.9611646,24.7933233 C12.6778597,24.7933233 12.2430469,24.2577079 11.9509997,23.6033709 C11.9509997,23.6033709 11.7614492,23.1785276 11.7614492,22.7082026 C11.7614492,20.8368719 13.2785048,19.3197511 15.14964,19.3197511 C17.0207752,19.3197511 18.5378308,20.8368719 18.5378308,22.7082026 C18.5378308,23.2111728 18.3574027,23.607476 18.3574027,23.607476 C18.0600124,24.2598582 17.6213551,24.7933233 18.3380502,24.7933233 L23.4899925,24.7933233 C24.2072089,24.7933233 24.7933233,24.2066876 24.7933233,23.490188 L24.7933233,18.3377896 C24.7933233,17.6210293 24.2569911,18.0536919 23.6012207,18.342872 C23.6012207,18.342872 23.1596964,18.5380263 22.7084632,18.5380263 C20.8368719,18.5380263 19.3197511,17.0209055 19.3197511,15.1495748 C19.3198162,13.2778532 20.836937,11.7613188 22.7085284,11.7613188 Z" id="路径"></path>
                </g>
            </g>
        </g>
    </g>
</svg>