<?xml version="1.0" encoding="UTF-8"?>
<svg width="68px" height="66px" viewBox="0 0 68 66" version="1.1" xmlns="http://www.w3.org/2000/svg" xmlns:xlink="http://www.w3.org/1999/xlink">
    <!-- Generator: Sketch 52.5 (67469) - http://www.bohemiancoding.com/sketch -->
    <title>1</title>
    <desc>Created with Sketch.</desc>
    <g id="test" stroke="none" stroke-width="1" fill="none" fill-rule="evenodd">
        <g id="icon" transform="translate(-57.000000, -273.000000)" fill-rule="nonzero">
            <g id="1" transform="translate(56.000000, 273.000000)">
                <polygon id="多边形" fill="#1B9CCE" points="34.8264463 0.454545455 61.6413277 13.3679118 68.2640565 42.3839824 49.7075828 65.6530645 19.9453098 65.6530645 1.38883607 42.3839824 8.01156486 13.3679118"></polygon>
                <g id="功能时钟" transform="translate(22.016529, 21.942149)">
                    <path d="M5.93222264,8.88651336 L0.801620681,8.88651336 C0.5859158,8.89094086 0.380847091,8.98105661 0.231705994,9.13695764 C0.082564896,9.29285867 0.0016220727,9.50171815 0.00675454154,9.71740741 L0.00675454154,15.1384845 C0.00192729456,15.3541725 0.0831589131,15.5629098 0.232509888,15.7185981 C0.381860864,15.8742865 0.587044249,15.9641176 0.802746543,15.9682527 L5.93222264,15.9682527 C6.14782707,15.96382 6.35283438,15.8738963 6.50212171,15.7182743 C6.65140905,15.5626523 6.73274047,15.354087 6.72821464,15.1384845 L6.72821464,9.71740741 C6.73701352,9.26867233 6.38093596,8.89748539 5.93222264,8.88763922 L5.93222264,8.88651336 Z M5.93222264,17.6863345 L0.801620681,17.6863345 C0.585915796,17.690762 0.380847083,17.7808777 0.231705985,17.9367788 C0.0825648865,18.0926798 0.00162206605,18.3015393 0.00675454142,18.5172286 L0.00675454142,23.9394316 C0.00192563595,24.1549282 0.0830035809,24.3634973 0.232112193,24.5191532 C0.381220804,24.674809 0.586115458,24.7647694 0.801620681,24.7691998 L5.93222264,24.7691998 C6.14772556,24.7650619 6.35273509,24.6753861 6.50205358,24.5199429 C6.65137206,24.3644996 6.73273861,24.1560526 6.72821464,23.9405574 L6.72821464,18.5172286 C6.73639094,18.068737 6.38066679,17.6979185 5.93222264,17.6874604 L5.93222264,17.6863345 Z M14.3391142,8.89439446 L9.210764,8.89439446 C8.9950617,8.89852961 8.78987831,8.98836069 8.64052733,9.14404905 C8.49117635,9.29973741 8.40994473,9.50847473 8.41477197,9.72416265 L8.41477197,15.1452398 C8.40994473,15.3609277 8.49117635,15.569665 8.64052733,15.7253534 C8.78987831,15.8810418 8.9950617,15.9708728 9.210764,15.975008 L14.3391142,15.975008 C14.5546194,15.9705777 14.7595141,15.8806173 14.9086227,15.7249614 C15.0577313,15.5693055 15.1388093,15.3607365 15.1339804,15.1452398 L15.1339804,9.71740741 C15.1388093,9.50191075 15.0577313,9.29334168 14.9086227,9.1376858 C14.7595141,8.98202993 14.5546194,8.89206953 14.3391142,8.88763922 L14.3391142,8.89439446 Z M14.3391142,17.6942156 L9.210764,17.6942156 C8.9950617,17.6983508 8.78987831,17.7881818 8.64052733,17.9438702 C8.49117635,18.0995586 8.40994473,18.3082959 8.41477197,18.5239838 L8.41477197,23.9461868 C8.40849373,24.3927946 8.76419544,24.760571 9.210764,24.7691998 L14.3391142,24.7691998 C14.5544201,24.7647671 14.759141,24.674962 14.9082173,24.5195511 C15.0572935,24.3641403 15.1385062,24.1558613 15.1339804,23.9405574 L15.1339804,18.5172286 C15.1427848,18.0689231 14.7873842,17.697917 14.3391142,17.6874604 L14.3391142,17.6942156 Z M22.8507119,0 L17.7234876,0 C17.5077853,0.00413515586 17.3026019,0.0939662374 17.1532509,0.249654597 C17.0039,0.405342956 16.9226683,0.614080277 16.9274956,0.829768192 L16.9274956,6.25309708 C16.9229716,6.46859223 17.0043382,6.6770392 17.1536567,6.83248249 C17.3029751,6.98792578 17.5079847,7.07760157 17.7234876,7.08173938 L22.8529637,7.08173938 C23.0686635,7.07789699 23.2739619,6.9883507 23.4235228,6.83287492 C23.5730837,6.67739914 23.654604,6.46878375 23.6500816,6.25309708 L23.6500816,0.82864233 C23.6563728,0.379786156 23.2995041,0.00984902741 22.8507119,0 Z M22.8507119,8.89439446 L17.7234876,8.89439446 C17.5077853,8.89852962 17.3026019,8.9883607 17.1532509,9.14404906 C17.0039,9.29973742 16.9226683,9.50847474 16.9274956,9.72416265 L16.9274956,15.1452398 C16.9226683,15.3609277 17.0039,15.569665 17.1532509,15.7253534 C17.3026019,15.8810417 17.5077853,15.9708728 17.7234876,15.975008 L22.8529637,15.975008 C23.0700654,15.9711951 23.27659,15.880563 23.4263807,15.7233674 C23.5761714,15.5661718 23.6567405,15.3555176 23.6500816,15.1384845 L23.6500816,9.71740741 C23.6576182,9.26787057 23.300217,8.89687812 22.8507119,8.88763922 L22.8507119,8.89439446 Z M22.8507119,17.6942156 L17.7234876,17.6942156 C17.5077853,17.6983508 17.3026019,17.7881819 17.1532509,17.9438702 C17.0039,18.0995586 16.9226683,18.3082959 16.9274956,18.5239838 L16.9274956,23.9461868 C16.9229716,24.161682 17.0043382,24.3701289 17.1536567,24.5255722 C17.3029751,24.6810155 17.5079847,24.7706913 17.7234876,24.7748291 L22.8529637,24.7748291 C23.0698643,24.7710107 23.2762125,24.6805337 23.4259701,24.5235843 C23.5757277,24.3666349 23.6564336,24.1562727 23.6500816,23.9394316 L23.6500816,18.5172286 C23.6569978,18.0679362 23.2999496,17.6973101 22.8507119,17.6874604 L22.8507119,17.6942156 Z" id="形状" fill="#FFFFFF"></path>
                    <path d="M19.4214876,14.0495868 C15.9983536,14.0495868 13.2231405,16.8247998 13.2231405,20.2479339 C13.2231405,23.6710679 15.9983536,26.446281 19.4214876,26.446281 C22.8446216,26.446281 25.6198347,23.6710679 25.6198347,20.2479339 C25.6198347,16.8247998 22.8446216,14.0495868 19.4214876,14.0495868 Z" id="形状" stroke="#4093FF" fill="#FFFFFF"></path>
                    <path d="M21.442972,22.4223189 L21.2619851,22.6024826 C21.1115662,22.7528893 20.8578456,22.7594993 20.7000056,22.617361 L18.6231357,20.8322371 C18.4644604,20.6909099 18.3437984,20.3999992 18.3545487,20.187609 L18.5710792,16.7603346 C18.5818174,16.5479323 18.7644628,16.3735432 18.9776884,16.3735432 L19.2322322,16.3735432 C19.4454578,16.3735432 19.6281032,16.5471091 19.6388414,16.7603346 L19.8157122,19.5669389 C19.8264503,19.7801645 19.9512405,20.0842951 20.0925676,20.2429704 L21.4586737,21.8595041 C21.6000008,22.0181794 21.5933909,22.2719 21.442972,22.4223189 Z" id="路径" fill="#4093FF"></path>
                </g>
            </g>
        </g>
    </g>
</svg>