<svg width="68" height="66" xmlns="http://www.w3.org/2000/svg">
  <g fill-rule="nonzero" fill="none">
    <path fill="#1B9CCE" d="M33.826.455l26.815 12.913 6.623 29.016-18.556 23.27H18.945L.39 42.383l6.623-29.016z"/>
    <path d="M26.949 30.829h-5.13a.812.812 0 00-.796.83v5.422a.812.812 0 00.796.83h5.13a.813.813 0 00.796-.83V31.66a.814.814 0 00-.796-.83v-.001zm0 8.8h-5.13a.812.812 0 00-.796.83v5.423a.812.812 0 00.795.83h5.13a.812.812 0 00.797-.83V40.46a.815.815 0 00-.796-.83zm8.407-8.792h-5.129a.812.812 0 00-.796.83v5.42a.812.812 0 00.796.83h5.129a.812.812 0 00.795-.83V31.66a.812.812 0 00-.795-.83v.007zm0 8.8h-5.129a.812.812 0 00-.796.83v5.421a.812.812 0 00.796.823h5.129a.812.812 0 00.795-.828v-5.424a.814.814 0 00-.795-.83v.007zm8.511-17.695H38.74a.812.812 0 00-.796.83v5.423a.812.812 0 00.796.829h5.13a.812.812 0 00.797-.829v-5.424a.817.817 0 00-.8-.829zm0 8.895H38.74a.812.812 0 00-.796.83v5.42a.812.812 0 00.796.83h5.13a.812.812 0 00.797-.836V31.66a.816.816 0 00-.8-.83v.007zm0 8.8H38.74a.812.812 0 00-.796.83v5.421a.812.812 0 00.796.829h5.13a.812.812 0 00.797-.835v-5.423a.817.817 0 00-.8-.83v.007z" fill="#FFF"/>
    <path d="M40.438 35.992a6.198 6.198 0 100 12.397 6.198 6.198 0 000-12.397z" stroke="#4093FF" fill="#FFF"/>
    <path d="M42.46 44.364l-.181.18a.415.415 0 01-.562.016l-2.077-1.786a.92.92 0 01-.269-.644l.217-3.428a.413.413 0 01.406-.386h.255c.213 0 .396.173.406.386l.177 2.807c.011.213.136.517.277.676l1.366 1.617a.417.417 0 01-.015.562z" fill="#4093FF"/>
  </g>
</svg>
