<svg width="68" height="67" xmlns="http://www.w3.org/2000/svg">
  <g fill="none" fill-rule="evenodd">
    <path fill="#1B9CCE" fill-rule="nonzero" d="M33.826.835l26.815 12.913 6.623 29.016-18.556 23.27H18.945L.39 42.763l6.623-29.016z"/>
    <path d="M45.958 39.884c-.51-.218-1.383.145-1.528.582-1.602 4.004-5.387 6.551-9.681 6.551-5.678 0-10.336-4.658-10.336-10.409 0-5.75 4.658-10.408 10.409-10.408 1.965 0 3.857.51 5.459 1.601 0 0 .073 0 .073.073l-2.694 1.019c-.436.146-.8.946-.582 1.383.146.364.655.728 1.02.728.072 0 .363 0 .436-.073l5.022-2.184a.88.88 0 00.51-.51c.073-.218.145-.509 0-.727l-1.747-4.95c-.146-.51-.582-1.164-1.31-1.019-.51.073-.874.801-.728 1.238l1.019 2.766a12.863 12.863 0 00-6.551-1.82c-7.133-.146-12.884 5.677-12.884 12.738 0 7.133 5.75 12.883 12.811 12.883 5.24 0 9.972-3.202 11.865-8.08.218-.509-.073-1.237-.583-1.382z" fill="#FFF"/>
  </g>
</svg>
