<svg width="68" height="66" xmlns="http://www.w3.org/2000/svg">
  <g fill-rule="nonzero" fill="none">
    <path fill="#1B9CCE" d="M33.686.165L60.501 13.08l6.623 29.016-18.557 23.269H18.805L.248 42.094 6.871 13.08z"/>
    <path d="M44.718 21.782a.405.405 0 00-.303-.124H28.711a.396.396 0 00-.29.124.356.356 0 00-.123.29v5.524h-2.08a.405.405 0 00-.303.124.395.395 0 00-.11.289v5.193H23.82a.396.396 0 00-.29.124.356.356 0 00-.124.29v13.21c0 .11.042.207.124.29a.396.396 0 00.29.123h15.704c.124 0 .22-.04.303-.124a.445.445 0 00.11-.289v-5.193h1.984c.11 0 .207-.042.29-.124a.396.396 0 00.123-.29v-5.524h2.08c.124 0 .22-.04.303-.124a.445.445 0 00.11-.289v-13.21a.395.395 0 00-.11-.29zm-2.507 5.938a.396.396 0 00-.29-.124H29.125v-5.111h14.878v12.384h-1.667v-6.86a.356.356 0 00-.124-.29zm-.702.702v12.384h-1.57v-7.19a.395.395 0 00-.111-.29.405.405 0 00-.303-.124H26.63v-4.78h14.878z" fill="#FFF"/>
    <path d="M22.5 44.044h17.857" stroke="#1B9CCE" stroke-linecap="square"/>
  </g>
</svg>
