<?xml version="1.0" encoding="UTF-8"?>
<svg width="68px" height="66px" viewBox="0 0 68 66" version="1.1" xmlns="http://www.w3.org/2000/svg" xmlns:xlink="http://www.w3.org/1999/xlink">
    <!-- Generator: Sketch 52.5 (67469) - http://www.bohemiancoding.com/sketch -->
    <title>33333</title>
    <desc>Created with Sketch.</desc>
    <g id="test" stroke="none" stroke-width="1" fill="none" fill-rule="evenodd">
        <g id="icon" transform="translate(-556.000000, -301.000000)">
            <g id="33333" transform="translate(555.000000, 301.000000)">
                <polygon id="多边形" fill="#1B9CCE" fill-rule="nonzero" points="35 0.553719008 61.8148814 13.4670853 68.4376102 42.483156 49.8811365 65.752238 20.1188635 65.752238 1.56238979 42.483156 8.18511858 13.4670853"></polygon>
                <g id="组织箭头" transform="translate(18.057851, 21.214876)" fill="#FFFFFF">
                    <rect id="矩形" fill-rule="nonzero" x="9.09090909" y="0" width="16.5289256" height="10.7438017" rx="2"></rect>
                    <rect id="矩形" fill-rule="nonzero" x="0" y="20.661157" width="9.91735537" height="7.43801653" rx="2"></rect>
                    <rect id="矩形" fill-rule="nonzero" x="12.3966942" y="20.661157" width="9.91735537" height="7.43801653" rx="2"></rect>
                    <rect id="矩形" fill-rule="nonzero" x="24.7933884" y="20.661157" width="9.91735537" height="7.43801653" rx="2"></rect>
                    <path d="M20.4047118,14.8963013 L18.0434168,12.5350062 C17.8590008,12.3505902 17.5600561,12.3505902 17.3756401,12.5350062 L15.0143451,14.8963013 C14.8299291,15.0807173 14.8299291,15.3796619 15.0143451,15.5640779 C15.1987611,15.7484939 15.4977057,15.7484939 15.6821217,15.5640779 L17.2372777,14.0089219 L17.2372777,18.5359999 C17.2372777,18.7969243 17.4486179,19.0082645 17.7095422,19.0082645 C17.9704665,19.0082645 18.1818067,18.7969243 18.1818067,18.5359999 L18.1818067,14.0089219 L19.7369627,15.5640779 C19.8290515,15.6561759 19.9499535,15.7024495 20.0708556,15.7024495 C20.1917577,15.7024495 20.3126506,15.6564051 20.4047485,15.5640779 C20.5891645,15.3796619 20.5891645,15.0807173 20.4047485,14.8963013 L20.4047118,14.8963013 Z" id="路径" transform="translate(17.709547, 15.702479) scale(1, -1) translate(-17.709547, -15.702479) "></path>
                    <path d="M29.9424484,15.0437206 L27.5811533,12.6824256 C27.3967373,12.4980096 27.0977926,12.4980096 26.9133766,12.6824256 L24.5520816,15.0437206 C24.3676656,15.2281366 24.3676656,15.5270813 24.5520816,15.7114973 C24.7364976,15.8959133 25.0354422,15.8959133 25.2198582,15.7114973 L26.7750142,14.1563413 L26.7750142,18.6834193 C26.7750142,18.9443436 26.9863544,19.1556838 27.2472787,19.1556838 C27.5082031,19.1556838 27.7195432,18.9443436 27.7195432,18.6834193 L27.7195432,14.1563413 L29.2746992,15.7114973 C29.366788,15.8035952 29.4876901,15.8498689 29.6085921,15.8498689 C29.7294942,15.8498689 29.8503871,15.8038245 29.942485,15.7114973 C30.126901,15.5270813 30.126901,15.2281366 29.942485,15.0437206 L29.9424484,15.0437206 Z" id="路径" transform="translate(27.247283, 15.849899) scale(1, -1) rotate(30.000000) translate(-27.247283, -15.849899) "></path>
                    <path d="M10.1077376,15.0437206 L7.74644254,12.6824256 C7.56202655,12.4980096 7.26308189,12.4980096 7.07866589,12.6824256 L4.71737083,15.0437206 C4.53295483,15.2281366 4.53295483,15.5270813 4.71737083,15.7114973 C4.90178682,15.8959133 5.20073148,15.8959133 5.38514748,15.7114973 L6.94030346,14.1563413 L6.94030346,18.6834193 C6.94030346,18.9443436 7.15164364,19.1556838 7.41256797,19.1556838 C7.67349231,19.1556838 7.88483249,18.9443436 7.88483249,18.6834193 L7.88483249,14.1563413 L9.43998847,15.7114973 C9.53207725,15.8035952 9.65297932,15.8498689 9.77388138,15.8498689 C9.89478344,15.8498689 10.0156763,15.8038245 10.1077743,15.7114973 C10.2921903,15.5270813 10.2921903,15.2281366 10.1077743,15.0437206 L10.1077376,15.0437206 Z" id="路径" transform="translate(7.412573, 15.849899) scale(-1, -1) rotate(30.000000) translate(-7.412573, -15.849899) "></path>
                </g>
            </g>
        </g>
    </g>
</svg>