<svg width="68" height="66" xmlns="http://www.w3.org/2000/svg">
  <g fill="none" fill-rule="evenodd">
    <path fill="#1B9CCE" fill-rule="nonzero" d="M34 .554l26.815 12.913 6.623 29.016-18.557 23.27H19.12L.562 42.482l6.623-29.016z"/>
    <g transform="translate(17.058 21.215)" fill="#FFF">
      <rect fill-rule="nonzero" x="9.091" width="16.529" height="10.744" rx="2"/>
      <rect fill-rule="nonzero" y="20.661" width="9.917" height="7.438" rx="2"/>
      <rect fill-rule="nonzero" x="12.397" y="20.661" width="9.917" height="7.438" rx="2"/>
      <rect fill-rule="nonzero" x="24.793" y="20.661" width="9.917" height="7.438" rx="2"/>
      <path d="M20.405 16.509l-2.362 2.361a.472.472 0 01-.667 0l-2.362-2.361a.472.472 0 11.668-.668l1.555 1.555v-4.527a.472.472 0 11.945 0v4.527l1.555-1.555a.47.47 0 01.668 0 .472.472 0 010 .668zM29.984 15.2l-.864 3.226a.472.472 0 01-.578.334l-3.226-.864a.472.472 0 11.245-.913l2.124.57-2.263-3.92a.472.472 0 11.818-.473l2.263 3.92.57-2.124a.47.47 0 01.578-.334.472.472 0 01.333.578zM4.675 15.2l.865 3.226a.472.472 0 00.578.334l3.226-.864a.472.472 0 10-.245-.913l-2.124.57 2.263-3.92a.472.472 0 10-.818-.473l-2.263 3.92-.57-2.124a.47.47 0 00-.578-.334.472.472 0 00-.334.578z"/>
    </g>
  </g>
</svg>
