<?xml version="1.0" encoding="UTF-8"?>
<svg width="68px" height="66px" viewBox="0 0 68 66" version="1.1" xmlns="http://www.w3.org/2000/svg" xmlns:xlink="http://www.w3.org/1999/xlink">
    <!-- Generator: Sketch 52.5 (67469) - http://www.bohemiancoding.com/sketch -->
    <title>4</title>
    <desc>Created with Sketch.</desc>
    <g id="test" stroke="none" stroke-width="1" fill="none" fill-rule="evenodd">
        <g id="icon" transform="translate(-103.000000, -361.000000)" fill-rule="nonzero">
            <g id="4" transform="translate(102.000000, 361.000000)">
                <polygon id="多边形" fill="#1B9CCE" points="35.107438 0.0578512397 61.9223194 12.9712175 68.5450482 41.9872882 49.9885745 65.2563703 20.2263015 65.2563703 1.66982781 41.9872882 8.29255659 12.9712175"></polygon>
                <g id="左右箭头" transform="translate(16.512397, 23.198347)">
                    <path d="M5.57485634,5.56011105 L5.57485634,9.96130068 L9.09580804,9.96130068 L9.09580804,12.3086341 L5.72155863,12.3086341 L5.72155863,16.8565018 L0,11.1349674 L5.57485634,5.56011105 Z M28.9256198,12.3086341 L28.9256198,22.0890367 L7.43801653,22.0890367 L7.43801653,0.601433368 L28.9256198,0.601433368 L28.9256198,9.96130068 L30.7937032,9.96130068 L30.7937032,5.56011105 L36.3685353,11.1349674 L30.6469767,16.8565018 L30.6469767,12.3086341 L28.9256198,12.3086341 Z" id="形状" fill="#FFFFFF"></path>
                    <path d="M24.4364665,7.19197721 L18.6614356,9.54453264 L12.8728721,7.19197721 L18.647903,4.95867769 L24.4364665,7.19197721 Z M12.3971171,8.17012941 L18.1590383,10.5755465 L18.1590383,17.0906407 C17.7009039,16.8879338 17.225149,16.6764872 16.7317734,16.4563007 C16.3088801,16.2713554 15.8308697,16.0642787 15.2977423,15.8350705 C14.7646148,15.6058623 14.2293728,15.3767951 13.6920164,15.1478689 C13.4980493,15.0596251 13.3218438,14.9429066 13.1633998,14.7977132 C13.0049557,14.6525199 12.8683612,14.4939349 12.7536162,14.3219583 C12.6388711,14.1499816 12.5507683,13.9671508 12.4893078,13.7734656 C12.4278474,13.5797805 12.3969761,13.3903243 12.3966942,13.205097 L12.3966942,8.17012941 L12.3971171,8.17012941 Z M24.7933884,8.17012941 L24.7933884,13.1788777 C24.7933884,13.4080858 24.7492666,13.6305277 24.6610228,13.8462033 C24.5727791,14.0618789 24.4604304,14.2645857 24.3239769,14.4543239 C24.1875233,14.644062 24.0355636,14.8115277 23.8680979,14.9567211 C23.7006321,15.1019145 23.5376773,15.2142631 23.3792332,15.2937671 C22.912359,15.4877341 22.4233534,15.690441 21.9122164,15.9018876 C21.4010793,16.1133343 20.9296943,16.3071604 20.4980612,16.4833659 C19.9959459,16.6948126 19.5025703,16.8975194 19.0179346,17.0914865 L19.0179346,10.5763923 L24.7933884,8.17012941 Z" id="形状" fill="#1B9CCE"></path>
                </g>
            </g>
        </g>
    </g>
</svg>