<svg width="68" height="66" xmlns="http://www.w3.org/2000/svg">
  <g fill-rule="nonzero" fill="none">
    <path fill="#1B9CCE" d="M34.107.058L60.922 12.97l6.623 29.016-18.556 23.27H19.226L.67 41.986l6.623-29.016z"/>
    <path d="M21.087 28.758v4.402h3.521v2.347h-3.374v4.548l-5.722-5.722 5.575-5.575zm23.351 6.749v9.78H22.95V23.8h21.488v9.36h1.868v-4.402l5.575 5.575-5.722 5.722v-4.548h-1.721z" fill="#FFF"/>
    <path d="M39.949 30.39l-5.775 2.353-5.789-2.353 5.775-2.233 5.789 2.233zm-12.04.978l5.762 2.406v6.515l-1.427-.634c-.423-.185-.9-.392-1.434-.622-.533-.229-1.068-.458-1.606-.687a2.01 2.01 0 01-.528-.35 2.607 2.607 0 01-.41-.476 2.163 2.163 0 01-.264-.548 1.883 1.883 0 01-.093-.569v-5.035zm12.397 0v5.01c0 .228-.044.45-.133.667a2.954 2.954 0 01-.793 1.11c-.167.145-.33.258-.488.337a1047.151 1047.151 0 01-4.362 1.798v-6.515l5.776-2.407z" fill="#1B9CCE"/>
  </g>
</svg>
