<svg width="68" height="66" xmlns="http://www.w3.org/2000/svg">
  <g fill="none" fill-rule="evenodd">
    <path fill="#1B9CCE" fill-rule="nonzero" d="M34.124.43l26.815 12.913 6.623 29.016-18.557 23.27H19.243L.686 42.358 7.31 13.343z"/>
    <g fill="#FFF">
      <path d="M46.914 40.093l-5.608-3.739v2.335h-4.01l-2.456-3-1.811 2.214 2.517 3.076c.265.326.662.515 1.085.515h4.675v2.337l5.608-3.738zM28.22 28.407h-4.674a1.402 1.402 0 100 2.805h4.008l2.456 3 1.81-2.214-2.516-3.076a1.405 1.405 0 00-1.084-.515z" fill-rule="nonzero"/>
      <path d="M46.914 29.81l-5.608-3.739v2.335H36.63c-.423 0-.82.191-1.085.514l-7.992 9.77h-4.01c-.772 0-1.404.629-1.404 1.403 0 .775.632 1.4 1.404 1.4h4.674c.421 0 .818-.188 1.088-.514l7.99-9.768h4.01v2.337l5.608-3.739z"/>
    </g>
  </g>
</svg>
