<svg width="68" height="66" xmlns="http://www.w3.org/2000/svg">
  <g fill-rule="nonzero" fill="none">
    <path fill="#1B9CCE" d="M34.215.455L61.03 13.368l6.622 29.016-18.556 23.27H19.334L.777 42.383 7.4 13.368z"/>
    <path d="M28.164 31.655h-5.131a.812.812 0 00-.795.831v5.421a.812.812 0 00.796.83h5.13a.813.813 0 00.796-.83v-5.421a.814.814 0 00-.796-.83zm0 8.8h-5.131a.812.812 0 00-.795.83v5.423a.812.812 0 00.795.83h5.13a.812.812 0 00.797-.829v-5.423a.815.815 0 00-.796-.83v-.001zm8.407-8.792h-5.129a.812.812 0 00-.796.83v5.42a.812.812 0 00.796.83h5.129a.812.812 0 00.794-.83v-5.427a.812.812 0 00-.794-.83v.007zm0 8.8h-5.129a.812.812 0 00-.796.83v5.422a.812.812 0 00.796.823h5.129a.812.812 0 00.794-.829v-5.423a.814.814 0 00-.794-.83v.007zm8.511-17.694h-5.127a.812.812 0 00-.796.83v5.423a.812.812 0 00.796.828h5.13a.812.812 0 00.796-.828v-5.425a.817.817 0 00-.799-.828zm0 8.894h-5.127a.812.812 0 00-.796.83v5.42a.812.812 0 00.796.83h5.13a.812.812 0 00.796-.836v-5.421a.816.816 0 00-.799-.83v.007zm0 8.8h-5.127a.812.812 0 00-.796.83v5.422a.812.812 0 00.796.828h5.13a.812.812 0 00.796-.835v-5.422a.817.817 0 00-.799-.83v.007z" fill="#FFF"/>
  </g>
</svg>
