<?xml version="1.0" encoding="UTF-8"?>
<svg width="68px" height="66px" viewBox="0 0 68 66" version="1.1" xmlns="http://www.w3.org/2000/svg" xmlns:xlink="http://www.w3.org/1999/xlink">
    <!-- Generator: Sketch 52.5 (67469) - http://www.bohemiancoding.com/sketch -->
    <title>77777</title>
    <desc>Created with Sketch.</desc>
    <g id="test" stroke="none" stroke-width="1" fill="none" fill-rule="evenodd">
        <g id="icon" transform="translate(-815.000000, -216.000000)" fill-rule="nonzero">
            <g id="77777" transform="translate(814.000000, 216.000000)">
                <polygon id="多边形" fill="#1B9CCE" points="34.677686 0.429752066 61.4925674 13.3431184 68.1152962 42.3591891 49.5588225 65.6282711 19.7965494 65.6282711 1.24007574 42.3591891 7.86280453 13.3431184"></polygon>
                <g id="fangkuai" transform="translate(19.388430, 22.743802)" fill="#FFFFFF">
                    <path d="M3.54585712,0 L6.09626068,0 L6.09626068,0.486715847 L3.54585712,0.486715847 L3.54585712,0 Z M7.09168025,0 L9.64204982,0 L9.64204982,0.486715847 L7.09168025,0.486715847 L7.09168025,0 Z M10.6375034,0 L13.1879069,0 L13.1879069,0.486715847 L10.6375034,0.486715847 L10.6375034,0 Z M14.1833605,0 L16.7337301,0 L16.7337301,0.486715847 L14.1833605,0.486715847 L14.1833605,0 Z M17.7291836,0 L20.2795192,0 L20.2795192,0.486715847 L17.7291836,0.486715847 L17.7291836,0 Z M21.2750068,0 L23.8253763,0 L23.8253763,0.486715847 L21.2750068,0.486715847 L21.2750068,0 Z M24.8207959,0 L27.3711994,0 L27.3711994,0.486715847 L24.8207959,0.486715847 L24.8207959,0 Z M28.4083994,0 L28.4083994,0.486715847 L29.8429716,0.486715847 L29.8429716,1.60366632 L30.439659,1.60366632 L30.439659,0 L28.4083994,0 Z M29.8429716,24.2921682 L27.8892555,24.2921682 L27.8892555,24.778884 L30.439659,24.778884 L30.439659,22.6983194 L29.8429716,22.6983194 L29.8429716,24.2921682 Z M29.8429716,19.8056465 L30.4395911,19.8056465 L30.4395911,21.8862388 L29.8429716,21.8862388 L29.8429716,19.8056465 Z M29.8429716,16.913029 L30.4395911,16.913029 L30.4395911,18.9935937 L29.8429716,18.9935937 L29.8429716,16.913029 Z M29.8429716,14.0203561 L30.4395911,14.0203561 L30.4395911,16.1009485 L29.8429716,16.1009485 L29.8429716,14.0203561 Z M29.8429716,11.1277109 L30.4395911,11.1277109 L30.4395911,13.2082756 L29.8429716,13.2082756 L29.8429716,11.1277109 Z M29.8429716,8.23506573 L30.4395911,8.23506573 L30.4395911,10.3156581 L29.8429716,10.3156581 L29.8429716,8.23506573 Z M29.8429716,5.34239281 L30.4395911,5.34239281 L30.4395911,7.42298519 L29.8429716,7.42298519 L29.8429716,5.34239281 Z M29.8429716,2.44977536 L30.4395911,2.44977536 L30.4395911,4.53036774 L29.8429716,4.53036774 L29.8429716,2.44977536 Z M24.3433984,24.2921682 L26.8938019,24.2921682 L26.8938019,24.778884 L24.3433984,24.778884 L24.3433984,24.2921682 Z M20.7975752,24.2921682 L23.3479788,24.2921682 L23.3479788,24.778884 L20.7975752,24.778884 L20.7975752,24.2921682 Z M17.2517521,24.2921682 L19.8021557,24.2921682 L19.8021557,24.778884 L17.2517521,24.778884 L17.2517521,24.2921682 Z M13.705929,24.2921682 L16.2562985,24.2921682 L16.2562985,24.778884 L13.705929,24.778884 L13.705929,24.2921682 Z M10.1601059,24.2921682 L12.7105094,24.2921682 L12.7105094,24.778884 L10.1601059,24.778884 L10.1601059,24.2921682 Z M6.61428272,24.2921682 L9.16465229,24.2921682 L9.16465229,24.778884 L6.61428272,24.778884 L6.61428272,24.2921682 Z M3.0684256,24.2921682 L5.61882916,24.2921682 L5.61882916,24.778884 L3.0684256,24.778884 L3.0684256,24.2921682 Z M0,0 L0,2.08053691 L0.59665342,2.08053691 L0.59665342,0.486715847 L2.55043756,0.486715847 L2.55043756,0 L0.59665342,0 L0,0 Z M0,2.89264518 L0.59665342,2.89264518 L0.59665342,4.97320983 L3.39954088e-05,4.97320983 L3.39954088e-05,2.89264518 L0,2.89264518 Z M0,5.78529037 L0.59665342,5.78529037 L0.59665342,7.86588274 L3.39954088e-05,7.86588274 L3.39954088e-05,5.78529037 L0,5.78529037 Z M0,8.67793555 L0.59665342,8.67793555 L0.59665342,10.7585002 L3.39954088e-05,10.7585002 L3.39954088e-05,8.67796328 L0,8.67793555 Z M0,11.570553 L0.59665342,11.570553 L0.59665342,13.6511454 L3.39954088e-05,13.6511454 L3.39954088e-05,11.5705253 L0,11.570553 Z M0,14.4632259 L0.59665342,14.4632259 L0.59665342,16.5437906 L3.39954088e-05,16.5437906 L3.39954088e-05,14.4632259 L0,14.4632259 Z M0,17.3558711 L0.59665342,17.3558711 L0.59665342,19.4364635 L3.39954088e-05,19.4364635 L3.39954088e-05,17.3558711 L0,17.3558711 Z M0,20.2484885 L0.59665342,20.2484885 L0.59665342,22.3291087 L3.39954088e-05,22.3291087 L3.39954088e-05,20.2484885 L0,20.2484885 Z M0.59665342,23.17519 L3.39954088e-05,23.17519 L3.39954088e-05,24.778884 L2.03125967,24.778884 L2.03125967,24.2921682 L0.59665342,24.2921682 L0.59665342,23.17519 Z" id="形状"></path>
                    <rect id="矩形" x="0" y="9.91735537" width="18.2351373" height="14.8760331"></rect>
                </g>
            </g>
        </g>
    </g>
</svg>