<svg width="68" height="66" xmlns="http://www.w3.org/2000/svg">
  <g fill-rule="nonzero" fill="none">
    <path fill="#1B9CCE" d="M33.678.43l26.815 12.913 6.622 29.016L48.56 65.63H18.797L.24 42.358l6.623-29.016z"/>
    <g fill="#FFF">
      <path d="M21.934 22.744h2.55v.487h-2.55v-.487zm3.546 0h2.55v.487h-2.55v-.487zm3.546 0h2.55v.487h-2.55v-.487zm3.546 0h2.55v.487h-2.55v-.487zm3.546 0h2.55v.487h-2.55v-.487zm3.545 0h2.55v.487h-2.55v-.487zm3.546 0h2.55v.487h-2.55v-.487zm3.588 0v.487h1.434v1.116h.597v-1.603h-2.031zm1.434 24.292h-1.953v.487h2.55v-2.08h-.597v1.593zm0-4.487h.597v2.081h-.597v-2.08zm0-2.892h.597v2.08h-.597v-2.08zm0-2.893h.597v2.08h-.597v-2.08zm0-2.892h.597v2.08h-.597v-2.08zm0-2.893h.597v2.08h-.597v-2.08zm0-2.893h.597v2.08h-.597v-2.08zm0-2.892h.597v2.08h-.597v-2.08zm-5.5 21.842h2.551v.487h-2.55v-.487zm-3.545 0h2.55v.487h-2.55v-.487zm-3.546 0h2.55v.487h-2.55v-.487zm-3.546 0h2.55v.487h-2.55v-.487zm-3.545 0h2.55v.487h-2.55v-.487zm-3.546 0h2.55v.487h-2.55v-.487zm-3.546 0h2.55v.487h-2.55v-.487zm-3.069-24.292v2.08h.597v-1.593h1.954v-.487h-2.551zm0 2.892h.597v2.081h-.597v-2.08zm0 2.893h.597v2.08h-.597v-2.08zm0 2.893h.597v2.08h-.597v-2.08zm0 2.892h.597v2.08h-.597v-2.08zm0 2.893h.597v2.08h-.597v-2.08zm0 2.893h.597v2.08h-.597V40.1zm0 2.892h.597v2.08h-.597v-2.08zm.597 2.927h-.597v1.604h2.032v-.487h-1.435v-1.117z"/>
      <path d="M18.388 32.66h18.235v14.877H18.388z"/>
    </g>
  </g>
</svg>
