<svg width="68" height="66" xmlns="http://www.w3.org/2000/svg">
  <g fill-rule="nonzero" fill="none">
    <path fill="#1B9CCE" d="M34 .43l26.815 12.913 6.623 29.016L48.88 65.63H19.12L.562 42.358l6.623-29.016z"/>
    <g transform="translate(19.537 21.09)">
      <circle fill="#FFF" cx="12.397" cy="12.397" r="12.397"/>
      <path d="M28.791 16.958h-.95v-1.91a4.28 4.28 0 00-4.294-4.304 4.28 4.28 0 00-4.294 4.305v1.909h-.948c-.52 0-.95.43-.95.95v7.649c0 .52.43.95.95.95h10.486c.531 0 .961-.43.961-.95v-7.65a.96.96 0 00-.96-.95z" stroke="#1B9CCE" fill="#FFF"/>
      <path d="M25.58 16.403h-4.065v-1.357c0-1.125.916-2.04 2.032-2.04a2.041 2.041 0 012.033 2.04v1.357z" stroke="#1B9CCE" fill="#1B9CCE"/>
      <path d="M12.777 9.491l-2.466-2.46-2.466 2.46h1.85v4.322h1.232V9.491h1.85zm1.233 8.638l2.466-2.46h-1.85v-4.322h-1.232v4.322h-1.85l2.466 2.46z" fill="#1B9CCE"/>
    </g>
  </g>
</svg>
