<?xml version="1.0" encoding="UTF-8"?>
<svg width="68px" height="66px" viewBox="0 0 68 66" version="1.1" xmlns="http://www.w3.org/2000/svg" xmlns:xlink="http://www.w3.org/1999/xlink">
    <!-- Generator: Sketch 52.5 (67469) - http://www.bohemiancoding.com/sketch -->
    <title>11111</title>
    <desc>Created with Sketch.</desc>
    <g id="test" stroke="none" stroke-width="1" fill="none" fill-rule="evenodd">
        <g id="icon" transform="translate(-556.000000, -216.000000)" fill-rule="nonzero">
            <g id="11111" transform="translate(555.000000, 216.000000)">
                <polygon id="多边形" fill="#1B9CCE" points="35 0.429752066 61.8148814 13.3431184 68.4376102 42.3591891 49.8811365 65.6282711 20.1188635 65.6282711 1.56238979 42.3591891 8.18511858 13.3431184"></polygon>
                <g id="shangchuansuo" transform="translate(20.537190, 21.090909)">
                    <circle id="椭圆形" fill="#FFFFFF" cx="12.3966942" cy="12.3966942" r="12.3966942"></circle>
                    <path d="M28.7912042,16.9579006 L27.8413685,16.9579006 L27.8413685,15.0487782 C27.8413685,12.6529241 25.9322461,10.7438017 23.5474183,10.7438017 C21.1625904,10.7438017 19.253468,12.6529241 19.253468,15.0487782 L19.253468,16.9579006 L18.3052075,16.9579006 C17.785397,16.9579006 17.3553719,17.3879257 17.3553719,17.9077363 L17.3553719,25.5568274 C17.3553719,26.076638 17.785397,26.5066631 18.3052075,26.506663 L28.7912042,26.506663 C29.322041,26.506663 29.7520661,26.0766379 29.7520661,25.5568274 L29.7520661,17.9077363 C29.7504909,17.3879257 29.322041,16.9579006 28.7912042,16.9579006 Z" id="形状" stroke="#1B9CCE" fill="#FFFFFF"></path>
                    <path d="M25.5799304,16.4028387 L21.5149065,16.4028387 L21.5149065,15.045591 C21.5149065,13.9212703 22.4309367,13.0052401 23.5474185,13.0052401 C24.6706193,13.0097195 25.5799304,13.9223901 25.5799304,15.045591 L25.5799304,16.4028387 Z" id="路径" stroke="#1B9CCE" fill="#1B9CCE"></path>
                    <path d="M9.07162524,11.9637936 L6.61157025,14.4300142 L9.07162524,16.8962347 L9.07162524,15.0465693 L13.3936767,15.0465693 L13.3936767,13.813459 L9.07162524,13.813459 L9.07162524,11.9637936 Z M17.7095627,10.7306834 L15.2495077,8.26446281 L15.2495077,10.1141282 L10.9274562,10.1141282 L10.9274562,11.3472385 L15.2495077,11.3472385 L15.2495077,13.1969039 L17.7095627,10.7306834 Z" id="形状" fill="#1B9CCE" transform="translate(12.160566, 12.580349) rotate(90.000000) translate(-12.160566, -12.580349) "></path>
                </g>
            </g>
        </g>
    </g>
</svg>