<?xml version="1.0" encoding="UTF-8"?>
<svg width="68px" height="66px" viewBox="0 0 68 66" version="1.1" xmlns="http://www.w3.org/2000/svg" xmlns:xlink="http://www.w3.org/1999/xlink">
    <!-- Generator: Sketch 52.5 (67469) - http://www.bohemiancoding.com/sketch -->
    <title>22</title>
    <desc>Created with Sketch.</desc>
    <g id="test" stroke="none" stroke-width="1" fill="none" fill-rule="evenodd">
        <g id="icon" transform="translate(-924.000000, -445.000000)" fill-rule="nonzero">
            <g id="22" transform="translate(924.000000, 445.000000)">
                <polygon id="多边形" fill="#1B9CCE" points="34.2975207 0 61.1124021 12.9133663 67.7351309 41.929437 49.1786572 65.198519 19.4163842 65.198519 0.85991045 41.929437 7.48263924 12.9133663"></polygon>
                <g id="组合" transform="translate(18.000000, 19.000000)">
                    <polygon id="多边形" fill="#FFFFFF" points="16.5289256 0 29.45176 6.22330906 32.6434366 20.2069576 23.7005577 31.420973 9.35729357 31.420973 0.414414675 20.2069576 3.6060912 6.22330906"></polygon>
                    <path d="M12.672234,9.38731449 L15.6979402,10.867814 L15.6979402,7.39088332 L12.6713712,5.94489428 L12.6713712,9.38731449 L12.672234,9.38731449 Z M16.267363,7.42625655 L16.267363,10.8729906 L19.2525194,9.42700153 L19.2525194,5.96732609 L16.267363,7.4253938 L16.267363,7.42625655 Z M16.0042207,4.1322314 L13.0578886,5.5385334 L16.0042207,6.94483538 L18.9117285,5.5385334 L16.0033579,4.1322314 L16.0042207,4.1322314 Z M9.09090909,15.3032732 L12.1166153,16.7846355 L12.1166153,13.3077048 L9.09090909,11.8617158 L9.09090909,15.304136 L9.09090909,15.3032732 Z M12.6860382,13.3422153 L12.6860382,16.7889493 L15.6711945,15.3429603 L15.6711945,11.8832848 L12.6860382,13.3422153 Z M12.4228958,10.0481901 L9.47656369,11.4544921 L12.4228958,12.8616569 L15.3304036,11.4553549 L12.4228958,10.0490529 L12.4228958,10.0481901 Z M16.3139522,15.3032732 L19.3396584,16.7846355 L19.3396584,13.3077048 L16.3139522,11.8617158 L16.3139522,15.304136 L16.3139522,15.3032732 Z M19.9090813,13.3422153 L19.9090813,16.7889493 L22.8951004,15.3429603 L22.8951004,11.8832848 L19.909944,13.3422153 L19.9090813,13.3422153 Z M19.6459389,10.0481901 L16.7004696,11.4544921 L19.6468016,12.8616569 L22.5543094,11.4553549 L19.6468016,10.0490529 L19.6459389,10.0481901 Z" id="形状" fill="#1B9CCE"></path>
                    <path d="M23.4686177,24.712755 C23.7373387,24.712755 23.9572235,24.4928703 23.9572235,24.2241493 L23.9572235,23.5727559 C23.9572235,23.3045208 23.7375817,23.0841501 23.4686177,23.0841501 L23.1313801,23.0841501 C22.863145,23.0841501 22.5849483,22.9062986 22.5159458,22.6890865 C22.4459714,22.4716314 22.3271608,21.7937547 22.5176466,21.6039978 L22.7569686,21.3651617 C22.9464826,21.1749188 22.9464826,20.8641646 22.7569686,20.6739218 L22.2970329,20.2137431 C22.1070331,20.0235003 21.7955499,20.0235003 21.606036,20.2137431 L21.365985,20.4535511 C21.1764711,20.643065 20.857213,20.7132824 20.6574945,20.6097786 C20.458019,20.5057889 19.8868046,20.1078097 19.8868046,19.8388457 L19.8868046,19.5008792 C19.8868046,19.2324011 19.6669198,19.0122734 19.3981988,19.0122734 L18.7463195,19.0122734 C18.4773555,19.0122734 18.2577137,19.2321582 18.2577137,19.5008792 L18.2577137,19.8386027 C18.2577137,20.1073237 18.0801052,20.3850345 17.8624071,20.45428 C17.645438,20.5240114 16.9678042,20.642822 16.7787762,20.4528222 L16.5379964,20.2127712 C16.3484824,20.0222854 16.0369993,20.0225284 15.8472424,20.2127712 L15.3875497,20.6731929 C15.1973069,20.8636787 15.1973069,21.1744329 15.3875497,21.3644328 L15.6263858,21.6039978 C15.8173575,21.7937547 15.886846,22.1125268 15.7833422,22.3124883 C15.6786236,22.5119639 15.2804014,23.0839072 15.0116804,23.0839072 L14.6737139,23.0834212 C14.4047499,23.0834212 14.1851081,23.3035489 14.1851081,23.572027 L14.1851081,24.2239063 C14.1851081,24.4921414 14.4045069,24.7125121 14.6737139,24.7125121 L15.0116804,24.7125121 C15.2804014,24.7125121 15.5581122,24.8896347 15.6276006,25.1073327 C15.697575,25.3247878 15.8158997,26.0021786 15.6256569,26.1916925 L15.3858489,26.4312576 C15.1956061,26.6212574 15.1956061,26.9320117 15.3858489,27.1222545 L15.8465135,27.5829191 C16.0365134,27.7729189 16.3482395,27.7729189 16.5375104,27.5829191 L16.7775614,27.34384 C16.9668324,27.1543261 17.2860904,27.0836228 17.4860519,27.1871266 C17.6852845,27.2916022 18.2564989,27.6888525 18.2564989,27.9578165 L18.2564989,28.29554 C18.2564989,28.5637751 18.4763836,28.7841458 18.7451047,28.7841458 L19.396741,28.7841458 C19.665705,28.7841458 19.8853468,28.5640181 19.8853468,28.29554 L19.8853468,27.9583024 C19.8853468,27.6895814 20.0634413,27.4121136 20.2813823,27.3423822 C20.4985944,27.2731367 21.1767141,27.1543261 21.3657421,27.3443259 L21.606036,27.5829191 C21.795064,27.7729189 22.1070331,27.7729189 22.29679,27.5829191 L22.7574546,27.1234693 C22.9469685,26.9332265 22.9469685,26.6222293 22.7574546,26.4324724 L22.5181325,26.1921785 C22.3276467,26.0031505 22.2571864,25.6836494 22.3611761,25.4844168 C22.4651658,25.2844554 22.863388,24.7125121 23.1318661,24.712998 L23.4686177,24.712998 L23.4686177,24.712755 Z M19.0714088,26.0152988 C17.9020107,26.0152988 16.9537122,25.0667573 16.9537122,23.8980881 C16.9537122,22.72869 17.9022536,21.7806345 19.0714088,21.7806345 C20.2410498,21.7806345 21.1895913,22.7284471 21.1895913,23.8980881 C21.1895913,25.0670003 20.2410498,26.0152988 19.0714088,26.0152988 Z" id="形状" fill="#1B9CCE" transform="translate(19.071166, 23.898210) scale(-1, 1) translate(-19.071166, -23.898210) "></path>
                    <path d="M13.7702022,22.1553699 C13.9048057,22.1558559 14.0146266,22.045792 14.0146266,21.9116745 L14.0146266,21.5858563 C14.0146266,21.4514958 13.9048057,21.3414319 13.7702022,21.3414319 L13.6030412,21.3414319 C13.4689237,21.3414319 13.3301898,21.2525062 13.2947166,21.1441431 C13.2592435,21.035537 13.1999597,20.6963557 13.2952026,20.6008698 L13.4149851,20.4813303 C13.5097421,20.3865733 13.5097421,20.2315606 13.4149851,20.1358318 L13.1853817,19.9059854 C13.0898958,19.8107425 12.9343972,19.8107425 12.8398832,19.9059854 L12.7203437,20.0260109 C12.6248578,20.1207679 12.4652288,20.1557551 12.3653695,20.1035173 C12.2662392,20.0512794 11.9797816,19.8535047 11.9797816,19.7189012 L11.9797816,19.5493105 C11.9797816,19.415193 11.8702037,19.3051291 11.7356002,19.3051291 L11.4102679,19.3051291 C11.2756645,19.3051291 11.1660865,19.415193 11.1660865,19.5493105 L11.1660865,19.7189012 C11.1660865,19.8535047 11.0771608,19.9915097 10.9685547,20.0264969 C10.8597057,20.061727 10.5210103,20.1207679 10.4257674,20.0260109 L10.3062279,19.9057425 C10.2112279,19.8102566 10.0562153,19.8102566 9.9607294,19.9057425 L9.73088303,20.1353459 C9.63564014,20.2308317 9.63564014,20.3863303 9.73088303,20.4813303 L9.85042258,20.6008698 C9.94493658,20.6965986 9.97943783,20.8557417 9.92817188,20.955358 C9.87544814,21.0552173 9.67670149,21.340946 9.54258394,21.340946 L9.37323624,21.340946 C9.23936166,21.340946 9.12881188,21.4510098 9.12881188,21.5851274 L9.12881188,21.9109456 C9.12881188,22.045792 9.23936166,22.1553699 9.37323624,22.1553699 L9.54258394,22.1553699 C9.67670149,22.1553699 9.81494946,22.2442957 9.85042258,22.3526588 C9.8858957,22.4612648 9.94493658,22.7999602 9.84993665,22.8952031 L9.72991116,23.0154716 C9.6344253,23.1102285 9.6344253,23.2652412 9.72991116,23.3602411 L9.9607294,23.5913023 C10.0562153,23.6865452 10.2112279,23.6865452 10.3062279,23.5910594 L10.4255244,23.4712769 C10.5210103,23.3767629 10.6799104,23.3410468 10.7797697,23.3930416 C10.879386,23.4455224 11.1643858,23.6440261 11.1643858,23.7781436 L11.1643858,23.9474913 C11.1643858,24.0816089 11.2744496,24.1916727 11.4085672,24.1916727 L11.7358431,24.1916727 C11.8704466,24.1916727 11.9800245,24.0816089 11.9800245,23.9474913 L11.9800245,23.7781436 C11.9800245,23.6440261 12.0691933,23.5055351 12.1775564,23.470305 C12.2866484,23.4358037 12.6243719,23.3767629 12.7196148,23.4712769 L12.8398832,23.5910594 C12.9343972,23.6865452 13.0898958,23.6865452 13.1853817,23.5910594 L13.4149851,23.361456 C13.5097421,23.2659701 13.5097421,23.1109574 13.4149851,23.0154716 L13.2952026,22.895932 C13.1999597,22.8002032 13.1654584,22.6413031 13.2172103,22.5414438 C13.270177,22.4415845 13.4674659,22.1553699 13.6015834,22.1553699 L13.7702022,22.1553699 Z M12.3877224,21.7486439 C12.3877224,22.1978891 12.0230296,22.5630678 11.5735415,22.5630678 C11.1230815,22.5630678 10.7583886,22.1978891 10.7583886,21.7486439 C10.7583886,21.2981839 11.1230815,20.933734 11.5735415,20.933734 C12.0230296,20.933977 12.3877224,21.2984268 12.3877224,21.7486439 Z" id="形状" fill="#1B9CCE" transform="translate(11.571719, 21.748401) scale(-1, 1) translate(-11.571719, -21.748401) "></path>
                </g>
            </g>
        </g>
    </g>
</svg>