<svg width="68" height="66" xmlns="http://www.w3.org/2000/svg">
  <g fill-rule="nonzero" fill="none">
    <path fill="#1B9CCE" d="M34.298 0l26.814 12.913 6.623 29.016L49.18 65.2H19.416L.86 41.929l6.623-29.016z"/>
    <path fill="#FFF" d="M34.529 19l12.923 6.223 3.191 13.984-8.942 11.214H27.357l-8.943-11.214 3.192-13.984z"/>
    <path d="M30.672 28.387l3.026 1.48v-3.476l-3.027-1.446v3.442h.001zm3.595-1.96v3.446l2.986-1.446v-3.46l-2.986 1.458v.001zm-.263-3.295l-2.946 1.407 2.946 1.406 2.908-1.406-2.909-1.407h.001zm-6.913 11.171l3.026 1.482v-3.477l-3.026-1.446v3.442zm3.595-1.96v3.446l2.985-1.446v-3.46l-2.985 1.46zm-.263-3.295l-2.946 1.406 2.946 1.408 2.907-1.407-2.907-1.406zm3.891 5.255l3.026 1.482v-3.477l-3.026-1.446v3.442zm3.595-1.96v3.446l2.986-1.446v-3.46l-2.985 1.46zm-.263-3.295L34.7 30.454l2.947 1.408 2.907-1.407-2.907-1.406h-.001zM32.674 43.713a.49.49 0 01-.489-.489v-.651a.49.49 0 01.489-.489h.337c.268 0 .546-.178.615-.395.07-.217.19-.895-.001-1.085l-.24-.239a.491.491 0 010-.691l.46-.46a.49.49 0 01.691 0l.24.24c.19.19.51.26.709.156.2-.104.77-.502.77-.771V38.5a.49.49 0 01.49-.489h.651a.49.49 0 01.489.489v.338c0 .268.177.546.395.615.217.07.895.189 1.084-.001l.24-.24a.49.49 0 01.691 0l.46.46a.49.49 0 010 .691l-.24.24c-.19.19-.26.509-.156.708.105.2.503.772.772.772h.338a.49.49 0 01.488.488v.652a.49.49 0 01-.488.489h-.338c-.27 0-.547.177-.616.394-.07.218-.189.895.002 1.085l.24.24c.19.19.19.5 0 .69l-.461.46a.49.49 0 01-.691 0l-.24-.238c-.19-.19-.509-.26-.709-.157-.199.105-.77.502-.77.77v.339a.49.49 0 01-.489.488h-.651a.49.49 0 01-.489-.488v-.338c0-.268-.178-.546-.396-.616-.217-.069-.895-.188-1.084.002l-.24.239a.49.49 0 01-.691 0l-.461-.46a.491.491 0 010-.69l.24-.24c.19-.19.26-.51.156-.709-.104-.2-.502-.771-.77-.771h-.337zm4.397 1.302a2.118 2.118 0 100-4.236 2.118 2.118 0 000 4.236zM27.373 41.155a.244.244 0 01-.244-.243v-.326c0-.135.11-.245.244-.245h.167c.135 0 .273-.088.309-.197.035-.108.094-.448 0-.543l-.12-.12a.245.245 0 010-.345l.23-.23a.245.245 0 01.345 0l.12.12c.095.095.254.13.354.078.1-.053.386-.25.386-.385v-.17c0-.134.11-.244.244-.244h.325c.135 0 .244.11.244.244v.17c0 .135.09.273.198.307.109.036.447.095.543 0l.12-.12a.244.244 0 01.345 0l.23.23a.245.245 0 010 .345l-.12.12c-.094.096-.129.255-.078.354.053.1.252.386.386.386h.17c.133 0 .244.11.244.244v.326c0 .135-.11.244-.245.244h-.17c-.133 0-.272.09-.307.198-.035.108-.094.447 0 .542l.12.12a.243.243 0 010 .345l-.23.231a.244.244 0 01-.346 0l-.12-.12c-.095-.094-.253-.13-.353-.078-.1.053-.385.251-.385.385v.17c0 .134-.11.244-.244.244h-.327a.245.245 0 01-.245-.245v-.169c0-.134-.089-.272-.197-.308-.11-.034-.447-.093-.542.001l-.12.12a.244.244 0 01-.346 0l-.23-.23a.246.246 0 010-.346l.12-.12c.095-.095.13-.254.078-.354-.053-.1-.25-.386-.384-.386h-.169zm1.383-.406a.815.815 0 101.63-.001.815.815 0 00-1.63 0z" fill="#1B9CCE"/>
  </g>
</svg>
