<?xml version="1.0" encoding="UTF-8"?>
<svg width="68px" height="66px" viewBox="0 0 68 66" version="1.1" xmlns="http://www.w3.org/2000/svg" xmlns:xlink="http://www.w3.org/1999/xlink">
    <!-- Generator: Sketch 52.5 (67469) - http://www.bohemiancoding.com/sketch -->
    <title>11</title>
    <desc>Created with Sketch.</desc>
    <g id="test" stroke="none" stroke-width="1" fill="none" fill-rule="evenodd">
        <g id="icon" transform="translate(-57.000000, -111.000000)" fill-rule="nonzero">
            <g id="11" transform="translate(56.000000, 111.000000)">
                <polygon id="多边形" fill="#1B9CCE" points="34.8264463 0 61.6413277 12.9133663 68.2640565 41.929437 49.7075828 65.198519 19.9453098 65.198519 1.38883607 41.929437 8.01156486 12.9133663"></polygon>
                <g id="xuxiankuang" transform="translate(22.016529, 22.314050)" fill="#FFFFFF">
                    <path d="M2.92021188,0.000554661934 L5.00080426,0.000554661934 L5.00080426,0.487270509 L2.92021188,0.487270509 L2.92021188,0.000554661934 Z M5.81285706,0.000554661934 L7.89342171,0.000554661934 L7.89342171,0.487270509 L5.81285706,0.487270509 L5.81285706,0.000554661934 Z M8.70550225,0.000554661934 L10.7860946,0.000554661934 L10.7860946,0.487270509 L8.70550225,0.487270509 L8.70550225,0.000554661934 Z M11.5981752,0.000554661934 L13.6787398,0.000554661934 L13.6787398,0.487270509 L11.5981752,0.487270509 L11.5981752,0.000554661934 Z M14.4908203,0.000554661934 L16.5713573,0.000554661934 L16.5713573,0.487270509 L14.4908203,0.487270509 L14.4908203,0.000554661934 Z M17.3834655,0.000554661934 L19.4640302,0.000554661934 L19.4640302,0.487270509 L17.3834655,0.487270509 L17.3834655,0.000554661934 Z M20.276083,0.000554661934 L22.3566754,0.000554661934 L22.3566754,0.487270509 L20.276083,0.487270509 L20.276083,0.000554661934 Z M23.2028121,0.000554661934 L23.2028121,0.487270509 L24.3731211,0.487270509 L24.3731211,1.60422098 L24.8598924,1.60422098 L24.8598924,0.000554661934 L23.2028121,0.000554661934 Z M24.3731211,24.2927228 L22.7793,24.2927228 L22.7793,24.7794387 L24.8598924,24.7794387 L24.8598924,22.698874 L24.3731211,22.698874 L24.3731211,24.2927228 Z M24.3731211,19.8062011 L24.8598369,19.8062011 L24.8598369,21.8867935 L24.3731211,21.8867935 L24.3731211,19.8062011 Z M24.3731211,16.9135837 L24.8598369,16.9135837 L24.8598369,18.9941483 L24.3731211,18.9941483 L24.3731211,16.9135837 Z M24.3731211,14.0209108 L24.8598369,14.0209108 L24.8598369,16.1015031 L24.3731211,16.1015031 L24.3731211,14.0209108 Z M24.3731211,11.1282656 L24.8598369,11.1282656 L24.8598369,13.2088302 L24.3731211,13.2088302 L24.3731211,11.1282656 Z M24.3731211,8.23562039 L24.8598369,8.23562039 L24.8598369,10.3162128 L24.3731211,10.3162128 L24.3731211,8.23562039 Z M24.3731211,5.34294747 L24.8598369,5.34294747 L24.8598369,7.42353985 L24.3731211,7.42353985 L24.3731211,5.34294747 Z M24.3731211,2.45033002 L24.8598369,2.45033002 L24.8598369,4.5309224 L24.3731211,4.5309224 L24.3731211,2.45033002 Z M19.8866271,24.2927228 L21.9672195,24.2927228 L21.9672195,24.7794387 L19.8866271,24.7794387 L19.8866271,24.2927228 Z M16.9939819,24.2927228 L19.0745743,24.2927228 L19.0745743,24.7794387 L16.9939819,24.7794387 L16.9939819,24.2927228 Z M14.1013367,24.2927228 L16.1819291,24.2927228 L16.1819291,24.7794387 L14.1013367,24.7794387 L14.1013367,24.2927228 Z M11.2086916,24.2927228 L13.2892562,24.2927228 L13.2892562,24.7794387 L11.2086916,24.7794387 L11.2086916,24.2927228 Z M8.31604637,24.2927228 L10.3966387,24.2927228 L10.3966387,24.7794387 L8.31604637,24.7794387 L8.31604637,24.2927228 Z M5.42340119,24.2927228 L7.50396583,24.2927228 L7.50396583,24.7794387 L5.42340119,24.7794387 L5.42340119,24.2927228 Z M2.53072827,24.2927228 L4.61132065,24.2927228 L4.61132065,24.7794387 L2.53072827,24.7794387 L2.53072827,24.2927228 Z M0.027538965,0.000554661934 L0.027538965,2.08109157 L0.514282545,2.08109157 L0.514282545,0.487270509 L2.10815908,0.487270509 L2.10815908,0.000554661934 L0.514282545,0.000554661934 L0.027538965,0.000554661934 Z M0.027538965,2.89319984 L0.514282545,2.89319984 L0.514282545,4.97376449 L0.0275666981,4.97376449 L0.0275666981,2.89319984 L0.027538965,2.89319984 Z M0.027538965,5.78584503 L0.514282545,5.78584503 L0.514282545,7.86643741 L0.0275666981,7.86643741 L0.0275666981,5.78584503 L0.027538965,5.78584503 Z M0.027538965,8.67849021 L0.514282545,8.67849021 L0.514282545,10.7590549 L0.0275666981,10.7590549 L0.0275666981,8.67851794 L0.027538965,8.67849021 Z M0.027538965,11.5711077 L0.514282545,11.5711077 L0.514282545,13.6517 L0.0275666981,13.6517 L0.0275666981,11.5710799 L0.027538965,11.5711077 Z M0.027538965,14.4637806 L0.514282545,14.4637806 L0.514282545,16.5443452 L0.0275666981,16.5443452 L0.0275666981,14.4637806 L0.027538965,14.4637806 Z M0.027538965,17.3564258 L0.514282545,17.3564258 L0.514282545,19.4370181 L0.0275666981,19.4370181 L0.0275666981,17.3564258 L0.027538965,17.3564258 Z M0.027538965,20.2490432 L0.514282545,20.2490432 L0.514282545,22.3296633 L0.0275666981,22.3296633 L0.0275666981,20.2490432 L0.027538965,20.2490432 Z M0.514282545,23.1757446 L0.0275666981,23.1757446 L0.0275666981,24.7794387 L1.68461922,24.7794387 L1.68461922,24.2927228 L0.514282545,24.2927228 L0.514282545,23.1757446 Z" id="形状"></path>
                </g>
            </g>
        </g>
    </g>
</svg>