<svg width="68" height="66" xmlns="http://www.w3.org/2000/svg">
  <g fill-rule="nonzero" fill="none">
    <path fill="#1B9CCE" d="M33.826 0l26.815 12.913 6.623 29.016L48.708 65.2H18.945L.39 41.929l6.623-29.016z"/>
    <path d="M23.937 22.315h2.08v.486h-2.08v-.486zm2.892 0h2.081v.486h-2.08v-.486zm2.893 0h2.08v.486h-2.08v-.486zm2.893 0h2.08v.486h-2.08v-.486zm2.892 0h2.08v.486h-2.08v-.486zm2.893 0h2.08v.486H38.4v-.486zm2.893 0h2.08v.486h-2.08v-.486zm2.926 0v.486h1.17v1.117h.487v-1.603H44.22zm1.17 24.292h-1.593v.486h2.08v-2.08h-.486v1.594zm0-4.487h.487v2.08h-.486v-2.08zm0-2.892h.487v2.08h-.486v-2.08zm0-2.893h.487v2.08h-.486v-2.08zm0-2.893h.487v2.08h-.486v-2.08zm0-2.892h.487v2.08h-.486v-2.08zm0-2.893h.487v2.08h-.486v-2.08zm0-2.893h.487v2.081h-.486v-2.08zm-4.486 21.843h2.08v.486h-2.08v-.486zm-2.892 0h2.08v.486h-2.08v-.486zm-2.893 0h2.08v.486h-2.08v-.486zm-2.893 0h2.08v.486h-2.08v-.486zm-2.892 0h2.08v.486h-2.08v-.486zm-2.893 0h2.08v.486h-2.08v-.486zm-2.893 0h2.08v.486h-2.08v-.486zm-2.503-24.292v2.08h.487v-1.594h1.594v-.486h-2.081zm0 2.892h.487v2.08h-.487v-2.08zm0 2.893h.487v2.08h-.487V28.1zm0 2.893h.487v2.08h-.487v-2.08zm0 2.892h.487v2.08h-.487v-2.08zm0 2.893h.487v2.08h-.487v-2.08zm0 2.892h.487v2.081h-.487v-2.08zm0 2.893h.487v2.08h-.487v-2.08zm.487 2.927h-.487v1.603h1.657v-.486h-1.17V45.49z" fill="#FFF"/>
  </g>
</svg>
