<svg width="68" height="66" xmlns="http://www.w3.org/2000/svg">
  <g fill="none" fill-rule="evenodd">
    <path fill="#1B9CCE" fill-rule="nonzero" d="M34.298 0l26.814 12.913 6.623 29.016L49.18 65.2H19.416L.86 41.929l6.623-29.016z"/>
    <path d="M46.99 25.566l-6.409 3.545v-2.175h-12.35c-.832 0-1.627.34-2.185.936a2.707 2.707 0 00-.734 2.181c.163 1.408 1.449 2.472 2.99 2.472H40.78c3.182 0 5.771 2.482 5.771 5.532s-2.59 5.533-5.771 5.533H28.476v2.162l-6.464-3.453 6.464-3.629v2.181h12.327c.83 0 1.625-.345 2.182-.947.558-.602.81-1.37.711-2.164-.163-1.413-1.449-2.477-2.99-2.477H28.23c-3.184 0-5.773-2.482-5.773-5.533 0-3.05 2.59-5.532 5.773-5.532h12.35v-2.176l6.41 3.544z" fill="#FFF"/>
  </g>
</svg>
