<svg width="68" height="66" xmlns="http://www.w3.org/2000/svg">
  <g fill-rule="nonzero" fill="none">
    <path fill="#1B9CCE" d="M33.843.24l26.815 12.913 6.623 29.016-18.557 23.27H18.962L.405 42.168l6.623-29.016z"/>
    <path d="M45.638 27.113l-11.79 4.803-11.817-4.803 11.79-4.56 11.817 4.56zM21.06 29.11l11.763 4.91v13.3c-.936-.413-1.907-.845-2.914-1.294-.863-.378-1.84-.8-2.927-1.269-1.089-.468-2.181-.935-3.278-1.403a4.103 4.103 0 01-1.08-.714 5.322 5.322 0 01-.836-.972 4.415 4.415 0 01-.54-1.12 3.844 3.844 0 01-.189-1.16V29.11h.001zm25.306 0v10.225c0 .468-.09.922-.27 1.362-.18.44-.41.854-.688 1.242a5.94 5.94 0 01-.93 1.025 4.904 4.904 0 01-.998.688l-2.995 1.242a673.25 673.25 0 01-2.887 1.187c-1.025.431-2.033.845-3.022 1.241v-13.3l11.79-4.912z" fill="#FFF"/>
  </g>
</svg>
