<svg width="68" height="66" xmlns="http://www.w3.org/2000/svg">
  <g fill-rule="nonzero" fill="none">
    <path fill="#1B9CCE" d="M33.843.24l26.815 12.913 6.623 29.016-18.557 23.27H18.962L.405 42.168l6.623-29.016z"/>
    <g fill="#FFF">
      <path d="M45.638 27.113l-11.79 4.803-11.817-4.803 11.79-4.56 11.817 4.56zM21.06 29.11l11.763 4.91v13.3c-.936-.413-1.907-.845-2.914-1.294-.863-.378-1.84-.8-2.927-1.269-1.089-.468-2.181-.935-3.278-1.403a4.103 4.103 0 01-1.08-.714 5.322 5.322 0 01-.836-.972 4.415 4.415 0 01-.54-1.12 3.844 3.844 0 01-.189-1.16V29.11h.001zM44.173 42.605H43.9c-.049-1.006-.272-1.76-.6-2.326l-.008-.014a2.996 2.996 0 00-1.285-1.216 3.035 3.035 0 001.285-1.216l.007-.014c.343-.586.573-1.39.608-2.452h.272a.328.328 0 100-.656h-6.043a.328.328 0 100 .656h.273c.042 1.07.265 1.866.608 2.452l.007.014a3 3 0 001.285 1.216 3.035 3.035 0 00-1.285 1.216l-.007.014c-.329.566-.552 1.32-.601 2.326h-.28a.327.327 0 00-.328.321c0 .189.147.329.328.329h6.037a.328.328 0 00.328-.329.318.318 0 00-.328-.321m-4.821-2.13l.007-.015c.398-.677.831-1.04 1.404-1.222l.021-.014h.007c.014-.007.021-.007.035-.021l.007-.007.014-.007v-.007l.014-.014v-.007a.153.153 0 00.021-.035v-.007a.101.101 0 00.014-.049V39a.13.13 0 00-.014-.049v-.007c-.007-.014-.014-.02-.02-.035v-.007l-.015.014-.014-.014-.007-.007a.153.153 0 00-.035-.02h-.007l-.02-.008c-.574-.174-1.007-.538-1.405-1.23l-.007-.006c-.307-.538-.517-1.272-.552-2.264h4.709c-.035.992-.245 1.726-.552 2.264l-.007.007c-.391.684-.831 1.055-1.397 1.23l-.028.006h-.007c-.014.007-.021.014-.035.021l-.007.007-.014.014-.014.014v.007c-.007.007-.014.021-.021.035l-.007.007c-.007.014-.007.028-.014.05v.069c.007.014.007.035.014.049l.007.007c.007.014.014.02.02.035v.007l.015.014v.007l.014.007.007.007a.153.153 0 00.035.02h.007l.028.015c.566.174 1.006.538 1.397 1.222l.007.014c.168.28.3.622.398 1.02.021.112.09.363.112.685-.314-.28-1.188-.482-2.243-.496v-3.123c.014 0 .021-.007.035-.014v-.007l.056-.02h.014c.377-.12.685-.308.936-.553.273-.265.475-.594.615-.964.035-.105-.007-.217-.112-.251a.196.196 0 00-.258.111 2.38 2.38 0 01-.524.818 1.857 1.857 0 01-.776.454l-.007.007-.02.007-.022.007-.02-.007-.014-.007-.021-.007a1.934 1.934 0 01-.776-.454 2.28 2.28 0 01-.524-.818.188.188 0 00-.251-.111c-.105.034-.147.146-.112.251.14.363.342.692.615.964.244.245.559.433.936.552H41l.049.021.014.007c.007 0 .014.007.02.014v3.088c-.984 0-1.83.168-2.242.405a3.78 3.78 0 01.112-.587c.105-.405.237-.74.398-1.02"/>
      <path d="M40.994 45.986A7 7 0 0134 38.993 7 7 0 0140.994 32a7 7 0 016.993 6.993 7 7 0 01-6.993 6.993zm0-13.21a6.222 6.222 0 00-6.218 6.217 6.222 6.222 0 006.218 6.218 6.222 6.222 0 006.218-6.218c.006-3.43-2.788-6.218-6.218-6.218z"/>
    </g>
  </g>
</svg>
