<svg width="68" height="66" xmlns="http://www.w3.org/2000/svg">
  <g fill="none" fill-rule="evenodd">
    <path fill="#1B9CCE" fill-rule="nonzero" d="M33.843.24l26.815 12.913 6.623 29.016-18.557 23.27H18.962L.405 42.168l6.623-29.016z"/>
    <g fill="#FFF">
      <path d="M45.638 27.113l-11.79 4.803-11.817-4.803 11.79-4.56 11.817 4.56zM21.06 29.11l11.763 4.91v13.3c-.936-.413-1.907-.845-2.914-1.294-.863-.378-1.84-.8-2.927-1.269-1.089-.468-2.181-.935-3.278-1.403a4.103 4.103 0 01-1.08-.714 5.322 5.322 0 01-.836-.972 4.415 4.415 0 01-.54-1.12 3.844 3.844 0 01-.189-1.16V29.11h.001zM41 45.997a7 7 0 01-6.994-6.995A7 7 0 0141 32.007a7 7 0 016.995 6.995A7 7 0 0141 45.997zm0-13.361a6.37 6.37 0 00-6.366 6.366 6.37 6.37 0 006.367 6.366 6.37 6.37 0 006.366-6.366 6.37 6.37 0 00-6.366-6.366z" fill-rule="nonzero"/>
      <path d="M38.776 41.54a.31.31 0 01-.22-.094.313.313 0 010-.448l4.449-4.448a.313.313 0 01.448 0 .313.313 0 010 .448l-4.449 4.448a.315.315 0 01-.228.095z"/>
      <path d="M43.225 41.54a.31.31 0 01-.22-.094l-4.449-4.448a.313.313 0 010-.448.313.313 0 01.448 0l4.449 4.448a.313.313 0 010 .448.328.328 0 01-.228.095z"/>
    </g>
  </g>
</svg>
