<svg width="68" height="66" xmlns="http://www.w3.org/2000/svg">
  <g fill="none" fill-rule="evenodd">
    <path fill="#1B9CCE" fill-rule="nonzero" d="M33.843.24l26.815 12.913 6.623 29.016-18.557 23.27H18.962L.405 42.168l6.623-29.016z"/>
    <g fill="#FFF">
      <path d="M45.638 27.113l-11.79 4.803-11.817-4.803 11.79-4.56 11.817 4.56zM21.06 29.11l11.763 4.91v13.3c-.936-.413-1.907-.845-2.914-1.294-.863-.378-1.84-.8-2.927-1.269-1.089-.468-2.181-.935-3.278-1.403a4.103 4.103 0 01-1.08-.714 5.322 5.322 0 01-.836-.972 4.415 4.415 0 01-.54-1.12 3.844 3.844 0 01-.189-1.16V29.11h.001z" fill-rule="nonzero"/>
      <path d="M39.81 35.885c-.07-.07-.175-.07-.28 0a.295.295 0 00-.14.245v6.02c0 .105.07.175.14.245.035.035.07.035.105.035.07 0 .105-.035.14-.035l4.2-3.08c.07-.035.105-.14.105-.21 0-.07-.035-.175-.105-.21l-4.165-3.01z"/>
      <path d="M41 46c-3.85 0-7-3.15-7-7s3.15-7 7-7 7 3.15 7 7-3.15 7-7 7zm0-13.3c-3.465 0-6.3 2.835-6.3 6.3s2.835 6.3 6.3 6.3 6.3-2.835 6.3-6.3-2.835-6.3-6.3-6.3z" fill-rule="nonzero"/>
    </g>
  </g>
</svg>
