<svg width="68" height="66" xmlns="http://www.w3.org/2000/svg">
  <g fill="none" fill-rule="evenodd">
    <path fill="#1B9CCE" fill-rule="nonzero" d="M33.843.24l26.815 12.913 6.623 29.016-18.557 23.27H18.962L.405 42.168l6.623-29.016z"/>
    <g fill="#FFF">
      <path d="M45.638 27.113l-11.79 4.803-11.817-4.803 11.79-4.56 11.817 4.56zM21.06 29.11l11.763 4.91v13.3c-.936-.413-1.907-.845-2.914-1.294-.863-.378-1.84-.8-2.927-1.269-1.089-.468-2.181-.935-3.278-1.403a4.103 4.103 0 01-1.08-.714 5.322 5.322 0 01-.836-.972 4.415 4.415 0 01-.54-1.12 3.844 3.844 0 01-.189-1.16V29.11h.001zM41 46c-3.85 0-7-3.15-7-7s3.15-7 7-7 7 3.15 7 7-3.15 7-7 7zm0-13.462c-3.554 0-6.462 2.908-6.462 6.462s2.908 6.462 6.462 6.462 6.462-2.908 6.462-6.462-2.908-6.462-6.462-6.462z" fill-rule="nonzero"/>
      <path d="M40.246 41.827a.405.405 0 01-.296-.108l-2.208-2.18a.39.39 0 010-.566.39.39 0 01.566 0l1.938 1.912 3.985-3.527c.161-.135.43-.135.565.027.135.161.135.43-.027.565l-4.254 3.77a.386.386 0 01-.269.107z"/>
    </g>
  </g>
</svg>
