<svg width="68" height="66" xmlns="http://www.w3.org/2000/svg">
  <g fill-rule="nonzero" fill="none">
    <path fill="#1B9CCE" d="M33.843.24l26.815 12.913 6.623 29.016-18.557 23.27H18.962L.405 42.168l6.623-29.016z"/>
    <g fill="#FFF">
      <path d="M45.638 27.113l-11.79 4.803-11.817-4.803 11.79-4.56 11.817 4.56zM21.06 29.11l11.763 4.91v13.3c-.936-.413-1.907-.845-2.914-1.294-.863-.378-1.84-.8-2.927-1.269-1.089-.468-2.181-.935-3.278-1.403a4.103 4.103 0 01-1.08-.714 5.322 5.322 0 01-.836-.972 4.415 4.415 0 01-.54-1.12 3.844 3.844 0 01-.189-1.16V29.11h.001zM41 45.998A7.005 7.005 0 0134.002 39c0-3.859 3.14-6.998 6.998-6.998A7.006 7.006 0 0147.998 39 7.005 7.005 0 0141 45.998zm0-13.33A6.339 6.339 0 0034.668 39c0 3.49 2.84 6.33 6.332 6.33A6.338 6.338 0 0047.332 39 6.34 6.34 0 0041 32.668zm-.428 8.457a9.83 9.83 0 01-.005-.254c0-.331.047-.617.141-.859.07-.181.181-.364.334-.55.113-.134.316-.33.609-.589.293-.258.484-.464.571-.617a.994.994 0 00.132-.502c0-.329-.128-.618-.385-.866a1.309 1.309 0 00-.945-.373c-.36 0-.662.113-.904.338-.241.225-.4.577-.475 1.056l-.87-.104c.079-.641.312-1.132.698-1.474.387-.341.9-.512 1.536-.512.674 0 1.212.184 1.613.55.402.366.602.81.602 1.328 0 .3-.07.578-.211.831-.142.253-.418.561-.828.924-.276.246-.456.425-.54.541a1.216 1.216 0 00-.189.399c-.04.15-.064.394-.07.732h-.814zm-.052 1.694v-.962h.964v.962h-.964z"/>
    </g>
  </g>
</svg>
