<?xml version="1.0" encoding="UTF-8"?>
<svg width="68px" height="66px" viewBox="0 0 68 66" version="1.1" xmlns="http://www.w3.org/2000/svg" xmlns:xlink="http://www.w3.org/1999/xlink">
    <!-- Generator: Sketch 52.5 (67469) - http://www.bohemiancoding.com/sketch -->
    <title>44</title>
    <desc>Created with Sketch.</desc>
    <g id="test" stroke="none" stroke-width="1" fill="none" fill-rule="evenodd">
        <g id="icon" transform="translate(-924.000000, -616.000000)" fill-rule="nonzero">
            <g id="44" transform="translate(924.000000, 616.000000)">
                <polygon id="多边形" fill="#1B9CCE" points="34.2975207 0 61.1124021 12.9133663 67.7351309 41.929437 49.1786572 65.198519 19.4163842 65.198519 0.85991045 41.929437 7.48263924 12.9133663"></polygon>
                <g id="盒子锁" transform="translate(20.000000, 22.000000)" fill="#FFFFFF">
                    <path d="M24.6047536,4.55917769 L12.8152951,9.36181081 L0.998210416,4.55917769 L12.787669,0 L24.6047536,4.55917769 Z M0.0269786599,6.55603018 L11.7896744,11.4665779 L11.7896744,24.7668414 C10.8544142,24.3530248 9.8831824,23.9213662 8.8759791,23.4718658 C8.01266198,23.0943084 7.03682587,22.6715708 5.94847076,22.2036529 C4.86011565,21.735735 3.76744395,21.2681049 2.67045567,20.8007626 C2.27448089,20.6206171 1.91476542,20.3823416 1.59130927,20.085936 C1.26785313,19.7895305 0.9890017,19.4657866 0.754754989,19.1147043 C0.520508278,18.763622 0.340650545,18.3903812 0.215181791,17.994982 C0.089713037,17.5995827 0.0266908875,17.2128167 0.0261153428,16.8346838 L0.0261153428,6.55603018 L0.0269786599,6.55603018 Z" id="形状"></path>
                    <path d="M26.1569037,15.2208037 L25.2199388,15.2208037 L25.2199388,13.3375509 C25.2199388,10.9741619 23.336686,9.09090909 20.9841739,9.09090909 C18.6316618,9.09090909 16.748409,10.9741619 16.748409,13.3375509 L16.748409,15.2208037 L15.8129979,15.2208037 C15.3002311,15.2208037 14.876033,15.6450017 14.8760331,16.1577686 L14.8760331,23.7032104 C14.8760331,24.2159773 15.3002311,24.6401753 15.8129979,24.6401753 L26.1569037,24.6401753 C26.6805474,24.6401753 27.1047455,24.2159773 27.1047455,23.7032104 L27.1047455,16.1577686 C27.1031916,15.6450017 26.6805474,15.2208037 26.1569037,15.2208037 Z M23.8043916,15.2208037 L18.1639562,15.2208037 L18.1639562,13.3375509 C18.1639562,11.7774966 19.4349965,10.5064564 20.9841739,10.5064564 C22.5426744,10.5126717 23.8043916,11.7790504 23.8043916,13.3375509 L23.8043916,15.2208037 Z" id="形状"></path>
                </g>
            </g>
        </g>
    </g>
</svg>