<svg width="68" height="66" xmlns="http://www.w3.org/2000/svg">
  <g fill-rule="nonzero" fill="none">
    <path fill="#1B9CCE" d="M34.298 0l26.814 12.913 6.623 29.016L49.18 65.2H19.416L.86 41.929l6.623-29.016z"/>
    <g fill="#FFF">
      <path d="M44.605 26.56l-11.79 4.802-11.817-4.803L32.788 22l11.817 4.56zm-24.578 1.996l11.763 4.91v13.3c-.936-.413-1.907-.845-2.914-1.294-.863-.378-1.84-.8-2.928-1.268-1.088-.468-2.18-.936-3.278-1.403a4.103 4.103 0 01-1.079-.715 5.322 5.322 0 01-.836-.971 4.415 4.415 0 01-.54-1.12 3.844 3.844 0 01-.189-1.16V28.556h.001zM46.157 37.22h-.937v-1.882a4.221 4.221 0 00-4.236-4.247 4.221 4.221 0 00-4.236 4.247v1.883h-.935a.943.943 0 00-.937.937v7.545c0 .513.424.937.937.937h10.344a.945.945 0 00.948-.937v-7.545a.946.946 0 00-.948-.937zm-2.353 0h-5.64v-1.882a2.833 2.833 0 012.82-2.832 2.832 2.832 0 012.82 2.832v1.883z"/>
    </g>
  </g>
</svg>
