<?xml version="1.0" encoding="UTF-8"?>
<svg width="68px" height="66px" viewBox="0 0 68 66" version="1.1" xmlns="http://www.w3.org/2000/svg" xmlns:xlink="http://www.w3.org/1999/xlink">
    <!-- Generator: Sketch 52.5 (67469) - http://www.bohemiancoding.com/sketch -->
    <title>1111</title>
    <desc>Created with Sketch.</desc>
    <g id="test" stroke="none" stroke-width="1" fill="none" fill-rule="evenodd">
        <g id="icon" transform="translate(-413.000000, -557.000000)" fill-rule="nonzero">
            <g id="1111" transform="translate(412.000000, 557.000000)">
                <polygon id="多边形" fill="#1B9CCE" points="35.2892562 0.752066116 62.1041376 13.6654324 68.7268664 42.6815031 50.1703927 65.9505851 20.4081197 65.9505851 1.85164599 42.6815031 8.47437477 13.6654324"></polygon>
                <g id="shuju_3" transform="translate(23.305785, 25.545455)" fill="#FFFFFF">
                    <path d="M12.3966942,0 C5.37342498,0 0.00268966844,1.70238249 0.00268966844,3.8303606 L0.00268966844,14.8958468 C0.00268966844,17.0238249 5.37342498,18.7262074 12.3966942,18.7262074 C19.4199635,18.7262074 24.7906988,17.0238249 24.7906988,14.8958468 L24.7906988,3.8303606 C24.7906988,1.70238249 19.4199635,0 12.3966942,0 Z M12.3966942,1.51482278 C18.8691188,1.51482278 23.4135871,3.99362368 23.4135871,6.19700226 C23.4135871,8.40038084 18.8691188,10.8791817 12.3966942,10.8791818 C5.92426963,10.8791818 1.3798013,8.40038087 1.3798013,6.19700226 C1.3798013,3.99362365 5.92426963,1.51482278 12.3966942,1.51482278 Z M23.4135871,13.3579827 C22.3118978,15.5613612 17.7674295,17.3516064 12.3966942,17.3516064 C7.0259589,17.3516064 2.48149057,15.5613612 1.3798013,13.3579827 L1.3798013,9.08893667 C3.4454687,11.0168929 7.57680356,12.3940045 12.3966942,12.3940045 C17.2165849,12.3940045 21.3479197,11.0168929 23.4135871,9.08893667 L23.4135871,13.3579827 Z" id="形状"></path>
                    <path d="M21.3479197,12.1185822 C20.9347863,12.1185822 20.5216528,12.3940045 20.5216528,12.807138 C20.5216528,13.2202715 20.7970751,13.633405 21.3479197,13.633405 C21.7610532,13.633405 22.1741867,13.2202715 22.1741867,12.807138 C22.0364755,12.3940045 21.7610532,12.1185822 21.3479197,12.1185822 Z" id="形状"></path>
                </g>
            </g>
        </g>
    </g>
</svg>