<svg width="68" height="66" xmlns="http://www.w3.org/2000/svg">
  <g fill-rule="nonzero" fill="none">
    <path fill="#1B9CCE" d="M34.29.752l26.814 12.913 6.623 29.017L49.17 65.95H19.408L.852 42.68l6.622-29.016z"/>
    <g fill="#FFF">
      <path d="M34.702 25.545c-7.023 0-12.394 1.703-12.394 3.83v11.066c0 2.128 5.371 3.83 12.394 3.83 7.024 0 12.394-1.702 12.394-3.83V29.376c0-2.128-5.37-3.83-12.394-3.83zm0 1.515c6.473 0 11.017 2.48 11.017 4.682 0 2.204-4.544 4.683-11.017 4.683-6.472 0-11.016-2.48-11.016-4.683s4.544-4.682 11.016-4.682zM45.72 38.903c-1.101 2.204-5.646 3.994-11.017 3.994-5.37 0-9.915-1.79-11.016-3.994v-4.269c2.065 1.928 6.197 3.305 11.016 3.305 4.82 0 8.952-1.377 11.017-3.305v4.27z"/>
      <path d="M43.654 37.664c-.413 0-.827.275-.827.689 0 .413.276.826.827.826.413 0 .826-.413.826-.826-.138-.414-.413-.689-.826-.689z"/>
    </g>
  </g>
</svg>
