<?xml version="1.0" encoding="UTF-8"?>
<svg width="68px" height="66px" viewBox="0 0 68 66" version="1.1" xmlns="http://www.w3.org/2000/svg" xmlns:xlink="http://www.w3.org/1999/xlink">
    <!-- Generator: Sketch 52.5 (67469) - http://www.bohemiancoding.com/sketch -->
    <title>88888</title>
    <desc>Created with Sketch.</desc>
    <g id="test" stroke="none" stroke-width="1" fill="none" fill-rule="evenodd">
        <g id="icon" transform="translate(-815.000000, -301.000000)" fill-rule="nonzero">
            <g id="88888" transform="translate(814.000000, 301.000000)">
                <polygon id="多边形" fill="#1B9CCE" points="34.677686 0.553719008 61.4925674 13.4670853 68.1152962 42.483156 49.5588225 65.752238 19.7965494 65.752238 1.24007574 42.483156 7.86280453 13.4670853"></polygon>
                <g id="yibiaopan" transform="translate(18.561983, 22.867769)" fill="#FFFFFF">
                    <path d="M32.2158993,16.0159042 L32.2158993,18.8762158 L30.7776895,18.8762158 L30.7776895,16.0159042 C30.7847119,12.1413668 29.237047,8.42597633 26.4814692,5.70221418 C23.7279319,2.95703537 19.9961259,1.41894852 16.1079496,1.42670412 C14.128973,1.42670412 12.2075247,1.81329492 10.398832,2.57266966 C8.64996894,3.3044308 7.0851967,4.35835092 5.73443006,5.69991304 C4.39555403,7.02726108 3.3272229,8.602014 2.58877763,10.3367014 C1.82471492,12.1315419 1.43327512,14.0629058 1.43820978,16.0136031 L1.43820978,18.8739147 L0,18.8739147 L0,16.0159042 C0,7.17033873 7.21175916,0 16.1079496,0 C25.0041401,0 32.2158993,7.17033873 32.2158993,16.0159042 Z M15.3876942,3.8659079 L16.8259039,3.8659079 L16.8259039,1.72585175 L15.3876942,1.72585175 L15.3876942,3.87051018 L15.3876942,3.8659079 Z M5.43528243,6.41556624 L6.95863424,7.93201463 L7.97803734,6.91951494 L6.45238439,5.40306654 L5.43528243,6.41556624 Z M1.72585175,16.7315574 L3.88431701,16.7315574 L3.88431701,15.300251 L1.73045403,15.300251 L1.73045403,16.7315574 L1.72585175,16.7315574 Z M28.32698,15.300251 L28.32698,16.7315574 L30.4831441,16.7315574 L30.4831441,15.300251 L28.32698,15.300251 Z M24.2378619,6.92181608 L25.257265,7.93431577 L26.7806168,6.41556624 L25.7635149,5.40536766 L24.2378619,6.92181608 Z M16.1884894,18.7036307 C15.7933837,18.7036125 15.4720209,19.0218952 15.4682339,19.4169827 C15.489816,19.7983492 15.8053621,20.096543 16.1873388,20.096543 C16.5693155,20.096543 16.8848616,19.7983492 16.9064437,19.4169827 C16.9064437,19.0257896 16.5842847,18.7036307 16.1884894,18.7036307 Z M16.1884894,17.2746254 C17.3781765,17.2746254 18.3446535,18.2365001 18.3446535,19.4192839 C18.3446535,20.6020676 17.3781765,21.5639423 16.1884894,21.5639423 C15.0007337,21.566491 14.0350973,20.6070314 14.0300241,19.4192839 C14.0300241,18.2365001 14.9965011,17.2746254 16.1884894,17.2746254 Z M13.6227231,14.4810467 L15.571785,19.9945678 L16.7476653,20.4709028 L17.0330062,19.2443975 L13.6227231,14.4810467 Z M8.8915882,5.40996993 L18.5793693,18.9360454 L17.7739719,22.424567 L14.4281206,21.0738004 L8.8915882,5.40996993 Z M26.1754182,23.3519247 L6.0404811,23.3519247 L6.0404811,24.7809299 L26.1754182,24.7809299 L26.1754182,23.3519247 Z" id="形状"></path>
                    <path d="M32.2158993,16.0159042 L32.2158993,18.8762158 L30.7776895,18.8762158 L30.7776895,16.0159042 C30.7847119,12.1413668 29.237047,8.42597633 26.4814692,5.70221418 C23.7279319,2.95703537 19.9961259,1.41894852 16.1079496,1.42670412 C14.128973,1.42670412 12.2075247,1.81329492 10.398832,2.57266966 C8.64996894,3.3044308 7.0851967,4.35835092 5.73443006,5.69991304 C4.39555403,7.02726108 3.3272229,8.602014 2.58877763,10.3367014 C1.82471492,12.1315419 1.43327512,14.0629058 1.43820978,16.0136031 L1.43820978,18.8739147 L0,18.8739147 L0,16.0159042 C0,7.17033873 7.21175916,0 16.1079496,0 C25.0041401,0 32.2158993,7.17033873 32.2158993,16.0159042 Z M15.3876942,3.8659079 L16.8259039,3.8659079 L16.8259039,1.72585175 L15.3876942,1.72585175 L15.3876942,3.87051018 L15.3876942,3.8659079 Z M5.43528243,6.41556624 L6.95863424,7.93201463 L7.97803734,6.91951494 L6.45238439,5.40306654 L5.43528243,6.41556624 Z M1.72585175,16.7315574 L3.88431701,16.7315574 L3.88431701,15.300251 L1.73045403,15.300251 L1.73045403,16.7315574 L1.72585175,16.7315574 Z M28.32698,15.300251 L28.32698,16.7315574 L30.4831441,16.7315574 L30.4831441,15.300251 L28.32698,15.300251 Z M24.2378619,6.92181608 L25.257265,7.93431577 L26.7806168,6.41556624 L25.7635149,5.40536766 L24.2378619,6.92181608 Z M16.1884894,18.7036307 C15.7933837,18.7036125 15.4720209,19.0218952 15.4682339,19.4169827 C15.489816,19.7983492 15.8053621,20.096543 16.1873388,20.096543 C16.5693155,20.096543 16.8848616,19.7983492 16.9064437,19.4169827 C16.9064437,19.0257896 16.5842847,18.7036307 16.1884894,18.7036307 Z M16.1884894,17.2746254 C17.3781765,17.2746254 18.3446535,18.2365001 18.3446535,19.4192839 C18.3446535,20.6020676 17.3781765,21.5639423 16.1884894,21.5639423 C15.0007337,21.566491 14.0350973,20.6070314 14.0300241,19.4192839 C14.0300241,18.2365001 14.9965011,17.2746254 16.1884894,17.2746254 Z M13.6227231,14.4810467 L15.571785,19.9945678 L16.7476653,20.4709028 L17.0330062,19.2443975 L13.6227231,14.4810467 Z M8.8915882,5.40996993 L18.5793693,18.9360454 L17.7739719,22.424567 L14.4281206,21.0738004 L8.8915882,5.40996993 Z M26.1754182,23.3519247 L6.0404811,23.3519247 L6.0404811,24.7809299 L26.1754182,24.7809299 L26.1754182,23.3519247 Z" id="形状"></path>
                </g>
            </g>
        </g>
    </g>
</svg>