<svg width="68" height="66" xmlns="http://www.w3.org/2000/svg">
  <g fill-rule="nonzero" fill="none">
    <path fill="#1B9CCE" d="M33.678.554l26.815 12.913 6.622 29.016-18.556 23.27H18.797L.24 42.482l6.623-29.016z"/>
    <g fill="#FFF">
      <path d="M49.778 38.884v2.86H48.34v-2.86a14.465 14.465 0 00-4.297-10.314 14.651 14.651 0 00-10.373-4.276 14.673 14.673 0 00-13.52 8.91A14.4 14.4 0 0019 38.881v2.86h-1.438v-2.857c0-8.846 7.212-16.016 16.108-16.016s16.108 7.17 16.108 16.016zM32.95 26.734h1.438v-2.14H32.95v2.144-.004zm-9.953 2.55l1.524 1.516 1.019-1.013-1.526-1.516-1.017 1.012zm-3.71 10.315h2.16v-1.431h-2.155v1.431h-.004zm26.602-1.431v1.431h2.156v-1.431H45.89zm-4.09-8.378l1.02 1.012 1.524-1.519-1.018-1.01L41.8 29.79zM33.75 41.57a.72.72 0 00-.72.714.72.72 0 001.438 0 .718.718 0 00-.718-.714zm0-1.429c1.19 0 2.157.962 2.157 2.145a2.152 2.152 0 01-2.157 2.145 2.154 2.154 0 01-2.158-2.145c0-1.183.966-2.145 2.158-2.145zm-2.565-2.793l1.949 5.513 1.176.477.285-1.227-3.41-4.763zm-4.731-9.071l9.687 13.526-.805 3.488-3.346-1.35-5.536-15.664zM43.737 46.22H23.602v1.429h20.135v-1.43z"/>
      <path d="M49.778 38.884v2.86H48.34v-2.86a14.465 14.465 0 00-4.297-10.314 14.651 14.651 0 00-10.373-4.276 14.673 14.673 0 00-13.52 8.91A14.4 14.4 0 0019 38.881v2.86h-1.438v-2.857c0-8.846 7.212-16.016 16.108-16.016s16.108 7.17 16.108 16.016zM32.95 26.734h1.438v-2.14H32.95v2.144-.004zm-9.953 2.55l1.524 1.516 1.019-1.013-1.526-1.516-1.017 1.012zm-3.71 10.315h2.16v-1.431h-2.155v1.431h-.004zm26.602-1.431v1.431h2.156v-1.431H45.89zm-4.09-8.378l1.02 1.012 1.524-1.519-1.018-1.01L41.8 29.79zM33.75 41.57a.72.72 0 00-.72.714.72.72 0 001.438 0 .718.718 0 00-.718-.714zm0-1.429c1.19 0 2.157.962 2.157 2.145a2.152 2.152 0 01-2.157 2.145 2.154 2.154 0 01-2.158-2.145c0-1.183.966-2.145 2.158-2.145zm-2.565-2.793l1.949 5.513 1.176.477.285-1.227-3.41-4.763zm-4.731-9.071l9.687 13.526-.805 3.488-3.346-1.35-5.536-15.664zM43.737 46.22H23.602v1.429h20.135v-1.43z"/>
    </g>
  </g>
</svg>
