<?xml version="1.0" encoding="UTF-8"?>
<svg width="68px" height="66px" viewBox="0 0 68 66" version="1.1" xmlns="http://www.w3.org/2000/svg" xmlns:xlink="http://www.w3.org/1999/xlink">
    <!-- Generator: Sketch 52.5 (67469) - http://www.bohemiancoding.com/sketch -->
    <title>333333</title>
    <desc>Created with Sketch.</desc>
    <g id="test" stroke="none" stroke-width="1" fill="none" fill-rule="evenodd">
        <g id="icon" transform="translate(-653.000000, -530.000000)">
            <g id="333333" transform="translate(652.000000, 530.000000)">
                <polygon id="多边形" fill="#1B9CCE" fill-rule="nonzero" points="34.6942149 0.479338843 61.5090963 13.3927051 68.1318251 42.4087758 49.5753514 65.6778579 19.8130784 65.6778579 1.25660466 42.4087758 7.87933345 13.3927051"></polygon>
                <g id="链接kuang" transform="translate(18.578512, 20.314050)" fill="#FFFFFF">
                    <path d="M23.7024793,10.7465565 C23.6528926,10.7465565 23.6033058,10.7465565 23.553719,10.7493113 C23.5289256,10.7465565 23.5068871,10.7465565 23.4820937,10.7465565 L17.9944904,10.7465565 L17.9944904,11.9834711 L23.4573003,11.9834711 L23.4986226,11.9889807 L23.5592287,11.9862259 C23.6088154,11.9834711 23.6556474,11.9834711 23.6997245,11.9834711 C25.2892562,11.9834711 26.584022,13.2782369 26.584022,14.8677686 C26.584022,16.4573003 25.2892562,17.7520661 23.6997245,17.7520661 C23.6556474,17.7520661 23.6088154,17.7520661 23.5592287,17.7493113 L23.4986226,17.7465565 L23.4573003,17.7520661 L17.9889807,17.7520661 L17.9889807,18.9889807 L23.4820937,18.9889807 C23.5041322,18.9889807 23.5289256,18.9889807 23.553719,18.9862259 C23.6033058,18.9889807 23.6556474,18.9889807 23.7024793,18.9889807 C25.9752066,18.9889807 27.8236915,17.1404959 27.8236915,14.8677686 C27.8236915,12.5950413 25.9752066,10.7465565 23.7024793,10.7465565 Z M10.107438,17.7438017 L10.046832,17.7465565 C10,17.7493113 9.95041322,17.7493113 9.90633609,17.7493113 C8.31680441,17.7493113 7.02203857,16.4545455 7.02203857,14.8650138 C7.02203857,13.2754821 8.31680441,11.9807163 9.90633609,11.9807163 C9.95041322,11.9807163 9.99724518,11.9807163 10.046832,11.9834711 L10.107438,11.9862259 L10.1487603,11.9807163 L15.6198347,11.9807163 L15.6198347,10.7438017 L10.1267218,10.7438017 C10.1046832,10.7438017 10.0798898,10.7438017 10.0550964,10.7465565 C10.0055096,10.7438017 9.95316804,10.7438017 9.90633609,10.7438017 C7.63360882,10.7465565 5.78512397,12.5950413 5.78512397,14.8677686 C5.78512397,17.1404959 7.63360882,18.9889807 9.90633609,18.9889807 C9.95592287,18.9889807 10.0055096,18.9889807 10.0550964,18.9862259 C10.0798898,18.9889807 10.1019284,18.9889807 10.1267218,18.9889807 L15.6143251,18.9889807 L15.6143251,17.7520661 L10.1515152,17.7520661 L10.107438,17.7438017 Z" id="形状" fill-rule="nonzero"></path>
                    <polygon id="路径" points="12.3966942 14.0495868 21.4931129 14.0495868 21.4931129 15.2865014 12.3966942 15.2865014"></polygon>
                    <path d="M3.85084528,0 L6.62061551,0 L6.62061551,0.568167539 L3.85084528,0.568167539 L3.85084528,0 Z M7.70165364,0 L10.4713869,0 L10.4713869,0.568167539 L7.70165364,0.568167539 L7.70165364,0 Z M11.552462,0 L14.3222322,0 L14.3222322,0.568167539 L11.552462,0.568167539 L11.552462,0 Z M15.4033073,0 L18.1730406,0 L18.1730406,0.568167539 L15.4033073,0.568167539 L15.4033073,0 Z M19.2541156,0 L22.023812,0 L22.023812,0.568167539 L19.2541156,0.568167539 L19.2541156,0 Z M23.104924,0 L25.8746573,0 L25.8746573,0.568167539 L23.104924,0.568167539 L23.104924,0 Z M26.9556954,0 L29.7254657,0 L29.7254657,0.568167539 L26.9556954,0.568167539 L26.9556954,0 Z M30.8518778,0 L30.8518778,0.568167539 L32.4098412,0.568167539 L32.4098412,1.8720392 L33.0578512,1.8720392 L33.0578512,0 L30.8518778,0 Z M32.4098412,28.3574523 L30.288081,28.3574523 L30.288081,28.9256198 L33.0578512,28.9256198 L33.0578512,26.4968736 L32.4098412,26.4968736 L32.4098412,28.3574523 Z M32.4098412,23.1201131 L33.0577774,23.1201131 L33.0577774,25.5488917 L32.4098412,25.5488917 L32.4098412,23.1201131 Z M32.4098412,19.7434173 L33.0577774,19.7434173 L33.0577774,22.1721636 L32.4098412,22.1721636 L32.4098412,19.7434173 Z M32.4098412,16.3666568 L33.0577774,16.3666568 L33.0577774,18.7954354 L32.4098412,18.7954354 L32.4098412,16.3666568 Z M32.4098412,12.9899286 L33.0577774,12.9899286 L33.0577774,15.4186749 L32.4098412,15.4186749 L32.4098412,12.9899286 Z M32.4098412,9.61320051 L33.0577774,9.61320051 L33.0577774,12.0419791 L32.4098412,12.0419791 L32.4098412,9.61320051 Z M32.4098412,6.23644 L33.0577774,6.23644 L33.0577774,8.66521864 L32.4098412,8.66521864 L32.4098412,6.23644 Z M32.4098412,2.85974424 L33.0577774,2.85974424 L33.0577774,5.28852288 L32.4098412,5.28852288 L32.4098412,2.85974424 Z M26.4372357,28.3574523 L29.207006,28.3574523 L29.207006,28.9256198 L26.4372357,28.9256198 L26.4372357,28.3574523 Z M22.5864274,28.3574523 L25.3561976,28.3574523 L25.3561976,28.9256198 L22.5864274,28.9256198 L22.5864274,28.3574523 Z M18.735619,28.3574523 L21.5053892,28.3574523 L21.5053892,28.9256198 L18.735619,28.9256198 L18.735619,28.3574523 Z M14.8848107,28.3574523 L17.654544,28.3574523 L17.654544,28.9256198 L14.8848107,28.9256198 L14.8848107,28.3574523 Z M11.0340023,28.3574523 L13.8037725,28.3574523 L13.8037725,28.9256198 L11.0340023,28.9256198 L11.0340023,28.3574523 Z M7.18319394,28.3574523 L9.95292725,28.3574523 L9.95292725,28.9256198 L7.18319394,28.9256198 L7.18319394,28.3574523 Z M3.33234866,28.3574523 L6.10211889,28.3574523 L6.10211889,28.9256198 L3.33234866,28.9256198 L3.33234866,28.3574523 Z M0,0 L0,2.42871389 L0.647973093,2.42871389 L0.647973093,0.568167539 L2.76980715,0.568167539 L2.76980715,0 L0.647973093,0 L0,0 Z M0,3.37672814 L0.647973093,3.37672814 L0.647973093,5.8054744 L3.69194401e-05,5.8054744 L3.69194401e-05,3.37672814 L0,3.37672814 Z M0,6.75345627 L0.647973093,6.75345627 L0.647973093,9.18223491 L3.69194401e-05,9.18223491 L3.69194401e-05,6.75345627 L0,6.75345627 Z M0,10.1301844 L0.647973093,10.1301844 L0.647973093,12.5589307 L3.69194401e-05,12.5589307 L3.69194401e-05,10.1302168 L0,10.1301844 Z M0,13.5068802 L0.647973093,13.5068802 L0.647973093,15.9356588 L3.69194401e-05,15.9356588 L3.69194401e-05,13.5068478 L0,13.5068802 Z M0,16.8836407 L0.647973093,16.8836407 L0.647973093,19.3123869 L3.69194401e-05,19.3123869 L3.69194401e-05,16.8836407 L0,16.8836407 Z M0,20.2603688 L0.647973093,20.2603688 L0.647973093,22.6891475 L3.69194401e-05,22.6891475 L3.69194401e-05,20.2603688 L0,20.2603688 Z M0,23.6370646 L0.647973093,23.6370646 L0.647973093,26.0658756 L3.69194401e-05,26.0658756 L3.69194401e-05,23.6370646 L0,23.6370646 Z M0.647973093,27.0535483 L3.69194401e-05,27.0535483 L3.69194401e-05,28.9256198 L2.20597346,28.9256198 L2.20597346,28.3574523 L0.647973093,28.3574523 L0.647973093,27.0535483 Z" id="形状" fill-rule="nonzero"></path>
                </g>
            </g>
        </g>
    </g>
</svg>