<svg width="68" height="66" xmlns="http://www.w3.org/2000/svg">
  <g fill="none" fill-rule="evenodd">
    <path fill="#1B9CCE" fill-rule="nonzero" d="M33.694.48L60.51 13.392l6.623 29.016-18.557 23.269H18.813L.257 42.408l6.622-29.015z"/>
    <g fill="#FFF">
      <path d="M41.281 31.06c-.05 0-.1 0-.149.003-.025-.002-.047-.002-.071-.002h-5.488v1.237h5.463l.041.005.06-.003c.05-.002.097-.002.141-.002a2.889 2.889 0 012.885 2.884 2.889 2.889 0 01-2.885 2.884c-.044 0-.09 0-.14-.003l-.06-.002-.042.005h-5.469v1.237h5.494c.022 0 .046 0 .071-.003a4.126 4.126 0 004.27-4.118 4.126 4.126 0 00-4.121-4.121zm-13.595 6.998l-.06.003c-.047.002-.097.002-.141.002A2.889 2.889 0 0124.6 35.18a2.889 2.889 0 013.024-2.881l.06.002.042-.005h5.471v-1.237h-5.493c-.022 0-.047 0-.071.003-.05-.003-.102-.003-.15-.003a4.13 4.13 0 00-4.12 4.124 4.126 4.126 0 004.12 4.121c.05 0 .1 0 .15-.003a.623.623 0 00.071.003h5.488v-1.237H27.73l-.044-.008z" fill-rule="nonzero"/>
      <path d="M29.975 34.364h9.097V35.6h-9.097z"/>
      <path d="M21.43 20.314h2.77v.568h-2.77v-.568zm3.85 0h2.77v.568h-2.77v-.568zm3.851 0h2.77v.568h-2.77v-.568zm3.85 0h2.77v.568h-2.77v-.568zm3.852 0h2.77v.568h-2.77v-.568zm3.85 0h2.77v.568h-2.77v-.568zm3.851 0h2.77v.568h-2.77v-.568zm3.896 0v.568h1.558v1.304h.648v-1.872H48.43zm1.558 28.358h-2.121v.568h2.77v-2.43h-.649v1.862zm0-5.238h.648v2.429h-.648v-2.429zm0-3.377h.648v2.43h-.648v-2.43zm0-3.376h.648v2.428h-.648v-2.428zm0-3.377h.648v2.429h-.648v-2.429zm0-3.377h.648v2.429h-.648v-2.429zm0-3.377h.648v2.43h-.648v-2.43zm0-3.376h.648v2.429h-.648v-2.43zm-5.972 25.498h2.77v.568h-2.77v-.568zm-3.851 0h2.77v.568h-2.77v-.568zm-3.85 0h2.769v.568h-2.77v-.568zm-3.852 0h2.77v.568h-2.77v-.568zm-3.85 0h2.77v.568h-2.77v-.568zm-3.851 0h2.77v.568h-2.77v-.568zm-3.851 0h2.77v.568h-2.77v-.568zm-3.332-28.358v2.429h.647v-1.86h2.122v-.569H17.58zm0 3.377h.647v2.429h-.647v-2.43zm0 3.377h.647v2.428h-.647v-2.428zm0 3.376h.647v2.429h-.647v-2.429zm0 3.377h.647v2.429h-.647v-2.43zm0 3.377h.647v2.428h-.647v-2.428zm0 3.376h.647v2.43h-.647v-2.43zm0 3.377h.647v2.429h-.647V43.95zm.647 3.417h-.647v1.872h2.205v-.568h-1.558v-1.304z" fill-rule="nonzero"/>
    </g>
  </g>
</svg>
