<?xml version="1.0" encoding="UTF-8"?>
<svg width="68px" height="66px" viewBox="0 0 68 66" version="1.1" xmlns="http://www.w3.org/2000/svg" xmlns:xlink="http://www.w3.org/1999/xlink">
    <!-- Generator: Sketch 52.5 (67469) - http://www.bohemiancoding.com/sketch -->
    <title>222222</title>
    <desc>Created with Sketch.</desc>
    <g id="test" stroke="none" stroke-width="1" fill="none" fill-rule="evenodd">
        <g id="icon" transform="translate(-556.000000, -530.000000)">
            <g id="222222" transform="translate(555.000000, 530.000000)">
                <polygon id="多边形" fill="#1B9CCE" fill-rule="nonzero" points="35 0.479338843 61.8148814 13.3927051 68.4376102 42.4087758 49.8811365 65.6778579 20.1188635 65.6778579 1.56238979 42.4087758 8.18511858 13.3927051"></polygon>
                <g id="保护suokuang" transform="translate(18.884298, 20.314050)">
                    <path d="M16.2138022,3.30578512 C15.9247718,3.30578512 15.6357414,3.4021286 15.3788255,3.56270103 C15.3145966,3.59481552 13.5482997,5.45745583 11.8141173,5.87494418 C10.6901102,6.16397457 9.43764522,6.19608906 8.82746992,6.19608906 C8.44209606,6.19608906 8.21729465,6.19608906 8.18518017,6.19608906 C8.15306569,6.19608906 8.1209512,6.19608906 8.0888367,6.19608906 C7.70346283,6.19608906 7.35020347,6.32454701 7.06117308,6.58146292 C6.77214269,6.83837881 6.61157025,7.22375268 6.61157025,7.60912654 L6.61157025,11.2380637 C6.61157025,24.6298053 15.5715124,26.3318731 15.9568863,26.3961021 C16.0532298,26.3961021 16.1174587,26.4282166 16.2138022,26.4282166 C16.3101457,26.4282166 16.3743747,26.4282166 16.4707181,26.3961021 C16.856092,26.3318731 25.8802632,24.6298053 25.8802632,11.2380637 L25.8802632,7.60912654 C25.8802632,7.22375268 25.7196907,6.83837883 25.3985458,6.54934844 C25.1095154,6.29243253 24.7562561,6.16397457 24.4029967,6.16397457 C24.3708822,6.16397457 24.3387677,6.16397457 24.3066532,6.16397457 C24.2745387,6.16397457 24.0497373,6.16397457 23.6643635,6.16397457 C23.0541882,6.16397457 21.8338376,6.13186009 20.7098306,5.8428297 C19.2325641,5.5216848 17.5304962,3.88384591 17.0487789,3.56270103 C16.791863,3.4021286 16.5028326,3.30578512 16.2138022,3.30578512 Z" id="路径" fill="#FFFFFF"></path>
                    <path d="M19.3917976,13.5347589 L18.8107994,13.5347589 L18.8107994,12.3669813 C18.8107994,10.9014782 17.6430218,9.73370064 16.1842633,9.73370064 C14.7255048,9.73370064 13.5577272,10.9014782 13.5577272,12.3669813 L13.5577272,13.5347589 L12.9776925,13.5347589 C12.6597332,13.5347589 12.3966942,13.7977979 12.3966942,14.1157572 L12.3966942,18.7945757 C12.3966942,19.1125349 12.6597332,19.3755739 12.9776925,19.3755739 L19.3917976,19.3755739 C19.7165015,19.3755739 19.9795405,19.1125349 19.9795405,18.7945757 L19.9795405,14.1157572 C19.978577,13.7977979 19.7165015,13.5347589 19.3917976,13.5347589 Z M17.9330392,13.5347589 L14.4354874,13.5347589 L14.4354874,12.3669813 C14.4354874,11.3996144 15.223641,10.6114609 16.1842633,10.6114609 C17.1506667,10.6153149 17.9330392,11.4005779 17.9330392,12.3669813 L17.9330392,13.5347589 Z" id="形状" fill="#1B9CCE" fill-rule="nonzero"></path>
                    <path d="M3.85084528,0 L6.62061551,0 L6.62061551,0.568167539 L3.85084528,0.568167539 L3.85084528,0 Z M7.70165364,0 L10.4713869,0 L10.4713869,0.568167539 L7.70165364,0.568167539 L7.70165364,0 Z M11.552462,0 L14.3222322,0 L14.3222322,0.568167539 L11.552462,0.568167539 L11.552462,0 Z M15.4033073,0 L18.1730406,0 L18.1730406,0.568167539 L15.4033073,0.568167539 L15.4033073,0 Z M19.2541156,0 L22.023812,0 L22.023812,0.568167539 L19.2541156,0.568167539 L19.2541156,0 Z M23.104924,0 L25.8746573,0 L25.8746573,0.568167539 L23.104924,0.568167539 L23.104924,0 Z M26.9556954,0 L29.7254657,0 L29.7254657,0.568167539 L26.9556954,0.568167539 L26.9556954,0 Z M30.8518778,0 L30.8518778,0.568167539 L32.4098412,0.568167539 L32.4098412,1.8720392 L33.0578512,1.8720392 L33.0578512,0 L30.8518778,0 Z M32.4098412,28.3574523 L30.288081,28.3574523 L30.288081,28.9256198 L33.0578512,28.9256198 L33.0578512,26.4968736 L32.4098412,26.4968736 L32.4098412,28.3574523 Z M32.4098412,23.1201131 L33.0577774,23.1201131 L33.0577774,25.5488917 L32.4098412,25.5488917 L32.4098412,23.1201131 Z M32.4098412,19.7434173 L33.0577774,19.7434173 L33.0577774,22.1721636 L32.4098412,22.1721636 L32.4098412,19.7434173 Z M32.4098412,16.3666568 L33.0577774,16.3666568 L33.0577774,18.7954354 L32.4098412,18.7954354 L32.4098412,16.3666568 Z M32.4098412,12.9899286 L33.0577774,12.9899286 L33.0577774,15.4186749 L32.4098412,15.4186749 L32.4098412,12.9899286 Z M32.4098412,9.61320051 L33.0577774,9.61320051 L33.0577774,12.0419791 L32.4098412,12.0419791 L32.4098412,9.61320051 Z M32.4098412,6.23644 L33.0577774,6.23644 L33.0577774,8.66521864 L32.4098412,8.66521864 L32.4098412,6.23644 Z M32.4098412,2.85974424 L33.0577774,2.85974424 L33.0577774,5.28852288 L32.4098412,5.28852288 L32.4098412,2.85974424 Z M26.4372357,28.3574523 L29.207006,28.3574523 L29.207006,28.9256198 L26.4372357,28.9256198 L26.4372357,28.3574523 Z M22.5864274,28.3574523 L25.3561976,28.3574523 L25.3561976,28.9256198 L22.5864274,28.9256198 L22.5864274,28.3574523 Z M18.735619,28.3574523 L21.5053892,28.3574523 L21.5053892,28.9256198 L18.735619,28.9256198 L18.735619,28.3574523 Z M14.8848107,28.3574523 L17.654544,28.3574523 L17.654544,28.9256198 L14.8848107,28.9256198 L14.8848107,28.3574523 Z M11.0340023,28.3574523 L13.8037725,28.3574523 L13.8037725,28.9256198 L11.0340023,28.9256198 L11.0340023,28.3574523 Z M7.18319394,28.3574523 L9.95292725,28.3574523 L9.95292725,28.9256198 L7.18319394,28.9256198 L7.18319394,28.3574523 Z M3.33234866,28.3574523 L6.10211889,28.3574523 L6.10211889,28.9256198 L3.33234866,28.9256198 L3.33234866,28.3574523 Z M0,0 L0,2.42871389 L0.647973093,2.42871389 L0.647973093,0.568167539 L2.76980715,0.568167539 L2.76980715,0 L0.647973093,0 L0,0 Z M0,3.37672814 L0.647973093,3.37672814 L0.647973093,5.8054744 L3.69194401e-05,5.8054744 L3.69194401e-05,3.37672814 L0,3.37672814 Z M0,6.75345627 L0.647973093,6.75345627 L0.647973093,9.18223491 L3.69194401e-05,9.18223491 L3.69194401e-05,6.75345627 L0,6.75345627 Z M0,10.1301844 L0.647973093,10.1301844 L0.647973093,12.5589307 L3.69194401e-05,12.5589307 L3.69194401e-05,10.1302168 L0,10.1301844 Z M0,13.5068802 L0.647973093,13.5068802 L0.647973093,15.9356588 L3.69194401e-05,15.9356588 L3.69194401e-05,13.5068478 L0,13.5068802 Z M0,16.8836407 L0.647973093,16.8836407 L0.647973093,19.3123869 L3.69194401e-05,19.3123869 L3.69194401e-05,16.8836407 L0,16.8836407 Z M0,20.2603688 L0.647973093,20.2603688 L0.647973093,22.6891475 L3.69194401e-05,22.6891475 L3.69194401e-05,20.2603688 L0,20.2603688 Z M0,23.6370646 L0.647973093,23.6370646 L0.647973093,26.0658756 L3.69194401e-05,26.0658756 L3.69194401e-05,23.6370646 L0,23.6370646 Z M0.647973093,27.0535483 L3.69194401e-05,27.0535483 L3.69194401e-05,28.9256198 L2.20597346,28.9256198 L2.20597346,28.3574523 L0.647973093,28.3574523 L0.647973093,27.0535483 Z" id="形状" fill="#FFFFFF" fill-rule="nonzero"></path>
                </g>
            </g>
        </g>
    </g>
</svg>