<svg width="68" height="66" xmlns="http://www.w3.org/2000/svg">
  <g fill="none" fill-rule="evenodd">
    <path fill="#1B9CCE" fill-rule="nonzero" d="M34 .48l26.815 12.913 6.623 29.016L48.88 65.678H19.12L.562 42.408l6.623-29.015z"/>
    <path d="M34.098 23.62c-.289 0-.578.096-.835.257-.064.032-1.83 1.895-3.565 2.312-1.124.289-2.376.321-2.986.321h-.739c-.385 0-.738.129-1.028.386-.289.256-.45.642-.45 1.027v3.63c0 13.39 8.96 15.093 9.346 15.157.097 0 .16.032.257.032.096 0 .16 0 .257-.032.385-.064 9.41-1.766 9.41-15.158v-3.629c0-.385-.161-.77-.482-1.06a1.494 1.494 0 00-.996-.385h-.738c-.61 0-1.83-.032-2.955-.321-1.477-.321-3.18-1.96-3.66-2.28a1.592 1.592 0 00-.836-.257z" fill="#FFF"/>
    <path d="M37.276 33.849h-.58V32.68a2.618 2.618 0 00-2.627-2.633 2.618 2.618 0 00-2.627 2.633v1.168h-.58a.585.585 0 00-.581.58v4.68c0 .318.263.58.581.58h6.414a.586.586 0 00.588-.58v-4.68a.587.587 0 00-.588-.58zm-1.459 0H32.32V32.68c0-.967.788-1.755 1.749-1.755.966.003 1.748.789 1.748 1.755v1.168z" fill="#1B9CCE" fill-rule="nonzero"/>
    <path d="M21.735 20.314h2.77v.568h-2.77v-.568zm3.851 0h2.77v.568h-2.77v-.568zm3.85 0h2.77v.568h-2.77v-.568zm3.852 0h2.77v.568h-2.77v-.568zm3.85 0h2.77v.568h-2.77v-.568zm3.851 0h2.77v.568h-2.77v-.568zm3.851 0h2.77v.568h-2.77v-.568zm3.896 0v.568h1.558v1.304h.648v-1.872h-2.206zm1.558 28.358h-2.122v.568h2.77v-2.43h-.648v1.862zm0-5.238h.648v2.429h-.648v-2.429zm0-3.377h.648v2.43h-.648v-2.43zm0-3.376h.648v2.428h-.648v-2.428zm0-3.377h.648v2.429h-.648v-2.429zm0-3.377h.648v2.429h-.648v-2.429zm0-3.377h.648v2.43h-.648v-2.43zm0-3.376h.648v2.429h-.648v-2.43zm-5.972 25.498h2.77v.568h-2.77v-.568zm-3.851 0h2.77v.568h-2.77v-.568zm-3.851 0h2.77v.568h-2.77v-.568zm-3.85 0h2.769v.568h-2.77v-.568zm-3.852 0h2.77v.568h-2.77v-.568zm-3.85 0h2.77v.568h-2.77v-.568zm-3.851 0h2.77v.568h-2.77v-.568zm-3.333-28.358v2.429h.648v-1.86h2.122v-.569h-2.77zm0 3.377h.648v2.429h-.648v-2.43zm0 3.377h.648v2.428h-.648v-2.428zm0 3.376h.648v2.429h-.648v-2.429zm0 3.377h.648v2.429h-.648v-2.43zm0 3.377h.648v2.428h-.648v-2.428zm0 3.376h.648v2.43h-.648v-2.43zm0 3.377h.648v2.429h-.648V43.95zm.648 3.417h-.648v1.872h2.206v-.568h-1.558v-1.304z" fill="#FFF" fill-rule="nonzero"/>
  </g>
</svg>
