<svg width="68" height="67" xmlns="http://www.w3.org/2000/svg">
  <g fill-rule="nonzero" fill="none">
    <path fill="#1B9CCE" d="M34.215.835L61.03 13.748l6.622 29.016-18.556 23.27H19.334L.777 42.763 7.4 13.748z"/>
    <path d="M45.247 22.452a.405.405 0 00-.303-.124H29.24a.396.396 0 00-.29.124.356.356 0 00-.123.289v5.524h-2.08a.405.405 0 00-.303.124.395.395 0 00-.11.29v5.193H24.35a.396.396 0 00-.29.124.356.356 0 00-.124.289v13.21c0 .11.042.207.124.29a.396.396 0 00.29.124h15.704c.124 0 .22-.041.303-.124a.445.445 0 00.11-.29v-5.193h1.984c.11 0 .206-.041.29-.124a.396.396 0 00.123-.289v-5.524h2.08c.124 0 .22-.042.303-.124a.445.445 0 00.11-.29v-13.21a.395.395 0 00-.11-.29zm-2.507 5.937a.396.396 0 00-.29-.124H29.654v-5.11h14.878v12.384h-1.667v-6.86a.356.356 0 00-.124-.29zm-.702.703v12.384h-1.571v-7.191a.395.395 0 00-.11-.29.405.405 0 00-.303-.123H27.16v-4.78h14.878z" fill="#FFF"/>
  </g>
</svg>
