<?xml version="1.0" encoding="UTF-8"?>
<svg width="68px" height="66px" viewBox="0 0 68 66" version="1.1" xmlns="http://www.w3.org/2000/svg" xmlns:xlink="http://www.w3.org/1999/xlink">
    <!-- Generator: Sketch 52.5 (67469) - http://www.bohemiancoding.com/sketch -->
    <title>111111</title>
    <desc>Created with Sketch.</desc>
    <g id="test" stroke="none" stroke-width="1" fill="none" fill-rule="evenodd">
        <g id="icon" transform="translate(-653.000000, -445.000000)">
            <g id="111111" transform="translate(652.000000, 445.000000)">
                <polygon id="多边形" fill="#1B9CCE" fill-rule="nonzero" points="34.6942149 0.355371901 61.5090963 13.2687382 68.1318251 42.2848089 49.5753514 65.5538909 19.8130784 65.5538909 1.25660466 42.2848089 7.87933345 13.2687382"></polygon>
                <g id="保护" transform="translate(22.710744, 20.190083)">
                    <path d="M12.3553719,0 C11.9834711,0 11.6115703,0.123966952 11.2809917,0.330578519 C11.1983471,0.371900826 8.92561983,2.76859504 6.69421488,3.30578513 C5.24793388,3.67768596 3.63636365,3.71900826 2.85123966,3.71900826 C2.35537188,3.71900826 2.0661157,3.71900826 2.02479339,3.71900826 C1.98347108,3.71900826 1.94214878,3.71900826 1.90082644,3.71900826 C1.40495866,3.71900826 0.95041322,3.88429752 0.578512393,4.21487604 C0.206611567,4.54545453 0,5.04132231 0,5.53719009 L0,10.2066116 C0,27.4380165 11.5289256,29.6280992 12.0247934,29.7107438 C12.1487603,29.7107438 12.231405,29.7520661 12.3553719,29.7520661 C12.4793389,29.7520661 12.5619835,29.7520661 12.6859504,29.7107438 C13.1818182,29.6280992 24.7933884,27.4380165 24.7933884,10.2066116 L24.7933884,5.53719009 C24.7933884,5.04132231 24.5867769,4.54545456 24.1735537,4.17355374 C23.8016529,3.84297522 23.3471075,3.67768596 22.892562,3.67768596 C22.8512397,3.67768596 22.8099174,3.67768596 22.7685951,3.67768596 C22.7272727,3.67768596 22.4380165,3.67768596 21.9421488,3.67768596 C21.1570248,3.67768596 19.5867769,3.63636365 18.1404959,3.26446282 C16.2396694,2.85123966 14.0495868,0.743801653 13.4297521,0.330578519 C13.0991736,0.123966952 12.7272727,0 12.3553719,0 Z" id="路径" fill="#FFFFFF"></path>
                    <path d="M12.2997805,15.3719008 C14.4044403,15.3719008 16.1095872,13.7058671 16.1095872,11.6524269 C16.1095872,9.59898678 14.4044403,7.9338843 12.3007118,7.9338843 C10.1960521,7.9338843 8.49090516,9.59898678 8.49090516,11.6524269 C8.49090516,13.7058671 10.1960521,15.3719008 12.2997805,15.3719008 Z M14.0468344,16.611415 L10.8712195,16.611415 C8.15378709,16.611415 5.95041322,18.762638 5.95041322,21.4148818 L5.95041322,21.7249932 C5.95041322,22.8089861 8.15378709,22.8099174 10.8712195,22.8099174 L14.0468344,22.8099174 C16.7642667,22.8099174 18.9667093,22.7698729 18.9667093,21.7249932 L18.9667093,21.4148818 C18.9667093,18.7617068 16.7642667,16.611415 14.0468344,16.611415 Z" id="形状" fill="#1B9CCE" fill-rule="nonzero"></path>
                </g>
            </g>
        </g>
    </g>
</svg>