<svg width="68" height="66" xmlns="http://www.w3.org/2000/svg">
  <g fill="none" fill-rule="evenodd">
    <path fill="#1B9CCE" fill-rule="nonzero" d="M33.694.355L60.51 13.27l6.623 29.016-18.557 23.269H18.813L.257 42.284 6.879 13.27z"/>
    <path d="M34.066 20.19c-.372 0-.744.124-1.074.33-.083.042-2.356 2.439-4.587 2.976-1.446.372-3.058.413-3.843.413h-.95c-.496 0-.95.165-1.323.496-.372.33-.578.826-.578 1.322v4.67c0 17.231 11.529 19.421 12.025 19.504.124 0 .206.041.33.041.124 0 .207 0 .33-.041.497-.083 12.108-2.273 12.108-19.504v-4.67c0-.496-.206-.991-.62-1.363a1.923 1.923 0 00-1.28-.496h-.951c-.785 0-2.355-.042-3.802-.413-1.9-.414-4.09-2.521-4.71-2.934a2.048 2.048 0 00-1.075-.33z" fill="#FFF"/>
    <path d="M34.01 35.562c2.105 0 3.81-1.666 3.81-3.72 0-2.053-1.705-3.718-3.809-3.718s-3.81 1.665-3.81 3.719c0 2.053 1.706 3.719 3.81 3.719zm1.748 1.24h-3.176c-2.717 0-4.92 2.15-4.92 4.803v.31C27.661 43 29.864 43 32.581 43h3.176c2.717 0 4.92-.04 4.92-1.085v-.31c0-2.653-2.203-4.804-4.92-4.804z" fill="#1B9CCE" fill-rule="nonzero"/>
  </g>
</svg>
