<?xml version="1.0" encoding="UTF-8"?>
<svg width="68px" height="67px" viewBox="0 0 68 67" version="1.1" xmlns="http://www.w3.org/2000/svg" xmlns:xlink="http://www.w3.org/1999/xlink">
    <!-- Generator: Sketch 52.5 (67469) - http://www.bohemiancoding.com/sketch -->
    <title>2222</title>
    <desc>Created with Sketch.</desc>
    <g id="test" stroke="none" stroke-width="1" fill="none" fill-rule="evenodd">
        <g id="icon" transform="translate(-318.000000, -642.000000)" fill-rule="nonzero">
            <g id="2222" transform="translate(317.000000, 642.000000)">
                <polygon id="多边形" fill="#1B9CCE" points="35.1652893 0.876033058 61.9801707 13.7893994 68.6028995 42.80547 50.0464258 66.0745521 20.2841527 66.0745521 1.72767905 42.80547 8.35040783 13.7893994"></polygon>
                <g id="shuju_1" transform="translate(23.181818, 19.884298)" fill="#FFFFFF">
                    <path d="M12.3966942,0 C5.37342498,0 0.00268966844,2.75422323 0.00268966844,6.19700226 L0.00268966844,24.0994533 C0.00268966844,27.5422323 5.37342498,30.2964556 12.3966942,30.2964556 C19.4199635,30.2964556 24.7906988,27.5422323 24.7906988,24.0994533 L24.7906988,6.19700226 C24.7906988,2.75422323 19.4199635,0 12.3966942,0 Z M12.3966942,1.51482278 C18.8691188,1.51482278 23.4135871,3.99362368 23.4135871,6.19700226 C23.4135871,8.40038084 18.8691188,10.8791817 12.3966942,10.8791818 C5.92426963,10.8791818 1.3798013,8.40038087 1.3798013,6.19700226 C1.3798013,3.99362365 5.92426963,1.51482278 12.3966942,1.51482278 Z M12.3966942,28.7816328 C5.92426963,28.7816328 1.3798013,26.3028319 1.3798013,24.0994533 L1.3798013,20.7943854 C3.30775755,22.8600528 7.43909241,24.2371644 12.3966942,24.2371644 C17.354296,24.2371644 21.4856309,22.8600528 23.4135871,20.7943854 L23.4135871,24.0994533 C23.4135871,26.3028319 18.8691188,28.7816328 12.3966942,28.7816328 Z M23.4135871,13.3579827 C22.3118978,15.5613612 17.7674295,17.3516064 12.3966942,17.3516064 C7.0259589,17.3516064 2.48149057,15.5613612 1.3798013,13.3579827 L1.3798013,9.08893667 C3.4454687,11.0168929 7.57680356,12.3940045 12.3966942,12.3940045 C17.2165849,12.3940045 21.3479197,11.0168929 23.4135871,9.08893667 L23.4135871,13.3579827 Z" id="形状"></path>
                    <path d="M21.3479197,12.1185822 C20.9347863,12.1185822 20.5216528,12.3940045 20.5216528,12.807138 C20.5216528,13.2202715 20.7970751,13.633405 21.3479197,13.633405 C21.7610532,13.633405 22.1741867,13.2202715 22.1741867,12.807138 C22.0364755,12.3940045 21.7610532,12.1185822 21.3479197,12.1185822 Z M21.3479197,18.0401622 C20.9347863,18.0401622 20.5216528,18.3155845 20.5216528,18.728718 C20.5216528,19.1418515 20.7970751,19.554985 21.2102086,19.554985 C21.623342,19.554985 22.0364755,19.1418515 22.0364755,18.728718 C22.0364755,18.3155845 21.7610532,18.0401622 21.3479197,18.0401622 Z M21.3479197,23.6863198 C20.9347863,23.6863198 20.5216528,23.9617421 20.5216528,24.3748756 C20.5216528,24.7880091 20.7970751,25.2011426 21.2102086,25.2011426 C21.623342,25.2011426 22.0364755,24.9257202 22.0364755,24.5125868 C22.0364755,24.0994533 21.7610532,23.6863198 21.3479197,23.6863198 Z" id="形状"></path>
                </g>
            </g>
        </g>
    </g>
</svg>