<svg width="68" height="67" xmlns="http://www.w3.org/2000/svg">
  <g fill-rule="nonzero" fill="none">
    <path fill="#1B9CCE" d="M34.165.876L60.98 13.789l6.623 29.016-18.557 23.27H19.284L.728 42.805 7.35 13.79z"/>
    <g fill="#FFF">
      <path d="M34.579 19.884c-7.024 0-12.394 2.755-12.394 6.197v17.903c0 3.443 5.37 6.197 12.394 6.197 7.023 0 12.394-2.754 12.394-6.197V26.08c0-3.442-5.371-6.197-12.394-6.197zm0 1.515c6.472 0 11.016 2.479 11.016 4.682 0 2.204-4.544 4.682-11.016 4.682-6.473 0-11.017-2.478-11.017-4.682 0-2.203 4.544-4.682 11.017-4.682zm0 27.267c-6.473 0-11.017-2.479-11.017-4.682v-3.305c1.928 2.065 6.059 3.442 11.017 3.442 4.957 0 9.088-1.377 11.016-3.442v3.305c0 2.203-4.544 4.682-11.016 4.682zm11.016-15.424c-1.101 2.204-5.646 3.994-11.016 3.994-5.371 0-9.916-1.79-11.017-3.994v-4.269c2.065 1.928 6.197 3.305 11.017 3.305 4.82 0 8.95-1.377 11.016-3.305v4.27z"/>
      <path d="M43.53 32.003c-.413 0-.827.275-.827.688 0 .414.276.827.827.827.413 0 .826-.413.826-.827-.138-.413-.413-.688-.826-.688zm0 5.921c-.413 0-.827.276-.827.689 0 .413.276.826.689.826.413 0 .826-.413.826-.826s-.275-.689-.688-.689zm0 5.647c-.413 0-.827.275-.827.688 0 .413.276.826.689.826.413 0 .826-.275.826-.688 0-.413-.275-.826-.688-.826z"/>
    </g>
  </g>
</svg>
