<svg width="68" height="66" xmlns="http://www.w3.org/2000/svg">
  <g fill-rule="nonzero" fill="none">
    <path fill="#1B9CCE" d="M33.694.165L60.51 13.08l6.623 29.016-18.557 23.269H18.813L.257 42.094 6.879 13.08z"/>
    <g transform="translate(19.231 22.48)">
      <path d="M28.428 2.292H5.914c-.528 0-.955-.514-.955-1.146C4.959.513 5.386 0 5.914 0h22.514c.527 0 .955.513.955 1.146 0 .632-.428 1.146-.955 1.146zm0 7.489H12.216c-.527 0-.954-.514-.954-1.146 0-.632.427-1.146.954-1.146h16.212c.527 0 .955.514.955 1.146 0 .632-.428 1.146-.955 1.146zm0 7.49H12.216c-.527 0-.954-.514-.954-1.146 0-.633.427-1.146.954-1.146h16.212c.527 0 .955.513.955 1.146 0 .632-.428 1.145-.955 1.145zm-.43 7.335H6.24c-.707 0-1.281-.514-1.281-1.146 0-.633.574-1.146 1.281-1.146h21.757c.707 0 1.281.513 1.281 1.146 0 .632-.573 1.146-1.28 1.146zM3.176 2.292H.129C.058 2.292 0 1.778 0 1.146 0 .513.058 0 .13 0h3.047c.07 0 .129.513.129 1.146 0 .632-.058 1.146-.13 1.146zM8.09 9.73H5.133c-.096 0-.174-.514-.174-1.146 0-.633.078-1.146.174-1.146H8.09c.096 0 .174.513.174 1.146 0 .632-.078 1.146-.174 1.146zm0 7.438H5.133c-.096 0-.174-.514-.174-1.146 0-.633.078-1.146.174-1.146H8.09c.096 0 .174.513.174 1.146 0 .632-.078 1.146-.174 1.146zm-4.958 7.438H.174c-.096 0-.174-.514-.174-1.146 0-.633.078-1.146.174-1.146h2.958c.096 0 .174.513.174 1.146 0 .632-.078 1.146-.174 1.146z" fill="#FFF"/>
      <path d="M21.844 9.93H20.58V7.387a5.7 5.7 0 00-5.72-5.734 5.7 5.7 0 00-5.72 5.734V9.93H7.878c-.693 0-1.265.573-1.265 1.265v10.189c0 .692.572 1.265 1.265 1.265h13.967c.707 0 1.28-.573 1.28-1.265V11.195a1.278 1.278 0 00-1.28-1.265zm-3.176 0H11.05V7.387c0-2.106 1.717-3.823 3.808-3.823a3.824 3.824 0 013.809 3.823V9.93z" stroke="#1B9CCE" fill="#FFF"/>
      <circle fill="#1B9CCE" cx="14.876" cy="16.529" r="1.653"/>
    </g>
  </g>
</svg>
