<?xml version="1.0" encoding="UTF-8"?>
<svg width="68px" height="66px" viewBox="0 0 68 66" version="1.1" xmlns="http://www.w3.org/2000/svg" xmlns:xlink="http://www.w3.org/1999/xlink">
    <!-- Generator: Sketch 52.5 (67469) - http://www.bohemiancoding.com/sketch -->
    <title>111</title>
    <desc>Created with Sketch.</desc>
    <g id="test" stroke="none" stroke-width="1" fill="none" fill-rule="evenodd">
        <g id="icon" transform="translate(-353.000000, -208.000000)" fill-rule="nonzero">
            <g id="111" transform="translate(352.000000, 208.000000)">
                <polygon id="多边形" fill="#1B9CCE" points="34.6942149 0.165289256 61.5090963 13.0786556 68.1318251 42.0947262 49.5753514 65.3638083 19.8130784 65.3638083 1.25660466 42.0947262 7.87933345 13.0786556"></polygon>
                <g id="gengduosuo" transform="translate(20.231405, 22.479339)">
                    <path d="M28.4284719,2.2915748 L5.91350052,2.2915748 C5.38648099,2.2915748 4.95867769,1.77821084 4.95867769,1.1457874 C4.95867769,0.513363964 5.38648099,0 5.91350052,0 L28.4284719,0 C28.9554914,0 29.3832947,0.513363964 29.3832947,1.1457874 C29.3832947,1.77821084 28.9554914,2.2915748 28.4284719,2.2915748 Z M28.4284719,9.7807997 L12.2163981,9.7807997 C11.6893785,9.7807997 11.2615752,9.26743574 11.2615752,8.6350123 C11.2615752,8.00258887 11.6893785,7.4892249 12.2163981,7.4892249 L28.4281162,7.4892249 C28.9551358,7.4892249 29.3829391,8.00258887 29.3829391,8.6350123 C29.3829391,9.26743574 28.9554914,9.7807997 28.4284719,9.7807997 Z M28.4284719,17.2704513 L12.2163981,17.2704513 C11.6893785,17.2704513 11.2615752,16.7570874 11.2615752,16.1246639 C11.2615752,15.4922405 11.6893785,14.9788765 12.2163981,14.9788765 L28.4281162,14.9788765 C28.9551358,14.9788765 29.3829391,15.4922405 29.3829391,16.1246639 C29.3829391,16.7570874 28.9554914,17.2704513 28.4284719,17.2704513 Z M27.9974492,24.6056244 L6.24009421,24.6056244 C5.53280956,24.6056244 4.95867769,24.0922604 4.95867769,23.459837 C4.95867769,22.8274136 5.53280956,22.3140496 6.24009421,22.3140496 L27.9969719,22.3140496 C28.7042566,22.3140496 29.2783884,22.8274136 29.2783884,23.459837 C29.2783884,24.0922604 28.7047338,24.6056244 27.9974492,24.6056244 Z M3.17655325,2.2915748 L0.129231878,2.2915748 C0.0579016569,2.2915748 0,1.77821084 0,1.1457874 C0,0.513363964 0.0579016569,0 0.129231878,0 L3.17655325,0 C3.24788347,0 3.30578512,0.513363964 3.30578512,1.1457874 C3.30578512,1.77821084 3.24788347,2.2915748 3.17655325,2.2915748 Z M8.09034437,9.72959133 L5.13286099,9.72959133 C5.03671959,9.72959133 4.95867769,9.21622737 4.95867769,8.58380393 C4.95867769,7.95138049 5.03671959,7.43801653 5.13286099,7.43801653 L8.0902795,7.43801653 C8.1864209,7.43801653 8.26446281,7.95138049 8.26446281,8.58380393 C8.26446281,9.21622737 8.18648578,9.72959133 8.09034437,9.72959133 Z M8.09034437,17.1676079 L5.13286099,17.1676079 C5.03671959,17.1676079 4.95867769,16.6542439 4.95867769,16.0218205 C4.95867769,15.389397 5.03671959,14.8760331 5.13286099,14.8760331 L8.0902795,14.8760331 C8.1864209,14.8760331 8.26446281,15.389397 8.26446281,16.0218205 C8.26446281,16.6542439 8.18648578,17.1676079 8.09034437,17.1676079 Z M3.13166669,24.6056244 L0.174183309,24.6056244 C0.0780419071,24.6056244 0,24.0922604 0,23.459837 C0,22.8274136 0.0780419071,22.3140496 0.174183309,22.3140496 L3.13160182,22.3140496 C3.22774322,22.3140496 3.30578512,22.8274136 3.30578512,23.459837 C3.30578512,24.0922604 3.22780809,24.6056244 3.13166669,24.6056244 Z" id="形状" fill="#FFFFFF"></path>
                    <path d="M21.844178,9.93011539 L20.5789904,9.93011539 L20.5789904,7.38715111 C20.5789904,4.19585682 18.0360261,1.65289256 14.8594189,1.65289256 C11.6828117,1.65289256 9.13984744,4.19585685 9.13984742,7.38715111 L9.13984742,9.93011539 L7.87675791,9.93011539 C7.18436663,9.93011539 6.61157023,10.5029118 6.61157025,11.1953031 L6.61157025,21.3839454 C6.61157025,22.0763367 7.18436665,22.6491331 7.87675791,22.6491331 L21.844178,22.6491331 C22.5512564,22.6491331 23.1240528,22.0763367 23.1240528,21.3839454 L23.1240528,11.1953031 C23.1219546,10.5029118 22.5512564,9.93011539 21.844178,9.93011539 Z M18.6675708,9.93011539 L11.0512669,9.93011539 L11.0512669,7.38715111 C11.0512669,5.28060315 12.767558,3.56431208 14.8594189,3.56431208 C16.9638687,3.57270471 18.6675708,5.2827013 18.6675708,7.38715111 L18.6675708,9.93011539 Z" id="形状" stroke="#1B9CCE" fill="#FFFFFF"></path>
                    <circle id="椭圆形" fill="#1B9CCE" cx="14.8760331" cy="16.5289256" r="1.65289256"></circle>
                </g>
            </g>
        </g>
    </g>
</svg>