<svg width="68" height="66" xmlns="http://www.w3.org/2000/svg">
  <g fill-rule="nonzero" fill="none">
    <path fill="#1B9CCE" d="M33.686.157L60.501 13.07l6.623 29.016-18.557 23.27H18.805L.248 42.086 6.871 13.07z"/>
    <path d="M44.718 21.774a.405.405 0 00-.303-.124H28.711a.396.396 0 00-.29.124.356.356 0 00-.123.29v5.523h-2.08a.405.405 0 00-.303.124.395.395 0 00-.11.29v5.193H23.82a.396.396 0 00-.29.124.356.356 0 00-.124.29v13.21c0 .11.042.207.124.29a.396.396 0 00.29.123h15.704c.124 0 .22-.041.303-.124a.445.445 0 00.11-.29v-5.192h1.984c.11 0 .207-.042.29-.125a.396.396 0 00.123-.289v-5.524h2.08c.124 0 .22-.041.303-.124a.445.445 0 00.11-.29v-13.21a.395.395 0 00-.11-.29zm-2.507 5.937a.396.396 0 00-.29-.124H29.125v-5.11h14.878V34.86h-1.667V28a.356.356 0 00-.124-.29zm-.702.703v12.384h-1.57v-7.19a.395.395 0 00-.111-.29.405.405 0 00-.303-.124H26.63v-4.78h14.878z" fill="#FFF"/>
    <path d="M31.62 34.868c-3.745 0-6.609.908-6.609 2.042v5.9c0 1.135 2.864 2.043 6.609 2.043s6.609-.908 6.609-2.042v-5.9c0-1.135-2.864-2.043-6.61-2.043zm0 .808c3.451 0 5.874 1.321 5.874 2.496s-2.423 2.497-5.874 2.497c-3.451 0-5.875-1.322-5.875-2.497 0-1.175 2.424-2.496 5.875-2.496zm5.874 6.315c-.587 1.175-3.01 2.13-5.874 2.13s-5.287-.955-5.875-2.13v-2.277c1.102 1.028 3.305 1.763 5.875 1.763s4.773-.735 5.874-1.763v2.277z" fill="#1B9CCE"/>
  </g>
</svg>
