<svg width="68" height="66" xmlns="http://www.w3.org/2000/svg">
  <g fill="none" fill-rule="evenodd">
    <path fill="#1B9CCE" fill-rule="nonzero" d="M34.124.554l26.815 12.913 6.623 29.016-18.557 23.27H19.243L.686 42.482 7.31 13.467z"/>
    <path d="M50.508 41.293h-2.767v-6.656a.685.685 0 00-.676-.691h-.02l-11.808-.018v-2.967h6.068a1.142 1.142 0 001.126-1.152v-8.268a1.141 1.141 0 00-1.126-1.152h-13.82a1.141 1.141 0 00-1.127 1.152v8.268a1.141 1.141 0 001.126 1.152h6.07v2.963l-11.806-.015a.682.682 0 00-.676.69v.34a.36.36 0 00.004.083v6.27h-2.768a1.141 1.141 0 00-1.126 1.152v4.785a1.141 1.141 0 001.126 1.152h7.218a1.141 1.141 0 001.126-1.152v-4.785a1.141 1.141 0 00-1.126-1.151h-2.767v-5.66l10.794.015v5.645h-2.768a1.141 1.141 0 00-1.126 1.151v4.785a1.141 1.141 0 001.126 1.152h7.219a1.141 1.141 0 001.126-1.152v-4.785a1.141 1.141 0 00-1.126-1.151h-2.767V35.65l10.82.015v5.627H43.29a1.141 1.141 0 00-1.126 1.151v4.785a1.141 1.141 0 001.126 1.152h7.218a1.141 1.141 0 001.127-1.152v-4.785a1.141 1.141 0 00-1.127-1.151z" fill="#FFF"/>
  </g>
</svg>
